<?xml version="1.0" encoding="UTF-8"?>
<svg xmlns:svg="http://www.w3.org/2000/svg" xmlns="http://www.w3.org/2000/svg" viewBox="0 0 1000 1000">
  <path transform="translate(0,0)" style="fill:#000000;fill-opacity:1;stroke:none" d="m 500.375,212.11218 -380.375,0.25 -120,100 144.09375,0 c -10.84584,10.8458 -21.68563,21.68554 -32.53125,32.53125 1.73096,124.84306 0.86127,203.86128 0.875,328.84375 l -84.90625,84.90625 c 38.303206,-5.54758 76.00249,5.15094 112.96875,13.71875 67.2702,21.64463 140.74215,1.6613 199.5,-33.75 54.15568,-36.77235 99.21905,-85.1582 146.0625,-130.5 l 0.375,-0.40625 L 495,597.36218 c -6.77912,6.06583 -15,10 -26.71875,20.625 -4.36341,3.47414 -8.77029,6.88979 -13.28125,10.1875 -48.41305,31.96333 -107.77325,51.08693 -166.0625,46 -50.44574,-8.42865 -99.63518,-27.68605 -151.5625,-24.9375 L 220,566.61218 c 0.006,-101.66326 -0.54565,-139.49715 0.15625,-254.25 l 159.84375,0 120.375,-100.25 z"/>
</svg>
