<?xml version="1.0" encoding="UTF-8"?>
<svg xmlns:svg="http://www.w3.org/2000/svg" xmlns="http://www.w3.org/2000/svg" viewBox="0 0 1000 1000">
  <path transform="translate(0,0)" style="fill:#000000;fill-opacity:1;stroke:none" d="m 760,792.36218 c -23.0521,23.0521 -46.1041,46.1041 -69.1562,69.1562 23.8951,12.3906 71.7642,11.0807 70.4233,45.5876 4.6247,55.0699 5.7923,110.54092 6.1505,165.73632 -1.9543,30.5323 -9.527,63.5572 -40.9927,75.9903 -72.9978,46.5977 -158.0144,68.8129 -240.4341,92.3808 -65.8996,16.3232 -134.8119,22.1482 -197.0902,51.1787 -33.7364,13.2794 -74.695,37.2309 -97.7692,55.5814 -23.6559,22.4544 -47.4461,44.9971 -69.22637,69.2428 -11.53191,15.8291 18.76684,-19.5329 29.6246,-21.7855 69.24737,-46.2561 150.76727,-69.1009 232.25997,-81.8197 76.4958,-17.2329 152.2742,-39.6674 224.506,-70.3024 46.0089,-20.5046 86.7531,-50.7971 120.798,-87.8287 12.3347,-11.0746 25.3652,-28.9216 25.809,-22.2392 20.9075,-20.9075 41.8149,-41.8149 62.7224,-62.7224 29.6703,-58.3515 13.7828,-124.59792 14.625,-187.00002 -5.291,-25.2333 3.9296,-60.5791 -6.665,-71.4596 -15.7262,9.7978 -45.6692,-18.2429 -65.585,-19.6966 z"/>
</svg>
