<?xml version="1.0" encoding="UTF-8"?>
<svg xmlns:svg="http://www.w3.org/2000/svg" xmlns="http://www.w3.org/2000/svg" viewBox="0 0 1000 1000">
  <path transform="translate(-3000,0)" style="fill:#000000;fill-opacity:1;stroke:none" d="m 3940.8438,799.39338 c -22.3325,22.33255 -44.6675,44.66745 -67,67 11.7017,12.39687 45.0929,19.42868 63.75,32.40625 l 66.5,-66.5 c -10.8027,-13.65874 -44.0033,-21.47962 -63.25,-32.90625 z m -67.6875,63.65625 c -19.2381,19.23926 -38.4792,38.4789 -57.7187,57.71875 -16.2821,9.68333 -11.145,28.42369 -13.4688,44.65625 -3.5475,27.89621 -1.9326,64.31897 26.3125,79.03127 l -63.9063,63.9063 c 26.8817,0.5007 52.1528,11.7924 75.625,24 58.3765,26.2697 110.1222,64.51 167,93.6562 71.9347,43.9017 168.1146,39.2751 237.5,-7.5 24.9129,-18.0758 46.4186,-40.1176 67.8126,-62.2188 9.4033,-9.3528 19.3002,-19.2447 24.0937,-24.1562 -0.8616,0.8444 -1.7484,1.6736 -2.625,2.5 l -16.0625,16.0625 c 4.1527,-4.2846 8.307,-8.5446 12.5,-12.7813 -55.2578,49.4743 -137.8071,64.774 -208.3438,43.75 -63.2646,-22.0337 -118.8531,-60.732 -175.7812,-95.1562 -36.399,-17.3073 -71.0449,-41.86 -111.7812,-47.1875 16.1884,-16.1884 32.374,-32.3741 48.5624,-48.56252 10.0118,-9.06844 21.0353,-17.13959 1.6563,-24.0625 -24.922,-29.16443 -11.8575,-69.31683 -11.375,-103.65625 z m 457.0625,274.87497 c 1.2003,-1.0746 2.3884,-2.1743 3.5625,-3.2812 l 13.0313,-13.0312 c -5.6218,5.3225 -11.1362,10.798 -16.5938,16.3124 z"/>
</svg>
