<?xml version="1.0" encoding="UTF-8"?>
<svg xmlns:svg="http://www.w3.org/2000/svg" xmlns="http://www.w3.org/2000/svg" viewBox="0 0 1000 1000">
  <path transform="translate(-6000,0)" style="fill:#000000;fill-opacity:1;stroke:none" d="m 6538.7661,1074.4206 c 12.6227,-20.36 31.3476,-35.8792 47.4727,-53.3521 21.131,-20.4111 40.91,-42.61587 64.8409,-59.82306 25.0515,-14.83058 54.7054,-20.49532 83.4678,-22.05183 39.2406,0.82021 75.5804,23.72077 115.4167,18.32564 27.9698,-2.85995 53.6699,-15.70165 77.6598,-29.62114 -25.1038,24.90479 -49.861,50.25876 -75.1812,74.88309 -34.1199,20.4307 -74.2219,37.0209 -114.5839,27.917 -30.9829,-5.2783 -61.0369,-20.3257 -93.1539,-15.1661 -32.2977,3.8212 -65.8542,13.3688 -89.1652,37.3759 -4.537,3.269 11.127,-11.9373 13.7423,-14.8114 20.8774,-20.8798 41.4524,-42.0975 63.0195,-62.2657 -9.3315,8.6088 -14.1966,20.70267 -23.8662,28.9205 -23.2231,23.223 -46.4462,46.4461 -69.6693,69.6692 z"/>
</svg>
