<?xml version="1.0" encoding="UTF-8"?>
<svg xmlns:svg="http://www.w3.org/2000/svg" xmlns="http://www.w3.org/2000/svg" viewBox="0 0 1000 1000">
  <path transform="translate(-6000,0)" style="fill:#000000;fill-opacity:1;stroke:none" d="m 6170.0313,-106.01282 c -29.9691,29.969133 -59.9371,59.93712 -89.9063,89.906253 -3.8642,6.079921 -19.269,14.52743 -14.8124,18.90625 48.4085,28.164086 93.4837,61.852056 136.9062,97.15625 -4.5547,5.134357 -8.2944,10.792057 -10.0625,17.749997 -9.869,36.15539 -16.1133,73.7052 -16.9063,111.1875 2.0345,28.99403 4.2997,61.61651 23.8438,84.6875 L 6305.625,207.04968 c -20.4029,-25.76286 -23.1517,-60.94703 -24.375,-92.65625 3.1851,-33.091586 5.925,-67.256776 16.5,-98.968747 28.5104,12.432207 55.2521,28.716885 83.8438,41.09375 1.0591,45.140577 0.6694,90.283007 0.4375,135.437497 l -1.4375,56.34375 -76.875,64.0625 76.2812,0 c -0.077,17.77949 -0.1194,35.56566 -0.1562,53.34375 -0.1563,0.15625 -0.3125,0.3125 -0.4688,0.46875 -1.2754,30.82898 -1.8629,80.11561 -2.0937,110.96875 1.6233,128.711 -1.7851,109.51571 -2.375,238.21875 -11.481,11.29519 -9.5244,20.92233 -1.2813,29.84375 0.9498,5.72499 3.8312,7.63518 7.8126,7.03125 17.597,13.67499 46.2026,26.25015 57.3124,41.71875 1.7201,-0.35628 3.4381,-0.9003 5.1876,-1.59375 -13.6657,13.67733 -27.185,27.4195 -40.3438,41.34375 12.4159,-10.0159 24.5153,-20.38245 36.375,-31.03125 -0.5587,0.61697 -1.1294,1.22622 -1.6875,1.84375 1.1575,-1.15458 2.3112,-2.31415 3.4687,-3.46875 33.0119,-29.78147 64.1273,-61.70246 94.5938,-94.1875 8.2359,-8.1779 16.4709,-16.36523 24.7188,-24.53125 0.5516,-0.74487 -8.334,8.45657 -19.4376,18.875 4.1347,-4.42657 8.258,-8.87279 12.375,-13.3125 19.3997,-19.4544 38.7282,-38.98805 58.25,-58.3125 -10.4705,9.61634 -20.8944,19.28844 -31.2187,29.0625 0.8404,-0.90994 1.6908,-1.8092 2.5313,-2.71875 -2.1876,2.18926 -4.374,4.3742 -6.5626,6.5625 -12.0685,11.47125 -24.0181,23.06012 -35.875,34.75 6.5979,-23.26806 -32.2672,-41.77915 -58.5624,-58.21875 4.1325,-15.01697 4.8851,-31.1932 1.1874,-48.21875 2.3568,-135.84523 -0.1981,-142.51451 3.25,-278.4375 l 53.5938,0 c 40.1213,-33.41681 80.2537,-66.83319 120.375,-100.25 l -172.1875,0.15625 c -0.1559,-68.10976 -0.9342,-191.327042 0.125,-255.031247 3.2737,-3.702029 4.6261,-7.02694 0.1563,-9.25 0.019,-0.85474 0.043,-1.86279 0.062,-2.6875 -0.6458,0.64576 -1.2916,1.29174 -1.9374,1.9375 -1.7252,-0.56762 -3.9543,-1.0584 -6.8438,-1.40625 -31.6626,-12.68232 -59.9531,-32.81391 -92.4062,-43.40625 -28.6435,28.64345 -57.294,57.29405 -85.9376,85.9375 -42.9073,-32.907805 -86.3759,-65.2855 -131.9687,-94.375003 z M 6059.0938,4.643433 c -35.2239,35.223879 -70.4636,70.463624 -105.6875,105.687497 -11.7371,21.93145 -16.3091,48.81863 -14.0625,73.8125 6.3786,44.53437 42.3556,76.11158 78.3125,98.90625 35.6204,-35.62043 71.2234,-71.25457 106.8437,-106.875 -25.7721,-16.1408 -50.8131,-35.49206 -66.0624,-62.375 -19.5337,-33.637572 -14.6301,-74.988818 0.6562,-109.156247 z"/>
</svg>
