<?xml version="1.0" encoding="UTF-8"?>
<svg xmlns:svg="http://www.w3.org/2000/svg" xmlns="http://www.w3.org/2000/svg" viewBox="0 0 1000 1000">
  <path transform="translate(-11000,0)" style="fill:#000000;fill-opacity:1;stroke:none" d="m 11740.375,212.11218 -440.375,0.25 -120,100 195.625,0 c -7.802,7.80248 -15.604,15.60377 -23.406,23.40625 -10.562,15.64724 -7.653,37.22322 -8.281,56.78125 -32.236,32.26282 -64.553,64.57031 -96.813,96.84375 1.995,73.05473 1.404,146.16443 1.406,219.25 -5.473,5.05946 -8.642,10.15804 0,15.34375 10e-4,0.53109 0,1.06267 0,1.59375 l 0.969,-0.96875 c 37.196,25.46469 72.869,54.68624 115.25,71.21875 34.611,-34.61131 69.233,-69.23244 103.844,-103.84375 0,-0.0319 -0.02,-0.0619 -0.03,-0.0937 l 105.188,-105.15625 c 0.285,-81.21631 -0.474,-162.45161 1,-243.65625 -3.274,3.26549 -6.54,6.54518 -9.812,9.8125 -0.87,-4.01033 -5.979,-7.55245 -15.532,-10.59375 -15.765,-11.20549 -32.642,-20.56027 -49.5,-29.9375 l 120.094,0 c 40.121,-33.41683 80.254,-66.83317 120.375,-100.25 z m -480.375,120.25 c -24.588,24.58762 -49.162,49.16238 -73.75,73.75 -6.18,3.59953 -0.03,5.98553 3.781,9.03125 23.332,20.06135 49.175,36.87203 73.5,55.65625 25.227,-25.22719 50.461,-50.46031 75.688,-75.6875 -11.904,-9.43909 -24.372,-18.11792 -36.438,-27.34375 -15.161,-10.68041 -29.136,-22.8826 -42.781,-35.40625 z m 95.906,67.84375 c 35.665,18.90773 70.719,38.86384 104.938,60.34375 l 4.656,-4.65625 c 1.371,77.45796 0.691,154.93677 0.938,232.40625 -8.388,-9.00209 -37.876,-16.34403 -49.657,-28.4375 -20.24,-16.24823 -44.6,-28.58836 -61.843,-48.03125 0.04,-70.53592 -0.492,-141.10579 0.968,-211.625 z"/>
</svg>
