<?xml version="1.0" encoding="UTF-8"?>
<svg xmlns:svg="http://www.w3.org/2000/svg" xmlns="http://www.w3.org/2000/svg" viewBox="0 0 1000 1000">
  <path transform="translate(-12000,0)" style="fill:#000000;fill-opacity:1;stroke:none" d="m 12920.375,212.11218 -440.375,0.25 -120,100 253.062,0 -47.624,47.625 c 0.352,0.0629 0.71,0.1528 1.062,0.21875 -17.894,17.98706 -36.113,35.73166 -53.469,54.21875 -12.891,12.65795 -25.838,25.27253 -38.875,37.78125 9.956,-9.48637 19.908,-19.21681 30.25,-28.46875 -10.397,11.46497 -20.392,23.28479 -29.687,35.6875 -18.587,23.02222 -35.447,59.31757 -8.25,82.8125 31.121,-31.1214 62.223,-62.2536 93.343,-93.375 21.968,-12.5218 6.169,-23.12238 -0.624,-40.90625 -0.478,-13.29307 3.566,-25.37882 9.781,-36.65625 2.844,-2.84377 5.687,-5.68748 8.531,-8.53125 24.755,7.00339 46.96,21.13899 68.281,35.3125 -0.612,14.67986 0.02,29.87505 0.657,45.03125 -0.167,-0.004 -0.334,0.004 -0.5,0 l -109.344,109.3125 c 27.54,-0.76191 55.132,-1.23525 82.625,0.625 -0.719,0.71885 -1.438,1.4374 -2.157,2.15625 32.828,-7.04059 69.134,18.13709 72.438,51.875 1.027,8.53916 0.228,16.49214 -1.844,24 l -19.687,19.6875 c -2.719,2.97611 -5.176,6.16012 -7.469,9.46875 -34.095,16.56838 -78.408,14.41381 -105.156,-14.75 -31.94,-26.94164 -45.557,-71.26327 -81.875,-93.15625 -28.941,28.94084 -57.872,57.87166 -86.813,86.8125 -4.567,8.01219 -27.897,19.97374 -16.937,24.71875 39.01,26.39555 54.517,76.25569 94.531,102.03125 38.197,26.08625 86.374,6.90069 121,-15.9375 28.042,-19.1225 51.39,-43.83971 74.906,-68.3125 11.814,-11.78423 23.619,-23.56382 35.438,-35.34375 8.952,-8.43978 17.799,-17.06713 26.187,-26.09375 0.585,-0.58244 1.166,-1.16756 1.75,-1.75 -0.303,0.27627 -0.597,0.53377 -0.906,0.8125 9.262,-10.03441 17.941,-20.54969 25.531,-31.8125 19.274,-18.91835 38.453,-38.33058 47.156,-64 13.463,-40.552 -25.755,-82.84766 -66.624,-77.875 -17.168,-1.38403 -34.403,-1.76091 -51.626,-2 25.576,-25.57524 51.144,-51.14351 76.719,-76.71875 1.726,-17.54786 0.659,-36.03715 0.219,-54.5 l 46,0 c 40.121,-33.41683 80.254,-66.83317 120.375,-100.25 z m -196.844,406.34375 c 4.776,-4.34842 8.807,-8.38267 11.75,-11.71875 -3.919,3.90556 -7.831,7.81326 -11.75,11.71875 z m -95.969,95.71875 c -2.514,2.92022 -5.232,5.66643 -8.25,8.21875 2.747,-2.74397 5.503,-5.47529 8.25,-8.21875 z"/>
</svg>
