<?xml version="1.0" encoding="UTF-8"?>
<svg xmlns:svg="http://www.w3.org/2000/svg" xmlns="http://www.w3.org/2000/svg" viewBox="0 0 1000 1000">
  <path transform="translate(-18000,0)" style="fill:#000000;fill-opacity:1;stroke:none" d="m 18603.719,579.76843 c -17.973,0.24606 -34.04,11.91994 -48.282,22.0625 -8.364,6.85723 -16.443,14.0575 -24.344,21.4375 0.664,-0.64006 1.306,-1.29776 1.969,-1.9375 -0.978,0.84228 -1.882,1.72864 -2.75,2.65625 -0.106,0.10242 -0.206,0.21007 -0.312,0.3125 -6.396,6.00108 -12.649,12.12696 -18.875,18.3125 -11.502,11.24132 -22.942,22.56838 -34.219,34.03125 -2.146,-0.98194 -4.286,-1.9658 -6.437,-2.9375 -21.493,21.49263 -43.008,42.97612 -64.5,64.46875 -2.497,3.63138 -8.988,6.48308 -8.438,10.78125 31.162,10.52541 59.59,27.85431 88.5,43.40625 l 67.469,-67.46875 c 7.942,-5.16959 4.674,-8.65687 -3.75,-11.40625 -22.693,-12.91886 -46.045,-24.52137 -69.75,-35.4375 1.791,-1.79149 3.583,-3.58351 5.375,-5.375 5.527,-4.10531 11.295,-7.89162 17.406,-11.15625 16.816,-11.49745 38.954,-11.63735 57.25,-3.8125 25.149,9.74983 44.028,34.82227 43.625,62.21875 0.918,34.90584 -19.907,65.35252 -41.969,90.53125 6.854,-6.85368 13.709,-13.70882 20.563,-20.5625 17.499,-17.8911 35.84,-35.00053 52.75,-53.4375 21.712,-25.5111 41.547,-56.88848 39.031,-91.75 -1.047,-33.21286 -30.208,-60.77845 -62.469,-64.3125 -2.645,-0.46941 -5.276,-0.66015 -7.843,-0.625 z"/>
</svg>
