<?xml version="1.0" encoding="UTF-8"?>
<svg xmlns:svg="http://www.w3.org/2000/svg" xmlns="http://www.w3.org/2000/svg" viewBox="0 0 1000 1000">
  <path transform="translate(-7000,0)" style="fill:#000000;fill-opacity:1;stroke:none" d="m 7528.9062,210.89343 c -0.4271,0.42706 -0.8541,0.85419 -1.2812,1.28125 l -227.625,0.1875 -120,100 247.4688,0 c -2.6252,2.62511 -5.2499,5.24994 -7.875,7.875 0.247,10.7479 0.5181,82.76274 0.8124,93.53125 -23.0345,-0.76005 -46.0686,-1.34566 -69.125,-1.40625 -36.4642,36.4642 -72.942,72.94202 -109.4062,109.40625 0.031,-10e-4 0.063,0.001 0.094,0 l -35.625,35.625 c -5.7495,8.97317 -23.5893,15.15049 -16.6563,26.96875 6.9588,45.78935 8.2945,92.61047 5.875,138.875 l -2.5313,2.53125 c 0.7931,0.0381 1.587,0.0966 2.375,0.15625 -0.028,0.49941 -0.034,1.00072 -0.062,1.5 0.4582,-0.45828 0.9167,-0.91672 1.375,-1.375 31.5255,2.86293 59.0662,22.56626 83.25,41.71875 17.072,-17.07205 34.1467,-34.1467 51.2187,-51.21875 15.9944,-11.82477 35.2233,-28.72006 50,-38.78125 l 36.6563,-36.65625 c -2.3213,24.42753 -5.6755,48.75134 -10.375,72.96875 -7.8059,39.61449 -28.5105,74.30741 -54.4376,104.59375 -3.729,3.72905 -7.4584,7.45845 -11.1874,11.1875 3.5125,-3.503 7.0594,-6.98747 10.5937,-10.46875 -1.4586,1.69467 -2.9165,3.36413 -4.4063,5.03125 6.5393,-6.65597 13.0644,-13.3338 19.625,-19.96875 0.1795,-0.17486 0.3519,-0.35641 0.5313,-0.53125 25.7585,-25.09882 51.7228,-49.98519 76.5,-76.0625 43.3814,-41.07992 70.5816,-97.759 75.5,-157.28125 10.1506,-65.29939 10.0293,-192.37451 9.2187,-258.21875 l 10.5938,0 c 40.1213,-33.41683 80.2537,-66.83317 120.375,-100.25 l -131.4688,0.0625 c 0.01,-0.42631 -0.01,-0.85496 0,-1.28125 z m -180.875,613.53125 c -8.5633,8.71614 -17.1111,17.42289 -25.625,26.1875 8.8383,-8.32838 17.4592,-17.04922 25.625,-26.1875 z m 74.5,-312.15625 c 0.269,36.31708 -0.3565,72.61618 -3,108.75 -0.7078,0.35478 -1.4286,0.70905 -2.125,1.03125 l -34.8124,34.8125 c -23.5885,-18.64678 -49.8608,-36.60075 -80.1876,-40.46875 -0.052,0.0521 -0.1041,0.10416 -0.1562,0.15625 2.6825,-7.71159 3.0213,-16.45921 2.0938,-25.625 -0.8432,-23.09933 -0.4646,-46.44907 -1.5313,-69.65625 35.8805,0.63471 71.7746,2.43369 107.6563,3.0625 4.021,-4.02119 8.0414,-8.04131 12.0624,-12.0625 z"/>
</svg>
