<?xml version="1.0" encoding="UTF-8" standalone="no"?>
<svg viewBox="0 0 1000 1000">

<path
transform="translate(-29000,-52.3622)"
style="fill:#000000;fill-opacity:1;stroke:none"
d="m 29500,349.96221 c -28.8,0 -51.2,22.39999 -51.2,51.19999 0,28.8 22.4,51.2 51.2,51.2 28.8,0 51.2,-22.4 51.2,-51.2 0,-28.8 -22.4,-51.19999 -51.2,-51.19999 z m -167.44,69.07999 c -13.01,0 -26.018,5.09767 -36.2,15.28 -20.365,20.36468 -20.365,52.03533 0,72.4 20.365,20.36468 52.035,20.36468 72.4,0 20.365,-20.36467 20.365,-52.03532 0,-72.4 -10.182,-10.18234 -23.19,-15.28 -36.2,-15.28 z m 343.94,0 c -13.01,0 -26.038,5.09766 -36.22,15.28 -20.365,20.36468 -20.365,52.03533 0,72.4 20.365,20.36468 52.055,20.36468 72.42,0 20.365,-20.36467 20.365,-52.03532 0,-72.4 -10.182,-10.18234 -23.19,-15.28 -36.2,-15.28 z m -419.7,174.12 c -28.8,0 -51.2,22.4 -51.2,51.2 0,28.8 22.4,51.2 51.2,51.2 28.8,0 51.2,-22.4 51.2,-51.2 0,-28.8 -22.4,-51.2 -51.2,-51.2 z m 486.4,0 c -28.8,0 -51.2,22.4 -51.2,51.2 0,28.8 22.4,51.2 51.2,51.2 28.8,0 51.2,-22.4 51.2,-51.2 0,-28.8 -22.4,-51.2 -51.2,-51.2 z m -75.76,160.76 c -13.01,0 -26.018,5.09767 -36.2,15.28 -20.365,20.36468 -20.365,52.03532 0,72.4 20.365,20.36468 52.035,20.36468 72.4,0 20.365,-20.36467 20.365,-52.03532 0,-72.4 -10.182,-10.18233 -23.19,-15.28 -36.2,-15.28 z m -334.88,9.06 c -13.01,0 -26.018,5.07767 -36.2,15.26 -20.365,20.36468 -20.365,52.05532 0,72.42 20.365,20.36468 52.035,20.36468 72.4,0 20.365,-20.36468 20.365,-52.05532 0,-72.42 -10.182,-10.18233 -23.19,-15.26 -36.2,-15.26 z m 167.44,60.58 c -28.8,0 -51.2,22.4 -51.2,51.2 0,28.80001 22.4,51.20003 51.2,51.20003 28.8,0 51.2,-22.40002 51.2,-51.20003 0,-28.8 -22.4,-51.2 -51.2,-51.2 z"
/>
</svg>
