<?xml version="1.0" encoding="UTF-8"?>
<svg xmlns:svg="http://www.w3.org/2000/svg" xmlns="http://www.w3.org/2000/svg" viewBox="0 0 1000 1000">
  <path transform="translate(-6000,0)" style="fill:#000000;fill-opacity:1;stroke:none" d="m 6988.9062,210.89343 c -0.4271,0.42706 -0.8541,0.85419 -1.2812,1.28125 l -267.625,0.1875 -120,100 287.4688,0 c -2.6252,2.62511 -5.2499,5.24994 -7.875,7.875 0.2463,10.74855 0.5179,21.5126 0.8124,32.28125 -23.0345,-0.76005 -46.0686,-1.34566 -69.125,-1.40625 -36.4642,36.4642 -72.942,72.94202 -109.4062,109.40625 0.021,-8.6e-4 0.042,8.6e-4 0.063,0 l -34.9063,34.90625 c -5.8861,9.23318 -24.1983,15.59664 -17.3437,27.6875 6.9588,45.78935 8.2945,92.61047 5.875,138.875 -0.8439,0.84389 -1.6874,1.68736 -2.5313,2.53125 0.7931,0.0381 1.587,0.0966 2.375,0.15625 -0.028,0.49941 -0.034,1.00072 -0.062,1.5 0.4583,-0.45831 0.9166,-0.91669 1.375,-1.375 31.5255,2.86293 59.0662,22.56626 83.25,41.71875 17.0408,-17.0408 34.0842,-34.0842 51.125,-51.125 14.679,-10.99015 33.6433,-27.24908 45.375,-35.3125 14.057,-13.03967 27.7747,-26.46522 41.375,-40.03125 -2.3224,24.36571 -5.6785,48.6214 -10.375,72.78125 -7.8058,39.61449 -28.5105,74.30741 -54.4376,104.59375 -3.729,3.72905 -7.4584,7.45845 -11.1874,11.1875 3.5139,-3.50448 7.0268,-6.98608 10.5624,-10.46875 -1.4542,1.68947 -2.8897,3.36917 -4.375,5.03125 6.7457,-6.86609 13.4817,-13.75003 20.25,-20.59375 24.4403,-23.8134 49.0693,-47.42637 72.6876,-72.0625 44.0771,-41.13576 73.5131,-97.49367 78.7812,-157.8125 10.5466,-66.40264 10.463,-133.36916 9.6562,-200.34375 l 10.5938,0 c 40.1213,-33.41683 80.2537,-66.83317 120.375,-100.25 l -131.4688,0.0625 c 0.01,-0.42686 -0.01,-0.85441 0,-1.28125 z m -180.875,552.28125 c -8.5632,8.7162 -17.1114,17.42257 -25.625,26.1875 8.8383,-8.32838 17.4592,-17.04922 25.625,-26.1875 z m 74.5,-312.15625 c 0.2735,36.31504 -0.3559,72.6162 -3,108.75 -0.7142,0.35756 -1.4232,0.70768 -2.125,1.03125 l -34.8437,34.8125 c -23.5347,-18.60278 -49.7298,-36.52047 -79.9687,-40.4375 2.4019,-6.09069 3.1007,-12.93307 1.625,-20.6875 -0.5917,-24.69497 -0.1673,-49.67394 -1.4063,-74.46875 35.8805,0.63471 71.7746,2.43369 107.6563,3.0625 4.0211,-4.02119 8.0413,-8.04131 12.0624,-12.0625 z M 6680,692.36218 c -25.4468,25.41211 -50.8234,50.88056 -76.3125,76.25 23.2378,23.64416 53.6371,41.21619 79.8437,62.1875 25.2272,-25.22735 50.4603,-50.46015 75.6876,-75.6875 -26.6296,-20.62846 -54.8893,-39.29294 -79.2188,-62.75 z"/>
</svg>
