<?xml version="1.0" encoding="UTF-8"?>
<svg xmlns:svg="http://www.w3.org/2000/svg" xmlns="http://www.w3.org/2000/svg" viewBox="0 0 1000 1000">
  <path transform="translate(-3000,0)" style="fill:#000000;fill-opacity:1;stroke:none" d="m 3807.7983,219.11651 c 45.024,-55.00844 94.1095,-108.68243 152.2017,-150.20326 79.2333,-48.245623 176.459,-40.586869 265.4153,-49.071821 142.9511,-9.825139 288.2526,1.490392 429.4182,-27.3580422 140.4901,-36.6224978 275.297,-102.2991668 381.0245,-203.1348668 -18.3001,18.11707 -42.8246,44.49246 -57.4558,57.56472 27.9546,-33.36301 59.9082,-62.97118 90.4105,-93.95255 -93.9298,110.26489 -208.7204,205.878541 -344.4257,259.700851 -90.5142,36.919613 -186.2665,63.583528 -284.7034,63.469589 -144.763,6.17359 -290.0218,7.918246 -434.1138,23.791939 -56.308,6.751711 -111.7129,28.027281 -152.881,67.981981 20.5053,-20.64847 72.9674,-74.698921 73.5976,-74.386076 -29.132,30.842626 -54.4647,64.634706 -86.0842,93.193636 -10.8013,10.8013 -21.6026,21.6026 -32.4039,32.4039 z"/>
</svg>
