<?xml version="1.0" encoding="UTF-8"?>
<svg xmlns:svg="http://www.w3.org/2000/svg" xmlns="http://www.w3.org/2000/svg" viewBox="0 0 1000 1000">
  <path transform="translate(-9000,0)" style="fill:#000000;fill-opacity:1;stroke:none" d="m 9580.375,212.11218 -420.375,0.25 -120,100 322.4062,0 c -8.2687,8.26886 -16.5437,16.54369 -24.8124,24.8125 -13.3288,9.1178 -16.3172,20.00117 -10.5626,35.25 3.6276,47.48292 5.435,95.07104 6.3438,142.6875 -1.5854,1.51973 -3.1683,3.0389 -4.75,4.5625 1.0627,-1.08355 2.1233,-2.16826 3.1875,-3.25 -7.3313,7.06326 -14.5825,14.20712 -21.8125,21.375 -3.2211,3.15756 -6.4479,6.29802 -9.6562,9.46875 -8.6017,-16.67898 -32.2964,-34.09186 -53.25,-38.5 0.9102,-28.60949 0.042,-58.03831 0.5937,-87.0625 l 92.7813,-92.75 c -6.9254,5.00365 -13.659,10.22792 -20.25,15.625 2.5884,-2.68512 5.178,-5.39451 7.75,-8.09375 -7.3539,6.60256 -14.6273,13.3021 -21.8438,20.0625 -15.0329,13.27398 -29.299,27.40138 -43.2188,41.90625 -5.0182,4.99994 -10.0484,9.99667 -15.0312,15.03125 0.079,-2.71332 0.1689,-5.42195 0.2812,-8.125 -36.4143,36.41384 -72.8045,72.83593 -109.2187,109.25 0.949,32.24521 0.6838,64.49266 0.8125,96.75 l -3.7812,3.78125 c 0.7044,0.19754 1.476,0.4355 2.25,0.6875 l -84.0938,84.125 c -12.6537,9.85541 -21.2631,23.78343 -17.8438,40.59375 7.3205,36.48877 49.4946,51.63289 82.6876,53.03125 46.9025,-0.15553 94.7563,-10.77004 136.0937,-33.40625 l 79.0625,-79.0625 0,2.09375 c 33.8317,-33.83166 67.6683,-67.63709 101.5,-101.46875 13.74,-22.35091 2.2231,-55.68767 5.9062,-82.03125 -1.3615,-62.3813 -0.7221,-124.98997 -3.8437,-187.34375 l 22.3125,0 c 40.1213,-33.41683 80.2537,-66.83318 120.375,-100.25 z m -463.1562,124.84375 c -24.5881,24.58762 -49.1621,49.19363 -73.75,73.78125 -6.18,3.59953 -0.031,5.95428 3.7812,9 23.332,20.06135 49.175,36.87203 73.5,55.65625 25.227,-25.22719 50.4605,-50.42906 75.6875,-75.65625 -11.904,-9.43909 -24.3715,-18.14917 -36.4375,-27.375 -15.161,-10.68041 -29.1362,-22.8826 -42.7812,-35.40625 z m 216.25,181.875 c 0.8868,49.05069 0.7914,98.11895 0.6874,147.15625 -1.492,0.62742 -2.923,1.20173 -4.2187,1.625 -48.1877,14.95767 -103.715,30.36159 -151.5937,6.34375 -18.9309,-8.1557 -33.4454,-26.62941 -34.6563,-46.65625 l 6.5625,-6.5625 c 14.3404,6.80577 32.1977,18.28279 43.0312,31.6875 -6.796,6.84236 -21.9616,20.36971 -10.7812,12.875 4.0893,-3.63867 8.124,-7.36192 12.1562,-11.0625 0.071,0.095 0.1482,0.18607 0.2188,0.28125 -0.6559,0.67676 -1.3129,1.35452 -1.9688,2.03125 0.6788,-0.65563 1.3531,-1.31256 2.0313,-1.96875 0.6709,0.90704 1.3058,1.82794 1.9063,2.75 l 105.4687,-105.46875 c -0.1615,-0.46769 -0.343,-0.9356 -0.5313,-1.40625 10.6155,-10.48264 21.1599,-21.05054 31.6876,-31.625 z"/>
</svg>
