<?xml version="1.0" encoding="UTF-8"?>
<svg xmlns:svg="http://www.w3.org/2000/svg" xmlns="http://www.w3.org/2000/svg" viewBox="0 0 1000 1000">
  <path transform="translate(-12000,0)" style="fill:#000000;fill-opacity:1;stroke:none" d="m 12320.378,212.11218 -380.378,0.25 -120,100 55.749,0 c -10.085,10.08442 -20.169,20.16728 -30.25,30.25 -1.416,44.17304 0.08,87.83609 -0.875,133.03125 0.654,124.19782 -1.231,128.40531 1.406,252.59375 l 0.09,3.90625 c 0.06,2.9677 0.117,5.93859 0.187,8.90625 16.229,-16.22902 32.459,-32.45848 48.688,-48.6875 3.778,8.49676 13.491,16.98471 22.562,24.40625 33.949,25.80858 60.189,67.82079 105.219,74.6875 40.383,1.10271 72.045,-31.23088 102,-54.40625 57.534,-44.55421 106.097,-98.85711 158,-149.53125 -33.602,27.62472 -65.157,58.22637 -102,81.59375 -28.841,23.01949 -69.214,17.7111 -96.093,-5.4375 -30.373,-26.99342 -64.413,-52.56126 -85.626,-87.5625 l -45.093,45.09375 c 0,-0.29227 -0.02,-0.58273 -0.03,-0.875 32.335,-33.96214 64.539,-68.04532 96.781,-102.09375 13.273,-13.27289 26.539,-26.53961 39.812,-39.8125 -8.111,7.74613 -16.181,15.52442 -24.219,23.34375 -29.599,28.3469 -64.982,64.43279 -91.468,91.15625 -10.562,10.66734 -10.659,11.07854 -6.875,7.5625 -4.732,4.87235 -9.47,9.73921 -14.188,14.625 -1.891,-67.84332 -1.544,-15.72659 -1.906,-83.59375 1.103,-74.09883 -0.138,-145.04834 0,-219.15625 l 248.129,0 c 41.102,-34.23631 83.402,-69.45688 120.378,-100.25 z"/>
</svg>
