<?xml version="1.0" encoding="UTF-8"?>
<svg xmlns:svg="http://www.w3.org/2000/svg" xmlns="http://www.w3.org/2000/svg" viewBox="0 0 1000 1000">
  <path transform="translate(0,0)" style="fill:#000000;fill-opacity:1;stroke:none" d="m 517.59375,-77.106564 -100.46875,100.5 c -1.28995,2.153691 -6.66795,5.282788 -6.4375,7.0625 l -72.25,72.249994 c -6.35792,5.90059 -12.41457,12.2996 -14.9375,20.875 -7.63518,22.65692 -11.79022,46.95536 -9.34375,70.875 0.91761,17.17439 5.69495,34.90459 18.40625,47.21875 8.65396,10.75874 20.20369,18.51531 32.8125,23.90625 L 470.8125,160.11218 C 452.93317,151.45198 437.69985,137.00055 427.96875,119.70593 420.39574,102.68614 419.21131,83.440725 420,65.049686 c 1.31119,-9.436998 2.51587,-19.162686 4.5625,-28.625 15.81427,6.748844 31.4878,13.856853 47.1875,20.875 26.03116,12.736715 52.96254,23.453779 80.0625,33.6875 l 0.75,-0.75 c 0.97597,51.959904 1.05188,103.931994 0.9375,155.906244 l -0.125,2.4375 -76.8125,64.03125 76.28125,0 c -0.0733,17.77963 -0.12026,35.56571 -0.15625,53.34375 l -0.46875,0.46875 c -2.48783,60.12895 -2.28099,4.67645 -2.125,64.84375 2.17834,100.45984 -3.18835,182.94604 -2.5,283.375 l -17.9375,17.9375 c 6.13436,3.38532 12.2537,6.85304 18.3125,10.4375 0.10478,5.40465 0.22573,10.81409 0.375,16.21875 l 9.9375,-9.9375 c 19.74366,12.35219 38.50094,26.28119 54.46875,43.3125 l -14.71875,14.71875 c -7.39706,8.06019 -38.31516,36.11877 -13.03125,16.59375 9.00371,-7.86537 17.91963,-15.84484 26.71875,-23.9375 0.25506,-0.25537 0.52573,-0.49513 0.78125,-0.75 33.93017,-31.25153 66.42606,-64.07277 98.09375,-97.65625 5.45155,-5.41237 10.88713,-10.84275 16.34375,-16.25 -3.31676,3.27927 -7.20499,7.02342 -11.28125,10.875 4.72402,-5.03517 9.43432,-10.09211 14.125,-15.15625 18.41503,-18.48136 36.77446,-37.02104 55.3125,-55.375 -10.47586,9.6208 -20.8851,19.31058 -31.21875,29.09375 0.8397,-0.92257 1.69233,-1.8269 2.53125,-2.75 -2.40627,2.40817 -4.81134,4.81172 -7.21875,7.21875 -9.35595,8.89901 -18.67496,17.8426 -27.90625,26.875 -18.5771,-20.73808 -41.92003,-35.8336 -64.9375,-51.15625 1.86786,-20.87001 -4.06209,-44.86957 -0.46875,-64.65625 4.15341,-130.3937 0.29589,-127.30831 3.75,-257.6875 l 60,0 120.375,-100.25 -178.625,0.15625 -1.75,-59.90625 -0.25,0.0625 c -0.16152,-56.751267 -0.0998,-113.51318 0.90625,-170.249994 -1.1028,1.103593 -2.20955,2.208844 -3.3125,3.3125 1.14325,-3.573838 -11.73046,-3.970323 -14.65625,-6.84375 -27.21642,-10.106364 -53.97956,-21.40682 -79.8125,-34.6875 -15.07762,-6.87127 -29.94073,-14.24207 -44.90625,-21.3125 z M 726.9375,685.33093 c 3.64649,-3.61349 7.28843,-7.23286 10.9375,-10.84375 1.50797,-1.79058 -3.31381,3.30622 -10.9375,10.84375 z"/>
</svg>
