<?xml version="1.0" encoding="UTF-8"?>
<svg xmlns:svg="http://www.w3.org/2000/svg" xmlns="http://www.w3.org/2000/svg" viewBox="0 0 1000 1000">
  <path transform="translate(-3000,0)" style="fill:#000000;fill-opacity:1;stroke:none" d="m 3110.1562,-135.88782 c -79.8046,0.26077 -159.3461,13.22432 -234.5,41.562503 -77.1964,26.94365 -137.6232,83.784138 -192.1875,142.53125 -1.8689,2.050077 -3.8165,4.098145 -5.7813,6.15625 -15.2997,15.070196 -30.6263,30.130074 -46,45.125 6.0946,-5.869903 12.3041,-11.640128 18.625,-17.28125 -28.0434,28.980977 -53.7173,61.123137 -46.9374,103.187497 15.0303,44.82544 68.6324,43.42151 108,44.96875 -5.3411,5.34003 -11.9655,11.94748 -14.3126,14.3125 5.2768,-4.72007 10.5076,-9.49416 15.7188,-14.28125 0.7346,0.0306 1.4951,0.0603 2.2188,0.0937 l 40.4374,-40.4375 0.5938,-0.5625 c 10.9721,-10.6602 21.8783,-21.42345 32.7188,-32.21875 -1.2954,1.36825 -2.599,2.73114 -3.8126,4.03125 0.3517,-0.32582 0.7109,-0.64286 1.0626,-0.96875 -2.2201,2.30223 -4.4424,4.59774 -6.6563,6.90625 2.9651,-2.99312 5.9129,-6.00377 8.875,-9 12.4013,-11.49879 24.7737,-23.03379 37.0937,-34.65625 -0.3878,0.43377 -0.7692,0.87803 -1.1562,1.3125 0.5184,-0.51275 1.044,-1.01861 1.5625,-1.53125 9.8798,20.3506 51.9276,39.12104 71.3125,57.15625 -0.5728,0.5729 -1.1459,1.14585 -1.7188,1.71875 -0.7896,22.0039 -1.2816,44.01062 -1.625,66.03125 l -76.9062,64.09375 76.2812,0 c -0.1104,23.61649 -0.1563,47.2314 -0.2187,70.84375 -5.3373,28.07813 -1.4049,100.09959 -2.5625,129.59375 1.5017,125.07556 -1.6075,77.26695 -2.4062,202.31255 l -10.5313,10.53125 c -1.9042,6.76667 2.2236,12.81294 9.4687,18.65625 -0.5322,12.57401 3.9475,12.52896 10.5,7.25 19.1503,11.85185 46.3054,23.87606 56.4376,40.8125 -2.4168,2.4168 -4.8333,4.8332 -7.25,7.25 -7.2423,8.23628 -39.4698,37.23245 -26.6563,28.8125 11.1798,-9.39126 22.1362,-19.02197 32.9375,-28.84375 -0.4651,0.51378 -0.9416,1.01709 -1.4062,1.53125 1.0012,-0.99866 1.9987,-2.00133 3,-3 33.292,-30.38069 64.9553,-62.59938 95.875,-95.46875 9.2831,-9.21703 18.5765,-18.45465 27.875,-27.65625 1.073,-1.37393 -9.7535,10.00956 -22.8438,22.3125 4.6095,-4.92227 9.1992,-9.86809 13.7812,-14.8125 18.7274,-18.79378 37.3953,-37.65055 56.25,-56.3125 -10.4377,9.58582 -20.7971,19.25299 -31.0937,29 0.8119,-0.88628 1.626,-1.76988 2.4375,-2.65625 -2.2918,2.29335 -4.5822,4.58266 -6.875,6.875 -11.2996,10.7438 -22.508,21.56173 -33.625,32.5 6.2942,-21.33352 -33.7799,-38.74371 -60,-55.1875 3.5171,-12.4544 3.9088,-26.16788 -0.2812,-41.65625 4.1195,-138.48162 0.554,-144.22414 4.125,-282.68755 l 57.0312,0 c 40.1213,-33.41683 80.2537,-66.83317 120.375,-100.25 l -175.7812,0.15625 c -0.2041,-46.52994 -0.1827,-93.04829 3.0937,-139.468747 -1.0306,1.031018 -2.0631,2.062703 -3.0937,3.09375 -3.2364,-19.299622 -48.1447,-36.431885 -69.625,-57.46875 8.262,-8.253763 16.5166,-16.531195 24.7187,-24.84375 -8.0837,7.494078 -16.1522,15.018341 -24.1875,22.5625 6.3497,-6.924758 12.6142,-13.913569 18.8125,-20.96875 -7.0099,7.176462 -14.1083,14.28247 -21.2187,21.375 -1.3583,-1.443111 -2.583,-2.92349 -3.6876,-4.40625 -34.278,34.27798 -68.5658,68.565767 -102.8437,102.843747 0.01,1.38328 0.219,2.75643 0.5625,4.125 -2.2052,2.10492 -4.4212,4.20601 -6.625,6.3125 -9.595,-8.88248 -71.9436,3.8254 -91.875,-22.5 -21.0979,-18.44065 -21.4138,-43.795465 -12.5,-67.437497 4.8127,-2.813274 9.6986,-5.525738 14.6875,-8.0625 150.5621,-79.03966 331.4046,-82.11716 493,-37.71875 32.7923,-32.792337 65.5827,-65.58266 98.375,-98.375003 -68.0208,-17.78137 -138.6467,-27.44885 -209.0625,-27.21875 z M 2906.2187,39.987183 c -6.4401,6.373023 -12.9098,12.714732 -19.4063,19.03125 6.4453,-6.362872 12.9143,-12.715849 19.4063,-19.03125 z"/>
</svg>
