<?xml version="1.0" encoding="UTF-8"?>
<svg xmlns:svg="http://www.w3.org/2000/svg" xmlns="http://www.w3.org/2000/svg" viewBox="0 0 1000 1000">
  <path transform="translate(-16000,0)" style="fill:#000000;fill-opacity:1;stroke:none" d="m 16840.375,212.11218 -500.375,0.25 -120,100 30.218,0 c -6.481,6.48087 -12.958,12.95745 -19.437,19.4375 2.314,124.19671 1.374,271.84878 0.812,396.09375 -3.344,3.34413 -6.687,6.68712 -10.031,10.03125 35.515,9.66612 64.066,34.42045 94.156,54.4375 l 83.156,-83.15625 c -0.102,2.16547 -0.201,4.33497 -0.312,6.5 35.648,-37.0846 71.29,-74.1654 106.938,-111.25 1.978,-38.77191 1.504,-77.59812 1.531,-116.40625 14.584,16.3502 35.92,27.12531 54.843,38.65625 -2.419,9.85397 -1.986,20.93813 -1.437,31.8125 -0.451,88.02053 -2.067,42.11066 -4.437,130.125 1.442,29.31874 -9.351,64.47059 15.656,87.0625 21.58,28.27743 60.38,10.24625 82.156,-8.0625 33.017,-30.00479 63.466,-62.95574 95.469,-94.125 25.613,-24.4195 -4.546,2.11048 -21.094,7.3125 -30.375,15.43084 -63.594,-13.55539 -66.906,-43.625 0.16,-85.64675 -0.129,-37.47579 2.906,-123.09375 3.914,-27.7793 2.36,-56.08019 4.906,-83.90625 3.864,-3.89648 5.657,-7.51666 1.157,-10.3125 0.441,-3.28899 0.923,-6.57361 1.531,-9.84375 l -7.031,7.0625 c -30.129,-16.26993 -65.783,-40.3497 -64.75,-78.25 l -86.688,86.65625 c -1.49,2.13675 -3.415,4.15824 -5.531,6.09375 0.06,-1.76646 0.09,-3.54621 0.156,-5.3125 -35.96,37.4308 -71.984,74.90214 -107.969,112.34375 0.102,3.90511 0.162,7.81252 0.25,11.71875 -16.826,15.74714 -33.472,31.72482 -49.437,48.375 -0.207,0.22007 -0.418,0.43646 -0.625,0.65625 -3.667,3.61715 -7.34,7.2203 -11,10.84375 -0.429,-91.5014 -0.96,-206.38149 -0.25,-297.875 l 381.094,0 c 40.121,-33.41683 80.254,-66.83317 120.375,-100.25 z M 16483,471.58093 c -6.386,6.5391 -12.888,12.977 -19.438,19.34375 6.476,-6.44719 12.956,-12.90207 19.438,-19.34375 z m -82.657,83.09375 c 0.821,38.42104 0.967,76.88226 -0.03,115.3125 -20.528,-13.99014 -40.594,-28.83476 -63.281,-38.875 l 2.219,-2.21875 c -0.02,-4.55093 -0.04,-9.1052 -0.06,-13.65625 4.562,-4.27168 8.85,-8.72281 13.031,-13.28125 16.186,-15.60686 32.219,-31.38701 48.125,-47.28125 z m -8.843,4 c -1.448,1.4265 -2.896,2.85529 -4.344,4.28125 1.424,-1.44038 2.872,-2.87458 4.344,-4.28125 z"/>
</svg>
