<?xml version="1.0" encoding="UTF-8"?>
<svg xmlns:svg="http://www.w3.org/2000/svg" xmlns="http://www.w3.org/2000/svg" viewBox="0 0 1000 1000">
  <path transform="translate(-2000,0)" style="fill:#000000;fill-opacity:1;stroke:none" d="m 2400.375,212.11218 c -186.7879,0.0835 -293.5871,0.1665 -480.375,0.25 l -120,100 170.6562,0 c -3.5524,3.55277 -7.1052,7.10404 -10.6562,10.65625 0.621,71.27765 0.3417,61.03031 0.6875,132.3125 -2.7322,59.52685 0.3959,119.46255 -5.5625,178.78125 -23.6562,12.07825 -52.7971,12.8088 -51.8125,-23.28125 0.483,-22.11492 0.017,-46.7972 10.875,-66.1875 l 0,-0.0313 c 1.3153,-2.34617 2.8313,-4.60482 4.5,-6.78125 -19.0173,19.56993 -38.0364,39.15257 -57.0937,58.6875 -22.1027,20.33263 -45.5096,39.71044 -60.4063,65.71875 -2.7286,28.93154 -16.896,69.84429 10.2187,90.125 31.9397,-0.59702 56.0831,-26.4807 80.5938,-44.15625 41.9376,-38.77905 72.3632,-67.15893 93.5,-87.21875 31.6917,-27.65204 67.7263,-59.79566 78.625,-96.53125 4.8873,-97.77025 4.7187,-114.18428 4.8438,-212.09375 l 83.1562,0 c -9.3137,9.31331 -18.6262,18.62519 -27.9375,27.9375 2.0008,166.26328 1.1607,234.1668 1.1875,392.3125 -2.2811,2.2811 -4.5627,4.56265 -6.8438,6.84375 -5.6485,4.01371 1.59,7.43383 6.8438,10.78125 5e-4,0.75855 -5e-4,1.36229 0,2.125 0.427,-0.42705 0.8542,-0.8542 1.2812,-1.28125 1.1578,0.80355 2.1471,1.5996 2.7188,2.40625 19.4202,12.9648 34.1857,31.13091 49.6562,48.3125 -5.8852,5.88523 -11.771,11.77102 -17.6562,17.65625 12.204,-6.50544 21.9926,-16.58715 32.1875,-25.75 3.3597,-3.16126 6.7129,-6.32713 10.0625,-9.5 -1.8696,2.03744 -2.9896,3.45831 -1.375,2.375 22.8093,-21.99197 45.2641,-44.36155 67.5312,-66.90625 4.2473,-4.28862 8.4758,-8.58298 12.6876,-12.90625 8.8131,-8.96922 17.6231,-17.972 26.4062,-26.96875 3.6642,-3.57137 4.3221,-4.92923 1.5,-2.28125 1.1866,-1.26949 2.3796,-2.53955 3.5625,-3.8125 l -7.2187,7.21875 c -7.8039,6.95678 -15.2104,14.59816 -23.4688,21.03125 l 5.25,-5.25 c -9.8149,-10.15432 -18.2578,-21.51703 -28.1875,-31.5625 -8.1965,-9.46023 -18.7226,-16.35483 -28.0625,-24.53125 0.2337,-143.43781 -0.4922,-170.80339 0.5625,-328.25 l 47.1875,0 c 41.1019,-34.23536 83.4011,-69.45532 120.375,-100.24995 z m -481.6875,325.71875 c 3.0051,-3.09241 5.9921,-6.1918 9,-9.28125 -3.4975,2.84361 -6.4535,5.95996 -9,9.28125 z"/>
</svg>
