<?xml version="1.0" encoding="UTF-8"?>
<svg xmlns:svg="http://www.w3.org/2000/svg" xmlns="http://www.w3.org/2000/svg" viewBox="0 0 1000 1000">
  <path transform="translate(-4000,0)" style="fill:#000000;fill-opacity:1;stroke:none" d="m 4620.3756,212.11218 c -173.4546,0.0771 -307.296,0.1729 -480.7506,0.25 l -120,100 166.4687,0 c -3.552,3.55251 -7.1045,7.10334 -10.6562,10.65625 0.3682,42.21746 0.4182,84.43743 0.4688,126.65625 -20.5593,-19.15649 -51.1962,-36.39081 -71.9376,-58.21875 -25.3222,25.32234 -50.6464,50.64641 -75.9687,75.96875 19.9525,22.19386 53.7329,41.72502 79.5,62.46875 22.8008,-22.80081 45.6055,-45.60544 68.4063,-68.40625 0.015,11.76043 0.035,23.52089 0.062,35.28125 -1.6471,72.84662 1.0346,77.86581 -5.5937,150.5 -18.2446,9.89795 -37.2377,12.63712 -49.7813,-7.9375 -3.1576,-29.64938 -4.4341,-65.93297 15.4376,-90.15625 -18.4243,18.95301 -36.8025,37.94446 -55.25,56.875 -12.0285,11.56422 -24.1654,22.9947 -36.4376,34.3125 -32.4146,26.23944 -40.1377,73.67907 -28.75,112 25.6677,34.21972 66.8591,-15.0605 91.8438,-30.8125 31.7518,-29.50931 63.7,-58.7938 95.0625,-88.71875 31.4418,-27.27108 63.2021,-54.92265 77.0625,-95.03125 4.8879,-97.80078 4.7188,-127.53738 4.8438,-225.4375 l 83.1562,0 c -9.3127,9.31223 -18.6255,18.62456 -27.9375,27.9375 2.0706,184.8253 1.1233,220.58658 1.1875,396.1875 l -7.0938,7.09375 c -1.5865,2.65854 -8.4753,6.09046 -6.0312,8.15625 24.3954,17.39154 44.8123,39.62429 66.5,60.15625 -4.1977,4.19774 -8.396,8.39601 -12.5938,12.59375 -4.949,4.22178 -2.5249,3.8701 2.125,0.1875 1.5013,-1.35549 3.0028,-2.70232 4.5,-4.0625 -4.0781,4.67991 1.0184,1.32472 4.125,-2.125 35.3666,-33.8059 69.9264,-68.4416 103.5313,-104 4.2813,-5.21943 2.3946,-3.43107 -0.8125,-0.75 2.0186,-2.26887 4.0315,-4.55799 6.0312,-6.84375 l 1.3438,-1.34375 c -0.032,-0.0307 -0.062,-0.0631 -0.094,-0.0937 1.8781,-2.15429 3.733,-4.33037 5.5938,-6.5 13.5723,-16.63752 26.7469,-33.61635 41.8125,-48.96875 -17.1364,17.17165 -34.3066,34.32182 -51.4687,51.46875 -17.9424,-17.57412 -35.2547,-35.86587 -54.125,-52.4375 1.1769,-1.177 2.3542,-2.35427 3.5312,-3.53125 0.2873,-164.37977 -0.5352,-168.74808 0.5938,-333.125 l 51.7193,0 c 41.1018,-34.23539 83.4011,-69.45498 120.3756,-100.25005 z m -484.3443,337.0625 c 2.3621,-2.43004 4.7296,-4.85305 7.0937,-7.28125 -2.6145,2.28071 -4.9807,4.7055 -7.0937,7.28125 z"/>
</svg>
