<?xml version="1.0" encoding="UTF-8"?>
<svg xmlns:svg="http://www.w3.org/2000/svg" xmlns="http://www.w3.org/2000/svg" viewBox="0 0 1000 1000">
  <path transform="translate(-15000,0)" style="fill:#000000;fill-opacity:1;stroke:none" d="m 15080.375,212.11218 -320.375,0.25 -120,100 264.094,0 c -12.808,12.80416 -25.617,25.60941 -38.406,38.40625 -0.137,7.37147 -0.261,14.72175 -0.376,22.09375 -5.312,0.17336 -10.62,0.29246 -15.937,0.375 -32.625,32.61458 -65.25,65.22917 -97.875,97.84375 0.583,-0.032 1.167,-0.0615 1.75,-0.0937 l -62.875,62.875 c -0.363,63.84423 1.956,127.79079 -0.531,191.5625 1.873,-1.87404 3.752,-3.75079 5.625,-5.625 -2.422,7.55764 10.221,13.5455 20.719,20.09375 23.465,18.10774 51.225,32.39239 70.437,54.9375 26.439,-26.43933 52.873,-52.87318 79.313,-79.3125 4.022,-6.50563 16.495,-12.26431 16.812,-19.09375 25.976,-25.97544 51.962,-51.96206 77.938,-77.9375 -0.232,-57.17756 -0.04,-114.35322 -0.376,-171.53125 0.318,-23.16644 0.282,-46.34199 0.282,-69.53125 3.396,-3.39584 6.791,-6.79166 10.187,-10.1875 -3.394,0.15023 -6.794,0.32743 -10.187,0.5 0.02,-18.77802 0.104,-37.54904 0.5,-56.3125 39.752,-33.10957 79.529,-66.20293 119.281,-99.3125 z m -216.031,252.90625 c -0.467,71.97839 -0.386,143.95758 -0.688,215.9375 -25.137,-17.78681 -49.082,-37.26597 -74.625,-54.5 l -84.719,84.71875 c -0.197,0.11634 -0.372,0.2282 -0.562,0.34375 27.971,-27.98119 55.989,-55.98441 83.969,-83.96875 -2.107,-52.76487 -0.803,-105.66243 -0.531,-158.53125 25.705,-1.53609 51.42,-3.04897 77.156,-4 z"/>
</svg>
