<?xml version="1.0" encoding="UTF-8"?>
<svg xmlns:svg="http://www.w3.org/2000/svg" xmlns="http://www.w3.org/2000/svg" viewBox="0 0 1000 1000">
  <path transform="translate(-6000,0)" style="fill:#000000;fill-opacity:1;stroke:none" d="m 6140.375,212.11218 -520.375,0.25 -120,100 97,0 c -16.9877,16.9885 -33.9756,33.97629 -50.9688,50.96875 -1.9848,67.69283 -1.2933,135.44324 -1.75,203.15625 -7.0532,6.56321 -18.1313,15.08005 -9.2812,13.90625 3.1169,0.1793 6.1574,0.60981 9.1562,1.21875 l 0,0.6875 0.5626,-0.5625 c 35.7782,7.57222 63.9996,42.51543 103.375,34.375 l 88.3124,-88.3125 c 1.0842,-1.71131 3.6752,-4.1293 6.5,-6.65625 1.2773,82.47327 2.7856,164.94376 -1.7187,247.34375 31.8099,-31.80985 63.5963,-63.5964 95.4063,-95.40625 17.0541,-10.32063 11.8137,-30.47965 13.5624,-47.59375 1.8107,-60.35061 1.2124,-120.69929 0.5,-181.0625 22.2942,14.10317 42.5002,31.68585 64.1876,46.78125 -1.4329,52.57599 1.6314,107.09619 -1.25,160.3125 -0.2228,38.23277 -10.9053,76.25919 -30.875,108.6875 -15.3675,15.3673 -30.7579,30.72645 -46.125,46.09375 -4.1487,4.80941 -24.1745,22.65499 -14.5938,16.21875 12.4872,-9.53825 24.4493,-19.71606 36.0938,-30.25 -0.2084,0.21929 -0.4157,0.4379 -0.625,0.65625 1.4781,-1.3559 2.9344,-2.73068 4.4062,-4.09375 0.7614,-0.69834 1.5225,-1.39232 2.2812,-2.09375 1.793,-1.66836 3.5911,-3.32172 5.375,-5 0.4284,-0.40292 0.8538,-0.81497 1.2813,-1.21875 0.1018,-0.096 0.2107,-0.18521 0.3125,-0.28125 2.105,-1.98985 4.2244,-3.99089 6.3125,-6 24.0157,-22.93416 47.2765,-46.68708 70.4063,-70.53125 3.6177,-3.57691 7.1836,-7.23454 10.6562,-10.96875 0.8452,-0.87316 1.6862,-1.75189 2.5312,-2.625 0.1064,-0.16032 0.1743,-0.24575 0.1876,-0.3125 23.4234,-25.80029 42.7931,-55.37184 52.0312,-89.375 14.1078,-67.80452 7.3472,-137.40475 9.4062,-206.21875 1.8441,-1.84392 3.6874,-3.68733 5.5313,-5.53125 -1.7539,-1.23212 -3.4803,-2.46415 -5.2187,-3.71875 0.064,-1.52119 0.144,-3.04224 0.2187,-4.5625 -0.9061,0.90623 -1.8126,1.81251 -2.7187,2.71875 -27.6581,-20.18795 -53.6652,-42.78443 -83,-60.5 l -87.1876,87.1875 c -0.3629,-32.48191 -0.6381,-64.95826 -0.4687,-97.4375 l 170.1875,0 120.375,-100.25 z m -487.5312,100.25 136.6874,0 c -11.7292,11.72878 -23.4571,23.45678 -35.1874,35.1875 -17.1923,10.23661 -12.6019,29.13851 -12.375,46.5 -0.2754,38.484 0.2012,76.97704 0.7812,115.46875 -33.9168,0.35486 -59.1506,-30.06674 -91.1562,-36.5625 0.8363,-53.50895 -0.06,-107.08798 1.25,-160.59375 z"/>
</svg>
