<?xml version="1.0" encoding="UTF-8"?>
<svg xmlns:svg="http://www.w3.org/2000/svg" xmlns="http://www.w3.org/2000/svg" viewBox="0 0 1000 1000">
  <path transform="translate(-5000,0)" style="fill:#000000;fill-opacity:1;stroke:none" d="m 5063.625,212.11218 -383.625,0.25 -120,100 163.25,0 -53.5312,53.53125 c 1.2102,0.75126 2.3945,1.54497 3.5937,2.3125 -32.8938,32.89254 -65.7939,65.79445 -98.6875,98.6875 2.4859,26.77467 2.286,53.70471 2.5938,80.59375 -3.6148,3.61477 -7.229,7.22898 -10.8438,10.84375 26.9908,10.71137 50.3577,29.43821 71.875,48.75 -21.8457,21.84575 -43.6855,43.6855 -65.5312,65.53125 4.8136,23.81331 18.9013,48.32209 33.1562,69.1875 29.6005,48.21207 93.2852,69.84185 146.4375,51.5625 6.4901,-3.59437 12.5944,-7.77457 18.4687,-12.28125 -4.6055,6.37757 -9.2708,12.72553 -13.9687,19.03125 12.7656,-12.6593 25.3053,-25.57947 37.7187,-38.59375 5.4173,-4.31777 10.7056,-8.81796 15.875,-13.4375 -1.19,1.25943 -2.4056,2.50489 -3.625,3.71875 20.4776,-18.71743 40.2305,-38.24762 59.75,-58 0.5865,-0.55981 1.1619,-1.12999 1.75,-1.6875 0.3796,-0.41863 0.7742,-0.83252 1.1563,-1.25 0.01,-0.0105 0.021,-0.0208 0.031,-0.0313 12.2701,-12.44158 24.4605,-24.97238 36.7187,-37.40625 5.6434,-5.91493 7.9344,-8.46953 8.0625,-8.90625 16.8001,-18.41382 31.5615,-38.27034 39.2188,-62.4375 15.0564,-40.74853 -0.3598,-86.88072 -31.8438,-115.375 -25.0564,-23.17526 -52.6893,-45.82047 -84.875,-58 -29.2665,29.26651 -58.5147,58.54599 -87.7812,87.8125 1.5694,-2.1348 3.1788,-4.25441 4.8124,-6.34375 19.08,-19.16368 38.1228,-38.38989 57.3438,-57.40625 -15.1056,13.86151 -29.9647,27.98918 -44.6875,42.25 2.4143,-2.73236 4.8589,-5.45077 7.3437,-8.125 -7.9597,8.14317 -15.965,16.24351 -23.9687,24.34375 -2.1214,2.08472 -4.2271,4.19136 -6.3437,6.28125 -17.8691,-16.4947 -37.3452,-31.52885 -58.5,-43.5625 -0.1786,-26.19497 -0.4775,-52.36971 -0.8438,-78.5625 24.2776,16.90058 46.4404,36.82385 68.2188,56.78125 L 4859.75,324.76843 c -4.4153,-4.18205 -8.8718,-8.31944 -13.375,-12.40625 l 96.875,0 c 40.1213,-33.41683 80.2537,-66.83317 120.375,-100.25 z m -270,234.375 c -6.6764,6.65072 -13.3192,13.3648 -19.75,20.28125 6.5999,-6.75235 13.19,-13.49009 19.75,-20.28125 z m -63.25,72.875 c 1.2523,1.58981 4.6817,2.679 11.4375,3.03125 42.332,22.42473 85.9234,52.76296 104.0937,98.9375 5.0557,13.71888 6.5973,27.76442 5.4688,41.625 -4.5775,4.82127 -9.0102,9.74594 -13.1562,14.90625 -2.7658,4.7643 -5.568,9.49905 -8.4063,14.21875 -16.0343,1.0053 -32.55,-1.39422 -47.5,-5.5625 C 4728.636,671.23902 4696.4153,618.7867 4682,567.76843 z"/>
</svg>
