<?xml version="1.0" encoding="UTF-8"?>
<svg xmlns:svg="http://www.w3.org/2000/svg" xmlns="http://www.w3.org/2000/svg" viewBox="0 0 1000 1000">
  <path transform="translate(-2000,0)" style="fill:#000000;fill-opacity:1;stroke:none" d="m 2500.4062,792.08093 -68.7812,68.78125 c 0.042,0.79865 0.043,1.60665 0.062,2.40625 0.023,1.13484 0.031,2.27117 0.031,3.40625 0,1.26125 0.028,2.52038 0.063,3.78125 0.012,1.62966 0.046,3.24602 0.094,4.875 0.086,2.44628 0.091,4.89636 0.125,7.34375 0.033,2.91718 0.014,5.83277 0.031,8.75 0.056,3.22646 0.063,6.46065 0.063,9.6875 0.015,3.32692 0.01,6.64185 0,9.96875 -0.022,3.08115 -0.052,6.16877 -0.063,9.25 0.023,2.88182 -0.088,5.74461 -0.1562,8.625 -0.082,3.24038 -0.1438,6.50939 -0.2188,9.75 -0.059,3.55504 -0.1345,7.10109 -0.1875,10.65625 -0.072,3.74617 -0.1073,7.47224 -0.1563,11.21875 -0.044,4.09024 -0.068,8.19088 -0.094,12.28125 -0.016,4.5385 -0.039,9.0865 -0.063,13.625 0.01,4.8177 -0.061,9.62173 -0.1875,14.43752 -0.1213,4.8961 -0.5113,9.7767 -0.9063,14.6562 -0.4612,5.0973 -1.242,10.1596 -2.1874,15.1875 -0.99,5.4578 -2.265,10.8532 -3.7813,16.1875 -2.2666,7.8335 -5.3346,15.3817 -8.5937,22.8438 -3.8173,8.6187 -8.2614,16.9467 -12.5938,25.3125 l 62.4062,-62.375 c 5.4915,-9.3371 10.895,-18.7322 15.7188,-28.4375 3.6772,-7.89839 7.2011,-15.89342 9.9062,-24.18752 1.736,-5.4165 3.1101,-10.93304 4.125,-16.53125 0.9624,-5.0613 1.7828,-10.15107 2.2813,-15.28125 0.4146,-4.88747 0.8268,-9.78143 0.9375,-14.6875 0.1268,-4.83446 0.225,-9.66371 0.25,-14.5 0.056,-4.58436 0.1005,-9.16616 0.1875,-13.75 0.07,-4.13918 0.167,-8.26733 0.25,-12.40625 0.068,-3.77226 0.1408,-7.57169 0.2187,-11.34375 0.091,-3.57758 0.162,-7.14194 0.2813,-10.71875 0.093,-3.2945 0.2327,-6.58229 0.375,-9.875 0.1237,-2.88154 0.2142,-5.77147 0.1563,-8.65625 -0.01,-3.0423 -0.041,-6.08278 -0.063,-9.125 0,-3.32405 -0.011,-6.64467 0,-9.96875 0,-3.26413 0.01,-6.54873 0.063,-9.8125 0.017,-2.93881 -0,-5.87373 0.031,-8.8125 0.034,-2.54107 0.041,-5.08494 0.125,-7.625 0.046,-1.68923 0.082,-3.37266 0.094,-5.0625 0.037,-1.28523 0.031,-2.55818 0.031,-3.84375 0,-1.1571 0.041,-2.31189 0.063,-3.46875 0.021,-0.85022 0.019,-1.71311 0.063,-2.5625 z"/>
</svg>
