<?xml version="1.0" encoding="UTF-8"?>
<svg xmlns:svg="http://www.w3.org/2000/svg" xmlns="http://www.w3.org/2000/svg" viewBox="0 0 1000 1000">
  <path transform="translate(-5000,0)" style="fill:#000000;fill-opacity:1;stroke:none" d="m 5500.375,212.11218 -380.375,0.25 -120,100 163.25,0 -53.5312,53.53125 c 1.2054,0.74831 2.3992,1.5168 3.5937,2.28125 -32.5933,32.59207 -65.1881,65.18867 -97.7813,97.78125 0.5025,26.3676 1.5492,54.127 1.8438,81.375 -3.6669,3.66686 -7.3331,7.33314 -11,11 24.5975,9.59646 46.074,26.12822 65.9688,43.5 -22.963,22.96268 -45.912,45.94358 -68.875,68.90625 -6.1801,3.59953 -0.031,5.95428 3.7812,9 23.332,20.06135 49.175,36.87203 73.5,55.65625 25.227,-25.22719 50.4605,-50.42907 75.6875,-75.65625 -11.904,-9.43909 -24.3715,-18.14917 -36.4375,-27.375 -12.1518,-8.56053 -23.5268,-18.10347 -34.5938,-28 l 86.1563,-86.15625 c 3.2039,3.15959 12.3052,5.14482 20.0313,9.0625 40.5057,24.26973 84.1822,55.30537 97.2187,103.40625 7.9965,31.91067 -1.0583,64.10282 -18.1875,91.28125 -11.4882,11.48822 -22.9805,22.98053 -34.4688,34.46875 -3.6399,4.20326 -21.9789,20.4642 -9.9062,11.8125 8.5282,-6.73121 16.814,-13.75659 24.9062,-21 -1.4314,1.54739 -2.9012,3.07662 -4.375,4.5625 23.8245,-21.78027 46.6723,-44.66474 69.3126,-67.71875 1.7896,-1.7839 3.5805,-3.56714 5.375,-5.34375 1.1008,-1.1768 2.2271,-2.35494 3.3437,-3.53125 7.7793,-7.94452 15.5214,-15.89096 23.3125,-23.8125 5.6295,-5.99809 7.163,-7.8302 6.25,-7.28125 21.342,-23.5766 39.8812,-49.33238 43.7188,-82 6.9709,-38.84693 -14.0804,-75.84773 -42.125,-101.03125 -23.9291,-20.60847 -49.3697,-41.36415 -79.2188,-52.375 -30.3289,30.32898 -60.6398,60.67103 -90.9688,91 -18.5149,-17.3171 -38.7267,-33.21121 -60.8124,-45.75 -0.1786,-26.19497 -0.4775,-52.36971 -0.8438,-78.5625 24.2776,16.90058 46.4404,36.82385 68.2188,56.78125 L 5299.75,324.76843 c -4.4153,-4.18205 -8.8718,-8.31944 -13.375,-12.40625 l 93.625,0 z"/>
</svg>
