<?xml version="1.0" encoding="UTF-8"?>
<svg xmlns:svg="http://www.w3.org/2000/svg" xmlns="http://www.w3.org/2000/svg" viewBox="0 0 1000 1000">
  <path transform="translate(-8000,0)" style="fill:#000000;fill-opacity:1;stroke:none" d="m 8433.4059,-20.169067 c -21.1078,-0.08567 -42.1213,4.579165 -61.6563,15.40625 -9.4138,6.100497 -18.4971,12.659474 -27.3124,19.59375 -2.838,2.838385 -5.6893,5.665802 -8.5313,8.5 1.1039,-1.650864 2.3835,-3.269529 3.875,-4.78125 -29.9748,24.258885 -56.9128,52.567001 -83.375,80.4375 -6.9438,6.199637 -13.0909,13.055347 -18.3125,20.406247 -0.025,0.0354 -0.069,0.0584 -0.094,0.0937 -15.6242,22.04858 -22.8744,48.69956 -18,76.59375 -0.5529,17.40435 0.2686,38.86672 2e-4,56.2813 l 0.032,43.3015 -20.0316,16.69845 18.2498,0 c -0.073,17.77967 -0.1208,35.56574 -0.1562,53.34375 -0.1563,0.15625 -0.3124,0.3125 -0.4688,0.46875 -2.1481,51.92606 -2.2884,103.88156 -2.1874,155.84375 2.22,110.4876 -2.9205,110.82495 -2.3438,202.4375 -4.1354,4.1354 -8.2709,8.27088 -12.4062,12.40625 -1.5722,2.57451 -10.5467,8.22885 -5.6876,8.15625 6.611,1.34769 12.6764,4.21659 18.5626,7.5 0.4393,0.4346 0.9861,0.73405 1.625,0.90625 4.2164,2.41477 8.3543,4.99581 12.5312,7.34375 15.6073,7.95317 30.4128,17.45481 43.5938,28.96875 -5.6143,5.6143 -11.2295,11.22945 -16.8438,16.84375 1.262,0.61746 14.1867,-9.14403 20.1562,-13.875 1.5703,1.44364 3.1066,2.90069 4.625,4.40625 l 107.5313,-107.53125 c -0.1475,-0.14358 -0.2896,-0.29423 -0.4375,-0.4375 l 65.656,-65.6562 c -3.0334,2.38616 -11.2263,9.53625 -15.875,13.53125 -18.6003,15.24324 -35.1074,33.22556 -54,48.09375 -11.6813,-10.83164 -24.4045,-20.56393 -38.5,-28.0625 -7.7668,-3.88323 -14.9633,-9.22607 -22.5312,-13.6875 0.8802,-12.40275 0.875,-29.5208 0.875,-56 4.163,-135.77821 -0.3786,-139.23849 3.1562,-275 l 54.8754,0 c 40.1213,-33.41683 80.2537,-66.83317 120.375,-100.25 l -173.5941,0.15625 c -0.1968,-42.13781 -0.1799,-84.25955 2.2813,-126.312497 70.7782,-1.074503 124.3801,54.864927 187.0312,80.312497 62.5425,34.3672 141.9477,22.17627 196.7188,-21.59375 120.2323,-104.054923 79.1562,-72.3125 120.0937,-116.312497 -25.7447,21.388599 -53.8042,39.454043 -86.6563,48.5 -74.7114,21.788963 -145.4008,-22.348791 -206.6874,-59.5625 -30.5792,-22.098284 -68.5294,-37.316028 -106.1563,-37.46875 z m -93.625,38.71875 c 1.5464,-1.251527 3.0932,-2.489353 4.6563,-3.71875 0.2811,-0.281233 0.5626,-0.562475 0.8437,-0.84375 -2.0936,1.426564 -3.9114,2.952399 -5.5,4.5625 z M 8237.8434,119.64343 c -2.1326,1.68106 -3.481,2.95464 -3.75,3.625 1.2499,-1.20779 2.5008,-2.41655 3.75,-3.625 z"/>
</svg>
