<?xml version="1.0" encoding="UTF-8"?>
<svg xmlns:svg="http://www.w3.org/2000/svg" xmlns="http://www.w3.org/2000/svg" viewBox="0 0 1000 1000">
  <path transform="translate(-10000,0)" style="fill:#000000;fill-opacity:1;stroke:none" d="m 10170.375,212.11218 -490.375,0.25 -120,100 162.0938,0 c -4.4584,4.4584 -8.917,8.91678 -13.375,13.375 -0.401,49.09896 -0.9665,10.0209 -1.2188,59.125 -13.7213,-0.27199 -27.4434,-0.75021 -41.1562,-1.5 -31.506,31.50583 -63.0252,63.02526 -94.5313,94.53125 -23.4158,16.88432 -4.933,16.7441 16.875,15.5 39.5441,-1.07687 79.1024,-1.77694 118.6563,-2.34375 -1.6216,119.38836 1.4489,134.93413 -1.7813,250 -2.875,2.875 -5.75,5.75 -8.625,8.625 0.8986,2.32284 12.4164,2.81148 17.0937,5.40625 23.1001,8.84952 41.9391,25.68861 59.6876,42.4375 35.7866,-35.78668 71.5882,-71.55707 107.375,-107.34375 -1.1849,-1.19919 -2.3869,-2.38595 -3.5938,-3.5625 36.4204,-36.27595 73.7877,-71.67612 107.2812,-110.6875 18.6628,-29.15556 58.9248,-48.0434 66.3438,-81.8125 -18.831,-39.57073 -38.618,-78.8927 -57.4688,-118.5625 -1.771,1.77105 -3.5414,3.54145 -5.3124,5.3125 -12.4972,-1.25912 -38.4928,3.33202 -50.2188,1.25 -41.2561,-0.32733 -82.5404,0.90388 -123.8125,1.90625 0.6227,-53.2424 0.1261,-18.39092 0.7813,-71.65625 l 234.9062,0 c 40.121,-33.41683 80.253,-66.83317 120.375,-100.25 z m -282.5312,276.3125 c 1.4408,10.91809 11.7192,23.18933 16.5624,34.84375 9.6991,30.63907 41.0515,57.03515 37.5,90.25 -21.377,24.24983 -44.2179,47.46535 -65.9374,71.625 -8.5957,-8.24825 -17.7256,-15.93384 -27.3438,-22.96875 -10.498,-8.30002 -22.3979,-14.8886 -35.1875,-18.75 1.0232,-86.90177 1.1123,-76.88968 1,-153.78125 24.4775,-0.33718 48.9314,-0.74214 73.4063,-1.21875 z"/>
</svg>
