<?xml version="1.0" encoding="UTF-8"?>
<svg xmlns:svg="http://www.w3.org/2000/svg" xmlns="http://www.w3.org/2000/svg" viewBox="0 0 1000 1000">
  <path transform="translate(-10000,0)" style="fill:#000000;fill-opacity:1;stroke:none" d="m 10719.406,212.11218 -480.375,0.25 -120,100 154.344,0 c -4.458,4.45828 -8.917,8.9166 -13.375,13.375 -0.401,49.06498 -0.966,18.93396 -1.219,68 -13.726,-0.26507 -27.435,-0.69708 -41.156,-1.375 -20.676,20.67578 -41.355,41.35541 -62.032,62.03125 -8.451,15.6452 -50.072,35.13601 -36.718,48.09375 46.447,-0.90873 92.931,-1.65303 139.406,-2.34375 l -1.344,218.1875 c -5.986,-4.41406 -11.997,-8.82551 -17.906,-13.34375 -15.161,-10.68041 -29.136,-22.85135 -42.781,-35.375 -24.588,24.58762 -49.162,49.16238 -73.75,73.75 -6.18,3.59953 -0.03,5.98553 3.781,9.03125 23.332,20.06135 49.175,36.87203 73.5,55.65625 18.925,-18.9256 37.856,-37.85565 56.781,-56.78125 -0,0.33806 -0.02,0.65866 -0.03,1.09375 l 1.719,-1.71875 c 3.267,-0.039 6.748,0.0414 8.75,1.25 26.848,9.13746 47.952,29.00539 68.812,47.40625 35.836,-35.83567 71.664,-71.66433 107.5,-107.5 -1.875,-1.68062 -3.749,-3.37399 -5.625,-5.0625 29.43,-29.1202 59.212,-57.88544 86.875,-88.71875 22.011,-34.9115 64.857,-54.47602 77.844,-94.90625 -18.876,-39.66151 -38.618,-78.8893 -57.469,-118.5625 l -5.906,5.90625 c -6.353,-1.81695 -16.761,-1.49819 -24.469,0.3125 -49.599,-0.37138 -99.223,1.23737 -148.875,2.34375 -0.114,-53.32002 -0.05,-27.44933 0.875,-80.75 l 232.469,0 c 40.121,-33.41681 80.253,-66.83319 120.375,-100.25 z m -278.937,285.28125 c -1.068,7.45738 1.414,15.4309 9.656,24.0625 11.359,34.9174 44.336,62.52987 43.062,101.0625 -18.713,21.22303 -38.411,41.55401 -57.531,62.40625 -14.169,-12.72769 -28.578,-25.34169 -45.313,-34.59375 -7.808,-4.7448 -16.515,-8.11646 -25.593,-8.875 0.717,-58.21166 1.012,-34.1775 1,-95.375 0.09,-15.83595 0.12,-31.66152 0.125,-47.5 24.873,-0.36785 49.726,-0.77578 74.594,-1.1875 z"/>
</svg>
