<?xml version="1.0" encoding="UTF-8"?>
<svg xmlns:svg="http://www.w3.org/2000/svg" xmlns="http://www.w3.org/2000/svg" viewBox="0 0 1000 1000">
  <path transform="translate(-20000,0)" style="fill:#000000;fill-opacity:1;stroke:none" d="m 20152.656,172.36218 -85.906,85.90625 c -16.001,11.01275 -8.028,14.99975 8.062,21.25 29.931,12.47385 49.355,40.42522 59.594,70.28125 17.223,36.54121 13.331,79.03242 -2.594,115.15625 -29.574,57.87004 -78.366,102.44782 -122.718,148.84375 48.635,-48.95385 98.09,-97.09837 145.531,-147.21875 32.18,-36.49869 68.587,-73.58743 81.25,-122 13.706,-41.78113 0.303,-86.58484 -21.157,-123.25 -13.031,-24.29832 -38.627,-37.0244 -62.062,-48.96875 z m -98.188,93.0625 -97.812,97.8125 c 2.978,43.73585 3.27,87.74788 1.781,131.5625 l 96.219,-96.21875 c 1.773,-44.34966 0.498,-88.789 -0.188,-133.15625 z m 20.563,282.90625 c -32.273,32.26792 -64.542,64.54222 -96.813,96.8125 -0.101,33.06946 4.589,68.64189 -4.281,101.84375 l -4.062,4.0625 c 31.757,4.14198 62.38,15.3967 90.562,30.59375 -0.188,0.18751 -0.374,0.37499 -0.562,0.5625 2.157,1.02531 4.328,1.94405 6.531,2.75 1.966,1.11168 3.905,2.22744 5.844,3.375 0.406,-0.40622 0.812,-0.81253 1.218,-1.21875 29.763,7.75025 62.334,-2.58293 86.532,-21 36.664,-33.47197 74.634,-66.48686 106.875,-104.40625 4.939,-4.86334 9.87,-9.73397 14.812,-14.59375 4.347,-4.25067 6.274,-6.19838 6.907,-6.84375 -2.063,1.91803 -11.486,10.93503 -15.782,14.96875 -1.222,1.33488 -2.488,2.6488 -3.781,3.9375 8.413,-10.0344 16.41,-20.4201 23.875,-31.25 -17.47,17.47029 -34.935,34.93595 -52.406,52.40625 -25.671,13.77979 -56.202,18.07014 -82.782,4.03125 l -1.343,1.34375 c -27.499,-14.87275 -57.154,-25.87308 -87.719,-32.34375 10.908,-33.49715 6.325,-70.11735 6.375,-105.03125 z m 90.469,227.8125 c -19.595,19.59479 -39.187,39.18647 -58.782,58.78125 -5.821,-4.48496 -11.684,-8.91204 -17.5,-13.40625 -14.945,-11.29036 -29.518,-23.26973 -45.593,-32.90625 l -63.25,63.25 c -3.362,3.50037 -9.161,7.04247 -0.594,7.8125 22.258,12.64379 41.9,29.32817 62.406,44.5625 18.885,-18.88513 37.771,-37.77112 56.657,-56.65625 20.016,17.95003 40.096,35.85226 61.374,52.3125 l 66.282,-66.28125 c 1.299,-5.93733 -13.093,-11.29262 -17.5,-17.03125 -14.959,-12.95228 -30.042,-25.90257 -43.5,-40.4375 z"/>
</svg>
