<?xml version="1.0" encoding="UTF-8"?>
<svg xmlns:svg="http://www.w3.org/2000/svg" xmlns="http://www.w3.org/2000/svg" viewBox="0 0 1000 1000">
  <path transform="translate(-19000,0)" style="fill:#000000;fill-opacity:1;stroke:none" d="m 19678.562,172.36218 -85.906,85.90625 c -16.001,11.01275 -8.027,14.99975 8.063,21.25 29.931,12.47385 49.354,40.42522 59.593,70.28125 17.223,36.54121 13.332,79.03242 -2.593,115.15625 -29.574,57.87004 -78.366,102.44782 -122.719,148.84375 48.636,-48.95385 98.09,-97.09837 145.531,-147.21875 32.18,-36.49869 68.587,-73.58743 81.25,-122 13.706,-41.78113 0.304,-86.58484 -21.156,-123.25 -13.032,-24.29832 -38.628,-37.02439 -62.063,-48.96875 z m -98.187,93.0625 -97.813,97.8125 c 2.978,43.73585 3.271,87.74788 1.782,131.5625 l 96.218,-96.21875 c 1.773,-44.34966 0.498,-88.789 -0.187,-133.15625 z m 20.563,282.90625 c -32.273,32.26792 -64.542,64.54222 -96.813,96.8125 -0.102,33.06946 4.589,68.64189 -4.281,101.84375 l -4.063,4.0625 c 31.757,4.14198 62.381,15.3967 90.563,30.59375 -0.188,0.18751 -0.375,0.37499 -0.563,0.5625 2.157,1.02531 4.328,1.94405 6.531,2.75 1.966,1.11168 3.905,2.22744 5.844,3.375 0.406,-0.40622 0.813,-0.81253 1.219,-1.21875 29.763,7.75025 62.333,-2.58293 86.531,-21 36.664,-33.47197 74.634,-66.48686 106.875,-104.40625 4.939,-4.86334 9.871,-9.73397 14.813,-14.59375 4.347,-4.25067 6.273,-6.19838 6.906,-6.84375 -2.063,1.91803 -11.485,10.93503 -15.781,14.96875 -1.222,1.33488 -2.488,2.6488 -3.781,3.9375 8.413,-10.0344 16.409,-20.4201 23.874,-31.25 -17.47,17.47029 -34.935,34.93595 -52.406,52.40625 -25.671,13.77979 -56.201,18.07014 -82.781,4.03125 -0.448,0.44793 -0.896,0.89582 -1.344,1.34375 -27.499,-14.87275 -57.154,-25.87308 -87.719,-32.34375 10.908,-33.49715 6.326,-70.11735 6.376,-105.03125 z"/>
</svg>
