<?xml version="1.0" encoding="UTF-8"?>
<svg xmlns:svg="http://www.w3.org/2000/svg" xmlns="http://www.w3.org/2000/svg" viewBox="0 0 1000 1000">
  <path transform="translate(-16000,0)" style="fill:#000000;fill-opacity:1;stroke:none" d="m 16121.563,212.11218 -320.375,0.25 -120,100 222.906,0 c -8.032,8.03266 -16.061,16.06172 -24.094,24.09375 -4.17,51.34456 -2.408,104.84656 -3.124,157.03125 0.953,87.93228 -1.593,110.03576 -2.844,187.28125 -3.384,-2.55976 -6.982,-5.07153 -8.438,-7.46875 -22.572,-20.46777 -47.239,-38.34558 -71.687,-56.4375 0.07,-30.13241 -0.21,-60.27495 0.156,-90.40625 -0.183,-36.36962 2.057,-72.68596 2.594,-109.03125 -31.172,31.23267 -62.535,62.54918 -93.781,93.8125 -6.603,3.92067 -3.074,11.88385 -3.876,18.1875 -2.22,60.38088 -1.893,120.82951 -2.5,181.25 l -2.562,2.5625 c 0.849,0.54382 1.685,1.10744 2.531,1.65625 -0.01,1.062 -0.02,2.12552 -0.03,3.1875 0.646,-0.64589 1.292,-1.29161 1.938,-1.9375 31.28,20.48776 60.363,44.33686 86.75,70.8125 l 88.656,-88.65625 c -0.02,1.38926 -0.05,2.63917 -0.06,4.0625 l 93.188,-93.15625 c 10.617,-14.99209 1.346,-38.17593 4.719,-56.25 3.263,-103.22202 1.053,-157.71089 2.718,-240.59375 l 26.844,0 120.375,-100.25 z"/>
</svg>
