<?xml version="1.0" encoding="UTF-8"?>
<svg xmlns:svg="http://www.w3.org/2000/svg" xmlns="http://www.w3.org/2000/svg" viewBox="0 0 1000 1000">
  <path transform="translate(-3000,0)" style="fill:#000000;fill-opacity:1;stroke:none" d="m 3620.375,212.11218 -400.75,0.25 -120,100 282.3438,0 c -6.0941,6.09403 -12.1872,12.18748 -18.2813,18.28125 -5.611,32.31285 -2.7246,37.023 -3.375,67.5 -12.0784,-7.83785 -24.4734,-15.17138 -37.5313,-21.4375 -5.2276,-3.94491 -10.537,-5.63473 -15.8124,-5.6875 0.1642,-0.19973 0.3357,-0.39393 0.5,-0.59375 -0.198,0.19786 -0.3958,0.39589 -0.5938,0.59375 -20.9221,-0.13132 -41.3979,25.59427 -54.7812,39.96875 -16.122,22.5054 -33.1616,44.27024 -50.8126,65.5625 -0.771,0.7706 -1.5415,1.5419 -2.3124,2.3125 0.1044,0.0409 0.2082,0.0839 0.3124,0.125 -17.1559,20.60781 -34.8761,40.77151 -52.8124,60.71875 l -8.625,8.46875 -12,11.8125 -12.5313,13.96875 -10.2813,14.75 c -3.6316,82.4863 -6.3885,36.94591 -6.5312,119.53125 -6.9274,37.2041 29.7757,53.99044 57.5938,66.4375 20.9893,2.81052 34.9367,-14.3481 48.875,-30.875 7.2202,-7.21794 14.4359,-14.4383 21.6562,-21.65625 0.093,-0.0637 0.1885,-0.12452 0.2812,-0.1875 0.2502,-0.28124 0.4986,-0.56367 0.75,-0.84375 8.3612,-8.35845 16.7327,-16.70406 25.0938,-25.0625 10.0569,-9.50551 20.1636,-18.98737 29.25,-29.25 0.093,-0.10502 0.1886,-0.20731 0.2812,-0.3125 1.2868,-1.28631 2.5883,-2.55744 3.875,-3.84375 -0.3067,0.13613 -0.6273,0.24871 -0.9374,0.375 6.6253,-7.86162 12.6136,-16.20567 17.4687,-25.4375 -9.2821,9.28216 -18.5617,18.56159 -27.8437,27.84375 -25.8626,2.18661 -57.5772,-20.5815 -66.0938,-43.5625 -6.2515,-61.20324 -0.084,5.22059 -0.5312,-56.1875 1.9238,-27.03287 -0.9765,-55.26753 4.7812,-81.71875 51.2392,23.38062 94.4591,63.53279 144.25,90.34375 l 1.9375,-1.9375 c -1.3826,91.36618 -2.5185,87.85088 -3.6563,152.9375 -6.1457,6.14574 -12.2917,12.29177 -18.4374,18.4375 -1.3816,5.35699 12.8061,8.9122 16.4374,14.75 16.2345,13.35177 30.3941,28.87584 43.6876,45.09375 -2.7369,3.50051 -5.3791,7.07808 -7.9376,10.71875 -1.6874,1.68743 -3.375,3.37507 -5.0624,5.0625 5.1193,-4.33366 10.1412,-8.74252 15.0937,-13.25 0.6579,0.81144 1.3148,1.6232 1.9687,2.4375 33.7342,-33.73417 67.4847,-67.45333 101.2188,-101.1875 2.1429,-2.94505 8.3786,-5.68326 4.5938,-8.90625 9.3136,-8.21938 18.3493,-16.75155 27,-25.65625 -9.1978,8.35016 -18.2117,16.89787 -27.1563,25.53125 -0.2325,-0.18616 -0.4785,-0.37303 -0.7813,-0.5625 -0.1717,-0.22163 -0.3589,-0.43503 -0.5312,-0.65625 12.7712,-12.79568 25.5375,-25.61585 38.3438,-38.375 1.7547,-1.72354 2.5839,-2.5865 2.8437,-2.875 -0.7865,0.65438 -4.6497,4.21138 -7.125,6.46875 -9.5193,8.41947 -18.9403,16.94707 -28.2813,25.5625 1.0618,-1.22543 2.1659,-2.43523 3.3126,-3.59375 -3.7908,3.28427 -7.502,6.66321 -11.1876,10.09375 -13.2855,-16.72607 -28.0702,-32.24139 -44.1562,-46.28125 0.9583,-0.95834 1.9167,-1.91666 2.875,-2.875 -0.368,-117.40372 1.6523,-101.00185 4.6875,-218.34375 1.1654,-38.17299 1.8963,-76.35645 2.5937,-114.53125 l 32.4688,0 c 40.1213,-33.41683 80.2537,-66.83317 120.375,-100.25 z"/>
</svg>
