<?xml version="1.0" encoding="UTF-8"?>
<svg xmlns:svg="http://www.w3.org/2000/svg" xmlns="http://www.w3.org/2000/svg" viewBox="0 0 1000 1000">
  <path transform="translate(-4000,0)" style="fill:#000000;fill-opacity:1;stroke:none" d="m 4100.3438,212.11218 -426.2814,0.25 -120,100 285.5313,0 c -20.2053,19.11713 -15.5312,20 -18.375,55 -0.34,15.97026 -0.6541,12.43378 -0.9687,28.40625 -4.9314,-3.19856 -9.9372,-6.3214 -15,-9.3125 -12.1794,-11.85413 -26.3244,-16.60114 -40.0626,-15.59375 0.7576,-0.91798 1.5258,-1.83013 2.2813,-2.75 -0.9377,0.93721 -1.8748,1.87529 -2.8125,2.8125 -17.7335,1.49349 -34.7239,12.57002 -45.75,30.3125 -19.185,25.13074 -38.8057,49.94781 -58.9688,74.34375 -0.3229,0.32282 -0.6457,0.64593 -0.9687,0.96875 0.043,0.0171 0.082,0.0454 0.125,0.0625 -15.439,18.65655 -31.1926,37.04826 -47.3125,55.125 l -23.75,23.8125 -11.9062,13.4375 -13.0626,17.40625 c -2.7818,63.18682 -5.0539,0.31962 -6.0312,63.5625 1.1048,27.42475 -3.6782,55.64216 1.6562,82.40625 16.0892,28.09482 62.4704,59.86133 89.6876,27.59375 3.246,-4.04088 6.6202,-7.98641 10.0624,-11.84375 14.2261,-14.22148 28.4616,-28.43477 42.6876,-42.65625 0.083,-0.0833 0.1667,-0.16668 0.25,-0.25 11.5232,-10.95075 22.9867,-21.97935 33.6874,-33.6875 0.01,-0.0109 0.021,-0.0204 0.031,-0.0313 1.9378,-1.93716 3.8747,-3.87534 5.8125,-5.8125 -0.217,0.0428 -0.4779,0.0602 -0.7188,0.0937 4.5699,-5.23309 9.0085,-10.62346 13.1876,-16.21875 15.8472,-22.54866 -3.2437,-1.39 -11.0626,6.1875 -3.1449,3.37668 -6.3566,6.70185 -9.5937,10 -18.6557,-1.81149 -55.6386,-14.14221 -63.75,-39.15625 -8.9746,-44.77595 -3.7565,-51.78662 -3.5,-97.4375 2.9805,-44.3003 -2.4572,-3.55131 6,-47.25 51.5496,23.67929 93.9275,63.25835 143.7813,90.09375 0.6666,-0.66659 1.3335,-1.33341 2,-2 -1.5298,100.10169 -2.8044,82.11502 -4.0938,180.59375 -2.0106,2.0106 -4.0206,4.02065 -6.0312,6.03125 24.9558,12.59712 46.6164,30.87269 66.7812,50.09375 -0.2627,0.3005 -0.5186,0.6057 -0.7812,0.90625 l 0.8437,-0.84375 c 0.6072,0.57893 1.2393,1.13819 1.8437,1.71875 L 3983.375,700.95593 c -0.6296,-0.6256 -1.273,-1.25301 -1.9063,-1.875 23.2488,-26.47419 46.8579,-52.70114 70.8125,-78.5625 l -74.75,74.71875 c -18.4171,-17.64839 -38.4176,-33.69299 -60.0312,-47.25 0.9166,-0.91668 1.8333,-1.83332 2.75,-2.75 -0.8626,-164.33449 3.7631,-168.59507 7.25,-332.875 l 52.5,0 c 40.1213,-33.41681 80.2225,-66.83319 120.3438,-100.25 z m -469.8126,125.0625 c -25.7698,25.76966 -51.5428,51.54284 -77.3125,77.3125 26.1321,21.42345 53.8211,40.87436 80.8437,61.15625 l 75.6876,-75.6875 c -26.591,-20.6874 -54.8981,-39.31137 -79.2188,-62.78125 z"/>
</svg>
