<?xml version="1.0" encoding="UTF-8"?>
<svg xmlns:svg="http://www.w3.org/2000/svg" xmlns="http://www.w3.org/2000/svg" viewBox="0 0 1000 1000">
  <path transform="translate(-1000,0)" style="fill:#000000;fill-opacity:1;stroke:none" d="m 1340.3749,212.11218 -380.3749,0.25 -120,100 41.09375,0 c -1.3128,1.31273 -2.6247,2.62477 -3.9375,3.9375 -6.267,8.87231 -21.80355,14.46762 -17.15625,27.125 4.5181,118.75041 2.10575,51.66623 0.28125,169.125 -0.0707,4.5502 -6.08,15.02783 -8.875,22.34375 -3.6428,3.13458 -7.7047,6.51761 -2.625,6.8125 38.5116,6.26775 76.7865,16.53215 111.5625,34.5625 32.995,-32.99505 79.67345,-76.30579 114.09365,-110.375 -0.5618,79.17469 0.6533,158.43845 -3.5935,237.5 l -35.594,35.59375 c -11.1747,8.16581 1.8273,5.09122 9.6875,7.53125 26.437,7.59797 49.6472,23.50808 70.3437,41.40625 l -22.9373,22.9375 c 1.9766,-1.13134 3.7469,-2.62732 5.5311,-4.03125 3.5564,-2.62838 6.8289,-5.55294 10.0625,-8.5625 2.5004,-2.42336 4.9984,-4.85837 7.5,-7.28125 -2.3858,2.83183 -1.3485,2.13689 2.125,-1.09375 1.5711,1.38151 3.1458,2.75683 4.6875,4.15625 35.1593,-35.15915 70.3096,-70.3096 105.4689,-105.46875 0.683,-2.29631 -0.2786,-4.52129 -2.1564,-6.6875 l 89.7814,-89.75 c -4.5223,4.11287 -9.0715,8.23091 -13.5939,12.34375 -9.1748,8.37298 -18.3062,16.76709 -27.4375,25.1875 -4.2769,4.01564 -8.5327,8.04748 -12.7813,12.09375 -0.9622,0.45934 -18.5338,17.63223 -38.6562,37.53125 -5.4663,-4.63444 -13.8878,-9.00781 -17.625,-13.1875 -10.3706,-6.93539 -21.0518,-14.34871 -32.375,-20.15625 3.9116,-7.45957 4.679,-16.33271 3.8125,-25.90625 6.6738,-104.55744 2.1236,-209.35893 3.3125,-314.03125 1.3786,-55.19043 0.5523,61.55904 1.25,6.34375 l 38.75,0 z m -370.34365,100.25 122.56265,0 c -5.8325,5.83247 -11.6677,11.66765 -17.5,17.5 -0.9672,94.16211 -1.3161,16.33485 -0.4377,110.5 -0.088,6.71995 -0.1323,13.4349 -0.1873,20.15625 -5.9115,1.51895 -13.6741,3.44339 -16.1565,2.1875 -29.0578,-12.17535 -59.42115,-21.07407 -90.1874,-27.84375 0.0398,-7.86076 0.061,-12.92086 0.0625,-17.15625 0.20987,-1.07924 0.60269,-7.94065 1.3125,-27.6875 0.3844,-25.8607 0.59805,-51.75898 0.53125,-77.65625 z"/>
</svg>
