<?xml version="1.0" encoding="UTF-8"?>
<svg xmlns:svg="http://www.w3.org/2000/svg" xmlns="http://www.w3.org/2000/svg" viewBox="0 0 1000 1000">
  <path transform="translate(-1000,0)" style="fill:#000000;fill-opacity:1;stroke:none" d="m 1860.3745,212.11218 -400.3745,0.25 -120,100 41.2188,0 c -7.2468,7.50469 -14.3897,15.07814 -21.375,22.75 3.3834,90.97229 3.2046,15.50567 1.625,106.75 -3.404,32.35944 6.1841,67.61498 -9.8438,97.34375 0.016,0.0164 0.044,0.0159 0.063,0.0313 -1.0845,1.06034 -2.1641,2.12872 -3.25,3.1875 25.4653,14.06721 80.0661,17.20547 111.9063,38.71875 26.1265,-26.04665 52.9909,-51.31917 79.5937,-76.875 4.4496,-6.89386 26.2649,-23.4097 34.4375,-32.53125 0.3209,83.29827 0.3181,166.61042 -4.5,249.75 l -19.1875,19.1875 c -10.0718,6.70977 6.9089,4.39055 11.3125,9.0625 24.2216,13.01047 45.8112,30.38524 66.3438,48.59375 -10.385,12.55901 -22.3183,23.98904 -30.5938,38.0625 11.5102,-11.51024 23.021,-23.02101 34.5312,-34.53125 0.4006,0.35935 0.8189,0.70269 1.2188,1.0625 l 107.2188,-107.25 c -1.7231,-1.61042 -3.4716,-3.19794 -5.2188,-4.78125 13.2364,-15.62523 27.3939,-30.45748 41.7188,-45.09375 l -43.5,43.5 c -12.0426,-10.80123 -24.6176,-20.97349 -37.625,-30.59375 -6.8625,-4.86375 -13.7374,-10.18535 -21.0313,-14.625 7.9768,-92.56751 4.7396,-186.17336 4.75,-279.1875 1.3329,-73.19272 0.2831,20.66699 1.5313,-52.53125 l 58.6557,0 c 41.9271,-34.92235 84.4936,-70.36288 120.3745,-100.25005 z m -390.437,100.25 122.6563,0 c -5.8325,5.83245 -11.6675,11.66763 -17.5,17.5 -0.6649,64.73917 -1.0268,-37.64897 -0.9063,27.09375 -0.1556,36.16482 0.012,72.34255 0.1563,108.53125 -0.088,0.008 -0.1574,-0.01 -0.25,0 -36.2814,1.21104 -71.0791,-20.54993 -107.9376,-27.09375 1.089,-3.11257 1.7966,-6.3986 2.0313,-9.90625 -1.8158,-94.41675 1.9529,-21.72553 1.75,-116.125 z m -53.6875,271.96875 -77.3125,77.3125 c 26.132,21.42345 53.8211,40.84311 80.8437,61.125 l 75.6876,-75.6875 c -26.5909,-20.6874 -54.8981,-39.28012 -79.2188,-62.75 z"/>
</svg>
