<?xml version="1.0" encoding="UTF-8"?>
<svg xmlns:svg="http://www.w3.org/2000/svg" xmlns="http://www.w3.org/2000/svg" viewBox="0 0 1000 1000">
  <path transform="translate(1000,0)" style="fill:#000000;fill-opacity:1;stroke:none" d="m -380,792.36218 c -23.07296,23.07244 -46.1459,46.14604 -69.21875,69.21875 1.86485,47.7906 0.11173,95.63397 1.4375,143.43757 -1.45804,1.458 -2.91697,2.9169 -4.375,4.375 -1.05483,0.5155 0.84928,0.053 4.46875,-0.8125 0.009,0.2914 0.022,0.5836 0.0313,0.875 0.38545,-0.3855 0.7708,-0.7708 1.15625,-1.1563 11.70729,-2.7863 37.92143,-8.73275 49.375,-3.5312 59.69468,16.1897 106.21134,59.7847 155.125,95.3125 48.10451,32.6134 97.31461,69.3297 155.9375,79.375 57.230101,5.9782 110.446842,-23.5829 156.15625,-54.5938 21.99368,-19.7483 42.082,-41.7782 63.34375,-62.4062 -30.14712,20.6217 -63.13438,38.2144 -98.75,47.0625 -42.966981,12.2943 -87.69104,-0.8613 -125.71875,-21.5313 -74.30676,-36.9567 -134.14227,-96.37255 -206.3125,-136.65627 -24.42944,-15.61761 -55.43839,-20.76347 -82.71875,-10.59375 -1.29292,-49.43866 -1.32302,-98.94007 0.0625,-148.375 z"/>
</svg>
