<?xml version="1.0" encoding="UTF-8"?>
<svg xmlns:svg="http://www.w3.org/2000/svg" xmlns="http://www.w3.org/2000/svg" viewBox="0 0 1000 1000">
  <path transform="translate(-1000,0)" style="fill:#000000;fill-opacity:1;stroke:none" d="m 1214.875,792.36218 c -22.6233,22.62375 -45.2198,45.25101 -67.8438,67.875 -2.1791,18.72043 -3.0621,38.00987 -3.5,57.4375 -25.4868,6.73081 -54.295,-6.52673 -66.0937,-29.59375 2.8657,-24.3354 -0.6564,-50.89091 2.8437,-75.8125 -22.6439,22.63778 -45.2949,45.29666 -67.9374,67.9375 -3.4962,18.5194 -2.3477,38.52546 -2.1876,58.21875 -6.2821,6.75224 -9.4866,14.07765 1.4688,22.84375 19.218,30.60447 62.5531,32.74007 90.0312,12.21875 15.3116,-11.00788 28.4568,-24.70353 41.5938,-38.375 -0.2038,15.75829 -0.2973,31.52347 -0.7188,47.06252 -2.5519,44.4591 3.4721,92.7926 -17.1874,133.5312 -11.444,10.1366 -23.2075,19.9145 -35.3438,29.2188 -60.8994,43.2855 -125.93894,80.5835 -191.0625,117.0937 -67.92416,40.3997 -148.71766,44.0671 -222.9375,66.5625 -32.54542,7.1472 -60.93805,23.0361 -86.3125,43.2812 2.33331,-2.5648 4.64287,-5.1337 6.90625,-7.75 -10.40309,9.2674 -20.61615,18.794 -30.59375,28.5626 -2.15837,2.0738 -4.29164,4.1919 -6.40625,6.3124 -0.54729,0.547 -1.07917,1.1079 -1.625,1.6563 -0.73825,0.748 -1.48569,1.497 -2.21875,2.25 -10.94889,11.0809 -21.60594,22.4553 -31.90625,34.0937 1.25663,-0.9832 2.50809,-1.9582 3.78125,-2.9062 -0.94222,1.112 -1.90961,2.2303 -2.84375,3.3438 1.42127,-1.479 2.87606,-2.9379 4.3125,-4.4063 54.61716,-39.9042 123.89243,-48.4662 188.1875,-63.7187 56.09763,-8.1933 106.09336,-35.5954 154.53125,-63.375 73.49229,-44.1615 150.8917,-84.595 211.5625,-146.4688 11.7115,-13.6444 24.478,-26.3074 37.4375,-38.75 -9.0751,9.2643 -18.0755,18.5965 -26.9063,28.0938 7.4083,-7.7754 18.3146,-18.6265 29.7813,-29.9376 -0.5487,1.0028 -1.1041,2.0072 -1.6875,3 l 47.0938,-47.0937 c 21.0132,-17.5603 36.0944,-41.9265 37.1562,-70.0625 6.0479,-70.63386 1.6313,-141.76416 8.625,-212.34372 z m -120.9688,356.43752 c -2.6244,2.7545 -4.923,5.2404 -6.5,7.0624 2.1602,-2.3638 4.3199,-4.7177 6.5,-7.0624 z"/>
</svg>
