<?xml version="1.0" encoding="UTF-8"?>
<svg xmlns:svg="http://www.w3.org/2000/svg" xmlns="http://www.w3.org/2000/svg" viewBox="0 0 1000 1000">
  <path transform="translate(-17000,0)" style="fill:#000000;fill-opacity:1;stroke:none" d="m 17937.031,214.51843 -337.031,0.25 -120,100 212.062,0 -63.625,63.59375 c -6.119,9.71178 -24.781,16.46206 -20.437,28.78125 0.523,0.54619 1.063,1.08736 1.594,1.625 -35.594,35.60371 -71.207,71.20373 -106.813,106.8125 1.065,114.58122 -3.499,61.88651 -4.687,176.46875 -3.094,3.09333 -6.188,6.18792 -9.282,9.28125 3.096,0.50382 6.143,1.11954 9.156,1.84375 -0.04,4.43348 -0.07,8.87894 -0.09,13.3125 3.468,-3.46839 6.938,-6.93786 10.406,-10.40625 37.858,12.41201 69.295,40.99438 98.313,67.40625 33.316,-33.31679 66.652,-66.65196 99.968,-99.96875 -0.09,0.73172 -0.19,1.4561 -0.281,2.1875 -3.245,3.09095 -6.465,6.19969 -9.656,9.34375 0.613,-0.8087 1.212,-1.6193 1.812,-2.4375 -4.089,4.27134 -8.137,8.58437 -12.187,12.90625 -5.855,6.03359 -11.59,12.18554 -17.156,18.5 -5.942,6.44316 -11.896,12.89915 -17.844,19.34375 2.718,-2.6393 5.408,-5.29723 8.125,-7.9375 -2.592,3.1488 -5.155,6.32641 -7.657,9.5625 -0.309,0.45204 -0.621,0.89802 -0.937,1.34375 18.373,-16.57749 36.385,-33.51798 54.187,-50.6875 -0.323,2.20988 -0.672,4.41861 -1.031,6.625 36.474,-36.47376 72.964,-72.96374 109.438,-109.4375 0.276,-1.86449 0.534,-3.72721 0.781,-5.59375 0.719,-0.71829 1.437,-1.4382 2.156,-2.15625 -0.589,0.53619 -1.488,1.35797 -2.125,1.9375 6.48,-49.29423 2.831,-99.28019 6.157,-148.8125 1.465,-1.77339 2.939,-3.54897 4.374,-5.34375 l -4.312,4.3125 c 0.01,-0.14583 0.02,-0.29168 0.03,-0.4375 -14.592,14.59279 -29.188,29.18845 -43.781,43.78125 -1.311,1.12287 -2.481,2.10246 -3.344,2.75 -14.6,13.53423 -29.024,27.2548 -43.344,41.09375 6.316,-6.49949 12.597,-13.0267 18.876,-19.5625 -12.031,12.15132 -24.089,24.26107 -36.157,36.375 -23.389,22.92092 -46.496,46.15406 -69.437,69.53125 -1.974,1.97385 -3.933,3.96348 -5.906,5.9375 -9.934,-5.23488 -20.29,-9.59607 -31.188,-12.71875 0.823,-20.19513 -0.415,-41.2627 0.406,-61.5625 1.763,-96.1523 2.599,-25.07644 5.469,-121.1875 29.889,29.02851 69.733,45.64236 104.594,67.9375 30.978,-30.97771 61.959,-61.92854 92.937,-92.90625 28.941,-17.1898 -2.982,-26.11892 -21.812,-36.375 -17.193,-11.37875 -38.849,-20.96013 -54.688,-35.0625 l 83.594,0 c 41.927,-34.92129 84.495,-70.3655 120.373,-100.25 z m -286.25,521.8125 c -2.705,2.44065 -5.404,4.88822 -8.125,7.3125 -2.223,2.10553 -4.505,4.15766 -6.781,6.21875 5.14,-5.48675 10.274,-10.97295 15.375,-16.5 -6.912,6.71138 -13.784,13.43541 -20.344,20.40625 -1.552,1.55209 -3.104,3.10416 -4.656,4.65625 -20.985,18.29798 -42.787,35.97822 -58.969,58.65625 16.802,-14.47711 32.751,-29.94096 48.281,-45.875 12.807,-10.50285 25.554,-21.24291 35.219,-34.875 z m 62.313,-197.9375 c -1.809,40.1523 -1.338,80.56126 -5,120.59375 -21.721,-18.98305 -44.379,-38.30603 -69.876,-51.90625 5.977,-5.97289 11.938,-11.95751 17.907,-17.9375 16.538,-15.02119 33.517,-29.57162 50,-44.65625 -0.521,0.65478 -1.048,1.30951 -1.563,1.96875 2.847,-2.67545 5.699,-5.37076 8.532,-8.0625 z m -109.719,242.90625 c -7.657,7.6563 -15.313,15.31245 -22.969,22.96875 6.641,-8.4801 14.592,-15.85828 22.969,-22.96875 z"/>
</svg>
