<?xml version="1.0" encoding="UTF-8"?>
<svg xmlns:svg="http://www.w3.org/2000/svg" xmlns="http://www.w3.org/2000/svg" viewBox="0 0 1000 1000">
  <path transform="translate(-2000,0)" style="fill:#000000;fill-opacity:1;stroke:none" d="m 2920.375,212.11218 c -173.4546,0.0771 -326.9204,0.1729 -500.375,0.25 l -120,100 170.6562,0 c -3.552,3.55251 -7.1045,7.10334 -10.6562,10.65625 0.5051,57.91489 0.3992,35.83363 0.5312,93.75 -1.6471,72.84662 1.0346,146.05331 -5.5937,218.6875 -18.2446,9.89795 -37.2378,12.63712 -49.7813,-7.9375 -3.1577,-29.64938 -4.4342,-65.93297 15.4376,-90.15625 -18.4244,18.95301 -36.8025,37.94446 -55.25,56.875 -12.0285,11.56422 -24.1654,22.9947 -36.4376,34.3125 -32.4146,26.23944 -40.1377,73.67907 -28.75,112 25.6677,34.21972 66.8591,-15.0605 91.8438,-30.8125 31.7518,-29.50931 63.7,-58.7938 95.0625,-88.71875 18.1661,-15.75635 36.4472,-31.62726 51.3125,-49.96875 19.5645,-0.627 39.1573,-1.30084 58.625,-1.3125 l 28.5312,-28.53125 c 0.027,87.83351 -0.1683,112.86659 -0.1562,188.25 -2.3645,2.36451 -4.7292,4.72924 -7.0938,7.09375 2.4071,0.98889 4.761,2.06892 7.0938,3.1875 0,4.66586 0,7.54347 0,12.625 2.7706,-2.77059 5.5418,-5.54181 8.3125,-8.3125 24.2982,13.67211 44.4856,34.05714 62,55.59375 5.0827,-5.08273 10.1673,-10.16727 15.25,-15.25 13.8492,-10.97554 25.9321,-24.28398 40.0313,-35 35.1581,-34.27367 69.5151,-69.39223 104.375,-104 11.8295,-11.46384 -9.4575,7.04793 -13.5626,10.6875 -11.907,9.64904 -21.8657,23.27023 -36.5937,28.375 -1.4792,1.4792 -2.9583,2.9583 -4.4375,4.4375 -19.1135,-23.56963 -41.6797,-44.75174 -68.4688,-59.25 0.2035,-147.6889 -0.5256,-158.84694 0.5626,-317.28125 l 67.1562,0 c 40.1213,-33.41681 80.2537,-66.83319 120.375,-100.25 z m -499.7812,325.25 c 2.3622,-2.43004 4.7296,-4.85305 7.0937,-7.28125 -2.6145,2.28071 -4.9808,4.7055 -7.0937,7.28125 z m 148.375,-225 83.1562,0 c -9.3127,9.31223 -18.6255,18.62456 -27.9375,27.9375 0.7592,67.76691 1.1005,55.54282 1.25,123.3125 -17.876,0.25423 -35.7517,0.33974 -53.625,0.0313 l -5.375,5.375 c 2.5221,-78.84916 2.4306,-77.75839 2.5313,-156.65625 z"/>
</svg>
