<?xml version="1.0" encoding="UTF-8"?>
<svg xmlns:svg="http://www.w3.org/2000/svg" xmlns="http://www.w3.org/2000/svg" viewBox="0 0 1000 1000">
  <path transform="translate(-17000,0)" style="fill:#000000;fill-opacity:1;stroke:none" d="m 17440.375,212.11218 -500.375,0.25 -120,100 31.656,0 c -6.48,6.48013 -12.958,12.95679 -19.437,19.4375 2.314,124.23261 1.374,271.84933 0.812,396.09375 -2.208,2.20834 -4.416,4.41665 -6.625,6.625 18.737,13.91263 64.781,35.43755 90.75,57.84375 27.719,-27.71898 55.438,-55.43727 83.156,-83.15625 -0.102,2.16577 -0.201,4.33454 -0.312,6.5 35.648,-37.08476 71.29,-74.16524 106.938,-111.25 1.973,-38.67809 1.507,-77.41064 1.531,-116.125 14.499,15.82996 37.193,27.7388 54.812,38.375 -0.754,2.63325 -1.227,5.41707 -1.375,8.40625 -0.181,105.33908 -2.214,75.28236 -5.218,180.59375 -7.171,34.16481 17.505,81.66101 57.406,71.875 43.255,-11.65373 69.385,-51.38038 101.062,-80.0625 8.888,-11.36997 61.331,-56.23842 31.844,-37.1875 -28.85,26.40413 -76.385,8.55759 -83.312,-29.0625 -2.097,-79.35434 -0.439,-23.59525 1.187,-103.0625 2.67,-36.24543 2.746,-72.75044 6.187,-108.9375 0.616,-0.59247 1.228,-1.18977 1.844,-1.78125 -0.467,-0.65353 -0.982,-1.29496 -1.5,-1.9375 0.527,-5.17674 1.122,-10.33882 1.813,-15.5 -2.834,2.83347 -5.667,5.66653 -8.5,8.5 -23.204,-21.13732 -67.46,-38.94608 -63.281,-79.6875 -30.763,30.67398 -61.44,61.52091 -92.219,92.125 0.05,-1.55904 0.1,-3.12857 0.156,-4.6875 -35.981,37.4527 -71.98,74.89835 -107.969,112.34375 0.103,3.91726 0.161,7.83215 0.25,11.75 -5.664,5.30131 -11.302,10.6351 -16.906,16 -2.575,2.68075 -5.181,5.31112 -7.781,7.96875 -0.129,0.13188 -0.246,0.27443 -0.375,0.40625 -12.01,11.81475 -24.027,23.6163 -36,35.46875 -0.429,-91.50838 -0.961,-206.36825 -0.25,-297.875 l 379.656,0 c 40.121,-33.417 80.254,-66.833 120.375,-100.25 z m -355.937,259.46875 c -6.01,6.15387 -12.124,12.21845 -18.282,18.21875 6.095,-6.06763 12.182,-12.15604 18.282,-18.21875 z m -82.657,83.09375 c 0.814,38.08721 0.969,76.19853 0,114.28125 -18.061,-13.90784 -43.824,-27.31173 -63.687,-37.46875 l 2.594,-2.59375 c -0.02,-4.69829 -0.04,-9.39542 -0.06,-14.09375 1.362,-1.39918 2.704,-2.81607 4.063,-4.21875 19.249,-18.41289 38.249,-37.07697 57.093,-55.90625 z m 58.219,121.03125 -75.969,76 c 19.99,22.18935 53.725,41.72748 79.5,62.46875 24.783,-24.78267 49.562,-49.56108 74.344,-74.34375 -20.204,-21.58728 -55.027,-40.09273 -77.875,-64.125 z"/>
</svg>
