<?xml version="1.0" encoding="UTF-8"?>
<svg xmlns:svg="http://www.w3.org/2000/svg" xmlns="http://www.w3.org/2000/svg" viewBox="0 0 1000 1000">
  <path transform="translate(-14000,0)" style="fill:#000000;fill-opacity:1;stroke:none" d="m 14200.38,212.11218 -440.38,0.25 -120,100 73.781,0 c -17.926,17.92592 -35.855,35.85728 -53.781,53.78125 1.625,71.22203 0.257,67.8159 0.562,139.0625 -2.693,46.74852 7.578,96.38016 -10.624,140.9375 30.27,-30.26975 60.542,-60.54275 90.812,-90.8125 4.752,-3.87813 9.095,-8.17568 12.812,-12.875 61.96,-1.87923 85.636,-4.81985 147.657,-4.25 2.906,-2.90639 5.812,-5.81236 8.719,-8.71875 -0.139,26.18944 -0.402,67.03437 -0.782,93.21875 -0.178,72.91084 -3.27,53.85388 -1,104.3125 -1.687,1.68757 -3.375,3.37493 -5.062,5.0625 -1.627,3.0016 -10.112,6.73164 -5.219,9.03125 3.754,3.17799 7.584,6.23346 11.469,9.25 0.04,0.71055 0.05,1.27119 0.09,2 l 1.093,-1.09375 c 21.834,16.84294 45.134,31.86708 64.938,51.1875 -1.354,1.35425 -2.709,2.70825 -4.063,4.0625 0.298,0.19132 2.408,-1.11277 5.188,-3 0,0.005 0.03,-0.005 0.03,0 0.261,0.2588 0.521,0.52086 0.781,0.78125 l 4.563,-4.5625 c 3.455,-2.51664 6.941,-5.16761 8.969,-6.875 5.602,-5.0955 11.132,-10.25589 16.624,-15.46875 -1.415,1.44906 -2.829,2.90054 -4.25,4.34375 2.886,-2.84425 5.772,-5.68707 8.657,-8.53125 13.495,-12.92989 26.71,-26.16165 39.875,-39.4375 20.766,-20.61188 41.447,-41.31148 61.844,-62.28125 -1.07,1.03427 -2.166,2.04197 -3.25,3.0625 14.778,-14.85642 29.303,-29.97806 41.937,-46.71875 l -66.875,66.875 c -0.988,0.65067 -1.994,1.31323 -3,1.9375 -1.785,-6.1951 -13.638,-12.3133 -18.531,-18 -15.323,-13.18082 -32.562,-24.15852 -47.781,-37.4375 -0.451,-9.87231 -0.765,-15.69491 -0.938,-18.03125 0.143,-1.55367 0.302,-7.27407 0.344,-23.65625 2.589,-115.70042 1.785,-171.43696 2.468,-287.15625 l 61.943,0 c 41.928,-34.92374 84.494,-70.36562 120.38,-100.25 z m -431.692,100.25 188.343,0 c -15.99,15.99588 -31.974,31.98611 -47.969,47.96875 0.434,48.89075 0.793,23.12734 0.938,72.03125 -56.602,1.5485 -74.95,3.46252 -131.562,2.09375 -3.219,3.21872 -6.439,6.43753 -9.657,9.65625 0.752,-68.78303 -0.505,-62.95692 -0.09,-131.75 z"/>
</svg>
