<?xml version="1.0" encoding="UTF-8"?>
<svg xmlns:svg="http://www.w3.org/2000/svg" xmlns="http://www.w3.org/2000/svg" viewBox="0 0 1000 1000">
  <path transform="translate(-1000,1947.6378)" style="fill:#000000;fill-opacity:1;stroke:none" d="m 1488.1875,-1936.2628 c -65.2767,-0.2412 -163.9687,92.375 -248.1875,188.625 l 0,40 c 100,-100 200,-220 200,-80 l 0,40 120,0 0,-40 c 0,-0.4113 8e-4,-0.8092 0,-1.2188 105.386,-65.1212 200,-100.2797 200,1.2188 l 0,40 -120,0 0,40 120,0 0,440 c 0,50 -30,80 -80,80 l 0,40 280,0 0,-40 c -50,0 -80,-30 -80,-80 l 0,-440 120,0 0,-40 -120,0 0,-40 c 0,-217.838 -156.2256,-149.2457 -321.625,-41.0938 -6.6132,-77.0709 -32.9675,-107.3937 -70.1875,-107.5312 z"/>
</svg>
