<?xml version="1.0" encoding="UTF-8"?>
<svg xmlns:svg="http://www.w3.org/2000/svg" xmlns="http://www.w3.org/2000/svg" viewBox="0 0 1000 1000">
  <path transform="translate(-10000,947.6378)" style="fill:#000000;fill-opacity:1;stroke:none" d="m 10000,-747.63782 0,40 280,0 0,45.21875 c -136.936,24.08866 -240,128.99708 -240,254.78125 0,143.59121 134.315,260 300,260 165.686,0 300,-116.40879 300,-260 0,-125.78417 -103.064,-230.69259 -240,-254.78125 l 0,-45.21875 280,0 0,-40 -680,0 z m 340,120 c 99.411,0 180,98.50017 180,220 0,121.49983 -80.589,220 -180,220 -99.411,0 -180,-98.50017 -180,-220 0,-121.49983 80.589,-220 180,-220 z"/>
</svg>
