<?xml version="1.0" encoding="UTF-8"?>
<svg xmlns:svg="http://www.w3.org/2000/svg" xmlns="http://www.w3.org/2000/svg" viewBox="0 0 1000 1000">
  <path transform="translate(-10000,1947.6378)" style="fill:#000000;fill-opacity:1;stroke:none" d="m 10000,-1747.6378 0,40 440,0 0,45.2188 c -136.936,24.0887 -240,128.9972 -240,254.7812 0,143.5914 134.315,260 300,260 165.686,0 300,-116.4086 300,-260 0,-125.7841 -103.064,-230.6925 -240,-254.7812 l 0,-45.2188 280,0 0,-40 z m 120,70.3124 -84.844,84.8438 84.844,84.8438 84.844,-84.8438 z m 380,49.6876 c 99.411,0 180,98.5002 180,220 0,121.5 -80.589,220 -180,220 -99.411,0 -180,-98.5 -180,-220 0,-121.4998 80.589,-220 180,-220 z"/>
</svg>
