<?xml version="1.0" encoding="UTF-8"?>
<svg xmlns:svg="http://www.w3.org/2000/svg" xmlns="http://www.w3.org/2000/svg" viewBox="0 0 1000 1000">
  <path transform="translate(-12000,1947.6378)" style="fill:#000000;fill-opacity:1;stroke:none" d="m 12000,-1747.6378 0,40 320,0 c 200,0 200,240 0,240 l 0,40 c 200,0 200,240 0,240 -80,0 -120,-20 -120,-100 l 0,-20 c 0,-25 15,-40 40,-40 l 0,-40 -200,0 0,40 c 25,0 40,15 40,40 l 0,20 c 0,140 160,140 240,140 305.208,0 351.647,-229.9867 139.344,-300 156.962,-51.7631 172.478,-190.9387 46.562,-260 l 134.094,0 0,-40 -320,0 -320,0 z m 140,90.3125 -84.844,84.8437 84.844,84.8438 84.844,-84.8438 -84.844,-84.8437 z"/>
</svg>
