<?xml version="1.0" encoding="UTF-8"?>
<svg xmlns:svg="http://www.w3.org/2000/svg" xmlns="http://www.w3.org/2000/svg" viewBox="0 0 1000 1000">
  <path transform="translate(-7000,947.6378)" style="fill:#000000;fill-opacity:1;stroke:none" d="m 7000,-747.63782 0,40 480,0 0,300 c 0,52.41501 8e-4,74.30337 -80,79 l 0,-119 c 0,-80 -20,-120 -180,-120 -160,0 -180,40 -180,120 l 0,40 c 0,80 0,120 240,120 l 0,20 c 0,50 -30,80 -80,80 l 0,40 280,0 0,-40 c -50,0 -80,-30 -80,-80 l 0,-20.40625 c 199.9734,-4.44193 200,-44.31421 200,-119.59375 l 0,-300 40,0 0,-40 -640,0 z m 220,220 c 60,0 60,20 60,80 l 0,120 c -120,0 -120,-20 -120,-80 l 0,-40 c 0,-60 0,-80 60,-80 z"/>
</svg>
