<?xml version="1.0" encoding="UTF-8"?>
<svg xmlns:svg="http://www.w3.org/2000/svg" xmlns="http://www.w3.org/2000/svg" viewBox="0 0 1000 1000">
  <path transform="translate(-7000,1947.6378)" style="fill:#000000;fill-opacity:1;stroke:none" d="m 7000,-1747.6378 0,40 600,0 0,300 c 0,52.415 8e-4,74.3034 -80,79 l 0,-119 c 0,-80 -20,-120 -180,-120 -160,0 -180,40 -180,120 l 0,40 c 0,80 0,120 240,120 l 0,20 c 0,50 -30,80 -80,80 l 0,40 280,0 0,-40 c -50,0 -80,-30 -80,-80 l 0,-20.4062 c 199.9734,-4.4421 200,-44.3143 200,-119.5938 l 0,-300 40,0 0,-40 -760,0 z m 120,70.3125 -84.8438,84.8437 84.8438,84.8438 84.8438,-84.8438 -84.8438,-84.8437 z m 220,149.6875 c 60,0 60,20 60,80 l 0,120 c -120,0 -120,-20 -120,-80 l 0,-40 c 0,-60 0,-80 60,-80 z"/>
</svg>
