<?xml version="1.0" encoding="UTF-8"?>
<svg xmlns:svg="http://www.w3.org/2000/svg" xmlns="http://www.w3.org/2000/svg" viewBox="0 0 1000 1000">
  <path transform="translate(-8000,947.6378)" style="fill:#000000;fill-opacity:1;stroke:none" d="m 8000,-747.63782 0,40 560,0 0,47.625 c -20.0362,-5.2721 -40.6049,-7.625 -60,-7.625 -80,1e-5 -180,39.99999 -180,160 0,120.00001 100,159.99999 180,160 19.3951,0 39.9638,-2.3529 60,-7.625 l 0,7.625 c 0,60 -40,160 -180,160 -126.0974,0 -171.0617,-81.12215 -178.75,-199.53125 4.6469,-33.17211 21.6899,-40.46875 38.75,-40.46875 l 0,-40 -200,0 0,40 c 16.8426,0 33.6921,24.82939 44.5625,68.5 21.6019,149.97319 120.0742,211.5 295.4375,211.5 240,0 300,-100 300,-200 l 0,-160 0,-200 40,0 0,-40 z m 500,120 c 56.25,-10e-6 59.7803,35.15626 60,105.46875 0.015,4.6875 0,9.53125 0,14.53125 l 0,14.53125 c -0.2197,70.31249 -3.75,105.46876 -60,105.46875 -60,-1e-5 -60,-40 -60,-120 0,-80 0,-119.99999 60,-120 z"/>
</svg>
