<?xml version="1.0" encoding="UTF-8"?>
<svg xmlns:svg="http://www.w3.org/2000/svg" xmlns="http://www.w3.org/2000/svg" viewBox="0 0 1000 1000">
  <path transform="translate(-8000,1947.6378)" style="fill:#000000;fill-opacity:1;stroke:none" d="m 8000,-1747.6378 0,40 555.1562,0 0,47.625 c -20.0361,-5.2721 -40.6049,-7.625 -60,-7.625 -80,0 -180,40 -180,160 0,120 100,160 180,160 19.3951,0 39.9639,-2.3529 60,-7.625 l 0,7.625 c 0,60 -40,160 -180,160 -126.0973,0 -171.0617,-81.1224 -178.75,-199.5312 4.6469,-33.1723 21.69,-40.4688 38.75,-40.4688 l 0,-40 -200,0 0,40 c 16.8389,0 33.6919,24.8163 44.5626,68.4688 21.5851,150.0146 120.0519,211.5312 295.4374,211.5312 240,0 300,-100 300,-200 l 0,-160 0,-200 40,0 0,-40 -715.1562,0 z m 120,75.1562 -84.8438,84.8438 84.8438,84.8438 84.8438,-84.8438 -84.8438,-84.8438 z m 375.1562,44.8438 c 56.25,0 59.7805,35.156 60,105.4688 0.015,4.6873 0,9.5312 0,14.5312 l 0,14.5312 c -0.2195,70.3127 -3.75,105.4688 -60,105.4688 -60,0 -60,-40 -60,-120 0,-80 0,-120 60,-120 z"/>
</svg>
