<?xml version="1.0" encoding="UTF-8"?>
<svg xmlns:svg="http://www.w3.org/2000/svg" xmlns="http://www.w3.org/2000/svg" viewBox="0 0 1000 1000">
  <path transform="translate(-1000,947.6378)" style="fill:#000000;fill-opacity:1;stroke:none" d="m 1786.8125,-930.63782 c -88.2225,1.23928 -224.9375,97.68751 -346.8125,183 l 0,40 c 140,-100 320,-219.99999 320,-80 l 0,40 -120,0 0,40 120,0 0,440 c 0,50 -30,80 -80,80 l 0,40 280,0 0,-40 c -50,0 -80,-30 -80,-80 l 0,-440 120,0 0,-40 -120,0 0,-40 c 0,-105.46875 -36.6346,-143.79441 -93.1875,-143 z"/>
</svg>
