<?xml version="1.0" encoding="UTF-8"?>
<svg xmlns:svg="http://www.w3.org/2000/svg" xmlns="http://www.w3.org/2000/svg" viewBox="0 0 1000 1000">
  <path transform="translate(-2000,947.6378)" style="fill:#000000;fill-opacity:1;stroke:none" d="m 2480,-947.63782 c -140,79.99998 -98.8627,183.2521 40,240 140,-100 320,-219.99998 320,-80 l 0,40 -120,0 0,40 120,0 0,440 c 0,49.99999 -30,80 -80,80 l 0,40 80,0 120,0 80,0 0,-40 c -50,0 -80,-30.00001 -80,-80 l 0,-440 120,0 0,-40 -120,0 0,-40 c 0,-269.99998 -240,-100 -440,40 -98.3339,-55.54681 0,-100 60,-140 l -100,-60 z"/>
</svg>
