<?xml version="1.0" encoding="UTF-8"?>
<svg xmlns:svg="http://www.w3.org/2000/svg" xmlns="http://www.w3.org/2000/svg" viewBox="0 0 1000 1000">
  <path transform="translate(-2000,1947.6378)" style="fill:#000000;fill-opacity:1;stroke:none" d="m 2000,-1747.6378 0,40 120,0 0,280 -80,0 0,40 200,0 0,-40 0,-280 240,0 0,440 c 0,50 -30,80 -80,80 l 0,40 80,0 120,0 80,0 0,-40 c -50,0 -80,-30 -80,-80 l 0,-440 120,0 0,-40 -720,0 z m 144.8438,395.1562 -84.8438,84.8438 84.8438,84.8438 84.8437,-84.8438 -84.8437,-84.8438 z"/>
</svg>
