<?xml version="1.0" encoding="UTF-8"?>
<svg xmlns:svg="http://www.w3.org/2000/svg" xmlns="http://www.w3.org/2000/svg" viewBox="0 0 1000 1000">
  <path transform="translate(-14000,1947.6378)" style="fill:#000000;fill-opacity:1;stroke:none" d="m 14000,-1747.6378 0,40 480,0 0,240 -440,0 0,40 c 18.125,0 36.258,16.4298 43.219,49.2812 19.879,148.8719 130.13,230.7188 256.781,230.7188 140,0 260,-100 260,-280 l 0,-280 40,0 0,-40 -640,0 z m 124.844,75.1562 -84.844,84.8438 84.844,84.8438 84.844,-84.8438 -84.844,-84.8438 z m 75.156,244.8438 280,0 c 0,180 -60,240 -140,240 -80,0 -140,-62.0173 -140,-240 z"/>
</svg>
