<?xml version="1.0" encoding="UTF-8"?>
<svg xmlns:svg="http://www.w3.org/2000/svg" xmlns="http://www.w3.org/2000/svg" viewBox="0 0 1000 1000">
  <path transform="translate(-6000,947.6378)" style="fill:#000000;fill-opacity:1;stroke:none" d="m 6000,-747.63782 0,40 40,0 0,280 c 0,200.00002 250,200.00002 360,60 l 0,100 c 0,50 -30,80 -80,80 l 0,40 80,0 120,0 80,0 0,-40 c -50,0 -80,-30 -80,-80 l 0,-100 c 110,140 360,140 360,-60 l 0,-40 c 0,-109.375 -74.7816,-158.9406 -160.5312,-158.5 -71.0497,0.36507 -149.625,35.0625 -199.4688,98.5 l 0,-180 400,0 0,-40 -920,0 z m 160,40 240,0 0,300 c -90,110 -240,80 -240,-20 l 0,-280 z m 495,150.15625 c 57.5464,-0.50537 105,33.59375 105,89.84375 l 0,40 c 0,100 -150,130 -240,20 l 0,-80 c 39.375,-48.125 90.2417,-69.45068 135,-69.84375 z"/>
</svg>
