<?xml version="1.0" encoding="UTF-8"?>
<svg xmlns:svg="http://www.w3.org/2000/svg" xmlns="http://www.w3.org/2000/svg" viewBox="0 0 1000 1000">
  <path transform="translate(-5000,947.6378)" style="fill:#000000;fill-opacity:1;stroke:none" d="m 5000,-747.63782 0,40 400,0 0,56.3125 c -397.194,-96.4532 -514.6274,203.6875 -120,203.6875 172.8253,0 198.149,331.83582 -154.1562,234.375 -24.5987,-11.50814 -45.8438,-32.31634 -45.8438,-74.375 l -40,0 0,140 40,0 c 0,-17.5 15.3242,-31.17969 39.25,-27.625 0.042,0.006 0.083,0.0249 0.125,0.0313 429.439,121.206666 568.4059,-312.4063 160.625,-312.4063 -180,0 -200,-240 200,-100 l 40,20 0,-140 40,0 0,-40 z"/>
</svg>
