<?xml version="1.0" encoding="UTF-8"?>
<svg xmlns:svg="http://www.w3.org/2000/svg" xmlns="http://www.w3.org/2000/svg" viewBox="0 0 1000 1000">
  <path transform="translate(-5000,1947.6378)" style="fill:#000000;fill-opacity:1;stroke:none" d="m 5000,-1747.6378 0,40 400,0 0,56.3125 c -397.194,-96.4532 -514.6274,203.6875 -120,203.6875 172.8253,0 198.149,331.8358 -154.1562,234.375 -24.5987,-11.5082 -45.8438,-32.3164 -45.8438,-74.375 l -40,0 0,140 40,0 c 0,-17.5 15.3242,-31.1797 39.25,-27.625 0.042,0.01 0.083,0.025 0.125,0.031 429.439,121.2069 568.4059,-312.406 160.625,-312.406 -180,0 -200,-240 200,-100 l 40,20 0,-140 80,0 0,-40 -600,0 z m 200,335.1562 -84.8438,84.8438 84.8438,84.8438 84.8438,-84.8438 -84.8438,-84.8438 z"/>
</svg>
