<?xml version="1.0" encoding="UTF-8"?>
<svg xmlns:svg="http://www.w3.org/2000/svg" xmlns="http://www.w3.org/2000/svg" viewBox="0 0 1000 1000">
  <path transform="translate(-5000,947.6378)" style="fill:#000000;fill-opacity:1;stroke:none" d="m 5849.8125,-930.63782 c -54.634,0.7661 -89.8125,39.64064 -89.8125,143 l 0,40 -120,0 0,40 120,0 0,440 c 0,50 -30,80 -80,80 l 0,40 280,0 0,-40 c -50,0 -80,-30 -80,-80 l 0,-440 120,0 0,-40 -120,0 0,-40 c 0,-140 180,-20 320,80 l 0,-40 c -123.4375,-86.40624 -262.1042,-184.2352 -350.1875,-183 z"/>
</svg>
