<?xml version="1.0" encoding="UTF-8"?>
<svg xmlns:svg="http://www.w3.org/2000/svg" xmlns="http://www.w3.org/2000/svg" viewBox="0 0 1000 1000">
  <path transform="translate(-9000,1947.6378)" style="fill:#000000;fill-opacity:1;stroke:none" d="m 9000,-1747.6378 0,40 320,0 0,240 -90,0 c -20,0 -30,-10 -30,-40 0,-20 20,-40 40,-40 l 0,-40 -200,0 0,40 c 20,0 40,20 40,40 0,80 45.5524,79.9051 120,80 l 120,0 0,160 c 0,50 -30,80 -80,80 l 0,40 280,0 0,-40 c -50,0 -80,-30 -80,-80 l 0,-160 90,0 c 20,0 30,10 30,40 0,20 -20,40 -40,40 l 0,40 200,0 0,-40 c -20,0 -40,-20 -40,-40 0,-80 -45.5524,-79.9052 -120,-80 l -120,0 0,-240 320,0 0,-40 -760,0 z m 115.1562,395.1562 -84.8437,84.8438 84.8437,84.8438 84.8438,-84.8438 -84.8438,-84.8438 z"/>
</svg>
