<?xml version="1.0" encoding="UTF-8"?>
<svg xmlns:svg="http://www.w3.org/2000/svg" xmlns="http://www.w3.org/2000/svg" viewBox="0 0 1000 1000">
  <path transform="translate(-3000,1947.6378)" style="fill:#000000;fill-opacity:1;stroke:none" d="m 3760,-1927.6378 c -80,0 -200,0 -200,140 l 0,20 c 0,25 -15,40 -40,40 l 0,40 200,0 0,-40 c -25,0 -40,-15 -40,-40 l 0,-20 c 0,-80 0,-100 80,-100 100,0 100,220 0,220 -260,0 -260,300 0,300 80,0 200,0 200,-140 l 0,-20 c 0,-25 15,-40 40,-40 l 0,-40 -200,0 0,40 c 25,0 40,15 40,40 l 0,20 c 0,80 0,100 -80,100 -100,0 -100,-220 0,-220 260,0 260,-300 0,-300 z m -100,590 c -33.1371,0 -60,26.8629 -60,60 l 0,70 c 0,33.1371 26.8629,60 60,60 33.1371,0 60,-26.8629 60,-60 l 0,-70 c 0,-33.1371 -26.8629,-60 -60,-60 z m 210,0 c -33.1371,0 -60,26.8629 -60,60 l 0,70 c 0,33.1371 26.8629,60 60,60 33.1371,0 60,-26.8629 60,-60 l 0,-70 c 0,-33.1371 -26.8629,-60 -60,-60 z"/>
</svg>
