<?xml version="1.0" encoding="UTF-8"?>
<svg xmlns:svg="http://www.w3.org/2000/svg" xmlns="http://www.w3.org/2000/svg" viewBox="0 0 1000 1000">
  <path transform="translate(0,1947.6378)" style="fill:#000000;fill-opacity:1;stroke:none" d="m 620,-1337.6378 c -33.13708,0 -60,26.8629 -60,60 l 0,70 c 0,33.1371 26.86292,60 60,60 33.13708,0 60,-26.8629 60,-60 l 0,-70 c 0,-33.1371 -26.86292,-60 -60,-60 z m 210,0 c -33.13708,0 -60,26.8629 -60,60 l 0,70 c 0,33.1371 26.86292,60 60,60 33.13708,0 60,-26.8629 60,-60 l 0,-70 c 0,-33.1371 -26.86292,-60 -60,-60 z"/>
</svg>
