<?xml version="1.0" encoding="UTF-8"?>
<svg xmlns:svg="http://www.w3.org/2000/svg" xmlns="http://www.w3.org/2000/svg" viewBox="0 0 1000 1000">
  <path transform="translate(-15000,947.6378)" style="fill:#000000;fill-opacity:1;stroke:none" d="m 15000,-747.63782 0,40 480,0 0,280 c 0,180 -60,240 -140,240 -75.141,0 -132.637,-54.715 -139.344,-208.84375 3.583,-23.14368 21.459,-31.15625 39.344,-31.15625 l 0,-40 -200,0 0,40 c 18.096,0 36.201,16.37843 43.188,49.125 0.01,0.0525 0.02,0.10371 0.03,0.15625 19.88,148.87173 130.131,230.71875 256.782,230.71875 140,0 260,-100 260,-280 l 0,-280 40,0 0,-40 -640,0 z"/>
</svg>
