<?xml version="1.0" encoding="UTF-8"?>
<svg xmlns:svg="http://www.w3.org/2000/svg" xmlns="http://www.w3.org/2000/svg" viewBox="0 0 1000 1000">
  <path transform="translate(-17000,947.6378)" style="fill:#000000;fill-opacity:1;stroke:none" d="m 17000,-747.63782 0,40 280,0 0,44.6875 c -318.815,51.68937 -298.818,515.31249 60,515.3125 180,0 260,-60 260,-200 l 0,-20 c 0,-25 15,-40 40,-40 l 0,-40 -200,0 0,40 c 25,0 40,15 40,40 l 0,20 c 0,80 0,160 -140,160 -200,0 -200,-440 0,-440 l 60,0 0,-80 280,0 0,-40 -680,0 z"/>
</svg>
