<?xml version="1.0" encoding="UTF-8"?>
<svg xmlns:svg="http://www.w3.org/2000/svg" xmlns="http://www.w3.org/2000/svg" viewBox="0 0 1000 1000">
  <path transform="translate(-1000,-52.3622)" style="fill:#000000;fill-opacity:1;stroke:none" d="m 1554.829,757.23703 c -16.2429,-0.0664 -32.5058,3.78686 -46.9059,11.64688 -40.4526,19.48595 -85.151,38.90969 -109.7566,78.63637 -13.0884,19.30259 -12.5632,44.2644 -4.8285,65.50377 7.8479,20.52736 23.5836,39.2306 43.2977,49.58548 -12.0148,10.0948 -22.574,21.73129 -30.404,35.55083 -15.8436,25.55854 -9.1848,60.49634 12.7878,80.33434 25.1855,27.3524 65.1821,36.1654 100.7362,28.3877 41.4258,-9.1786 78.6802,-31.2167 113.6566,-54.5202 25.6922,-15.572 46.9183,-37.9773 60.5426,-64.81404 -27.2747,12.13161 -54.5453,24.26824 -81.82,36.39984 -5.9724,10.6826 -13.2738,20.5389 -21.6755,29.3693 -22.5067,5.5445 -46.2372,5.5622 -67.9976,-2.8918 -23.4703,-10.7537 -47.486,-32.725 -44.7039,-60.88751 1.415,-10.36192 5.3524,-19.7914 10.9306,-28.28152 8.6759,-0.82259 17.4201,-1.33606 26.053,-2.38774 21.7542,-15.80535 43.4842,-31.60463 65.2384,-47.40998 -14.804,2.94488 -31.7836,7.18976 -60.569,4.80202 -31.1928,-9.66082 -54.4955,-42.90922 -51.2304,-75.77107 1.894,-11.26929 6.805,-21.65721 13.5571,-30.82843 21.1757,-1.75322 42.6246,5.42265 60.1976,17.35094 18.8585,12.55467 38.6916,30.55753 40.4855,54.54668 l 81.1038,-41.30797 c -6.3013,-30.13213 -30.2208,-53.28262 -56.2447,-67.81192 -15.6585,-10.01665 -34.0421,-15.12673 -52.4508,-15.20197 z"/>
</svg>
