<?xml version="1.0" encoding="UTF-8"?>
<svg xmlns:svg="http://www.w3.org/2000/svg" xmlns="http://www.w3.org/2000/svg" viewBox="0 0 1000 1000">
  <path transform="translate(-20000,-52.3622)" style="fill:#000000;fill-opacity:1;stroke:none" d="m 20326.406,882.36218 c -15.454,0.14014 -31.048,3.29163 -45.75,7.6875 -25.423,6.02422 -48.099,19.39912 -72.5,28.125 -25.946,20.40324 -51.898,40.81551 -77.844,61.21875 -13.891,9.60074 1.166,2.20282 9.688,-0.6875 35.081,-16.28102 71.762,-32.46044 111.062,-33.40625 26.89,0.009 48.761,16.86385 71.344,29.0625 24.481,13.17416 53.889,19.16867 80.781,9.875 52.365,-20.89382 101.444,-50.49822 144.375,-87.09375 -23.746,9.57286 -47.502,19.14589 -71.25,28.71875 -40.062,6.5 -74.166,-17.22608 -110.031,-35.53125 -12.708,-5.84952 -26.239,-8.09241 -39.875,-7.96875 z"/>
</svg>
