<?xml version="1.0" encoding="UTF-8"?>
<svg xmlns:svg="http://www.w3.org/2000/svg" xmlns="http://www.w3.org/2000/svg" viewBox="0 0 1000 1000">
  <path transform="translate(-13000,-52.3622)" style="fill:#000000;fill-opacity:1;stroke:none" d="m 13099.906,262.36218 -99.906,70 275.469,0 c 0.393,21.75994 0.08,83.41525 -0.125,115.28125 -16.157,12.5517 -32.581,24.7205 -50.563,34.625 -38.415,21.7304 -68.695,56.8444 -84.781,97.9375 -19.31,43.6171 -22.473,94.9237 -3.375,139.1875 17.884,50.8371 67.816,81.18015 116.687,96.96875 47.796,14.0963 101.371,10.4732 144.844,-14.9375 64.214,-31.6899 129.989,-69.32015 168.469,-132.03125 34.114,-46.8643 37.309,-113.0782 8,-163.0625 -24.682,-43.5494 -71.05,-69.1846 -118.156,-81.625 -26.386,-7.7808 -53.657,-13.70925 -81.188,-15.34375 -0.04,-25.7711 -0.309,-60.75605 -0.469,-77 l 265.188,0 100,-70 -640.094,0 z m 185.719,207.875 c 50.998,2.2082 102.638,13.98375 147.531,38.78125 45,25.4191 73.417,77.75555 67.156,129.46875 -4.986,45.8314 -34.965,84.5174 -66.593,116.0625 -19.144,11.598 -44.597,8.6691 -66.407,7.625 -39.201,-3.95 -76.867,-21.28995 -106.812,-46.59375 -37.567,-33.6514 -50.398,-89.69695 -39.062,-137.84375 10.412,-41.0502 30.788,-80.55 64.187,-107.5 z"/>
</svg>
