<?xml version="1.0" encoding="UTF-8"?>
<svg xmlns:svg="http://www.w3.org/2000/svg" xmlns="http://www.w3.org/2000/svg" viewBox="0 0 1000 1000">
  <path transform="translate(-13000,947.6378)" style="fill:#000000;fill-opacity:1;stroke:none" d="m 13099.906,-737.63782 -99.906,70 334.031,0 c 0.393,21.7599 0.08,83.41521 -0.125,115.28125 -16.157,12.5517 -32.58,24.7205 -50.562,34.625 -38.415,21.7304 -68.695,56.8444 -84.782,97.9375 -19.308,43.617 -22.472,94.9237 -3.374,139.1875 17.884,50.8371 67.816,81.18015 116.687,96.96875 47.795,14.0963 101.371,10.4732 144.844,-14.9375 64.214,-31.6899 129.989,-69.32015 168.469,-132.03125 34.112,-46.86434 37.307,-113.0782 8,-163.0625 -24.684,-43.5494 -71.051,-69.1846 -118.157,-81.625 -26.386,-7.78084 -53.656,-13.70925 -81.187,-15.34375 -0.04,-25.7711 -0.309,-60.7561 -0.469,-77 l 265.187,0 100,-70 -698.656,0 z m 33.906,110 -93.906,59.40625 c 24.454,19.1012 54.443,44.08995 73,62.71875 l 92.813,-57.0625 c -21.031,-20.669 -47.033,-44.2603 -71.907,-65.0625 z m 210.376,97.875 c 50.996,2.2082 102.638,13.98375 147.531,38.78125 45,25.4191 73.416,77.75565 67.156,129.46875 -4.986,45.83144 -34.966,84.5174 -66.594,116.0625 -19.144,11.598 -44.597,8.6691 -66.406,7.625 -39.202,-3.95 -76.868,-21.28995 -106.813,-46.59375 -37.566,-33.6514 -50.398,-89.69705 -39.062,-137.84375 10.412,-41.0502 30.789,-80.55 64.188,-107.5 z"/>
</svg>
