<?xml version="1.0" encoding="UTF-8"?>
<svg xmlns:svg="http://www.w3.org/2000/svg" xmlns="http://www.w3.org/2000/svg" viewBox="0 0 1000 1000">
  <path transform="translate(-22000,-52.3622)" style="fill:#000000;fill-opacity:1;stroke:none" d="m 22789.031,671.51843 c -1.642,-0.002 -3.317,0.0806 -5,0.28125 -5.651,1.19729 -11.446,2.42756 -16.531,5.34375 -30.847,17.69194 -73.818,35.20742 -103.375,62.09375 -5.248,5.51715 -10.73,11.47049 -11.563,19.375 l 42.969,-20.84375 c -3.434,2.00124 -5.712,3.36682 -9.375,5.5 1.215,-0.69922 2.831,-1.62416 3.656,-2.0625 4.982,-2.64636 4.957,-2.47131 10.188,-4.53125 11.477,-4.2282 22.156,-1.31382 32.937,3.25 11.643,5.61157 21.378,14.28434 31.282,22.4375 11.916,10.55362 25.064,19.52716 38.843,27.4375 10.307,5.02239 5.085,2.68495 15.719,6.9375 l 87.531,-59 c -10.004,-3.33887 -5.083,-1.45381 -14.75,-5.59375 -13.42,-7.25337 -26.27,-15.58502 -37.593,-25.875 -10.434,-8.81128 -20.707,-18.06977 -32.626,-24.84375 -10.262,-5.19823 -20.815,-9.89131 -32.312,-9.90625 z"/>
</svg>
