<?xml version="1.0" encoding="UTF-8"?>
<svg xmlns:svg="http://www.w3.org/2000/svg" xmlns="http://www.w3.org/2000/svg" viewBox="0 0 1000 1000">
  <path transform="translate(-19000,-52.3622)" style="fill:#000000;fill-opacity:1;stroke:none" d="m 19099.906,262.36218 -99.906,70 120,0 0,250 c 63.464,-30.03828 110.294,-63.16172 170,-100 33.65,-20.17104 66.589,-44.88394 97.594,-68.78125 21.197,-4.37686 43.624,-2.55834 61.406,9.875 29.851,26.93259 31.099,70.44012 31,108.90625 l -2.188,298.59375 102.188,-58.59375 0,-220 c 0.996,-60.05328 0,-120 -20.125,-165.34375 -12.998,-26.14591 -41.188,-40.34131 -69.594,-40.25 -37.382,-1.33928 -70.043,22.48061 -97.781,36.9375 -52.5,38.65625 -129.562,88.65625 -174.25,119.375 l 1.75,-170.71875 400,0 100,-70 z"/>
</svg>
