<?xml version="1.0" encoding="UTF-8"?>
<svg xmlns:svg="http://www.w3.org/2000/svg" xmlns="http://www.w3.org/2000/svg" viewBox="0 0 1000 1000">
  <path transform="translate(-12000,-52.3622)" style="fill:#000000;fill-opacity:1;stroke:none" d="m 12099.906,262.36218 -99.906,70 c 106.646,0 213.292,0 319.938,0 -0.01,50.05234 0.02,101.03387 0.03,151.75 -7.555,2.03292 -15.089,4.00996 -22.625,5.84375 -23.839,6.56951 -53.921,10.96945 -70.406,-12.3125 -11.418,-16.81675 -12.113,-38.7579 -11.5,-58.53125 -30.181,15.37727 -60.352,30.74773 -90.532,46.125 -16.564,4.29888 -4.652,25.54811 -4.906,37.46875 3.248,31.28222 32.248,58.55412 64.219,56.65625 46.508,-4.65433 90.381,-22.09584 135.75,-32.59375 0.02,101.79855 0.03,203.97106 0.03,305.59375 l 100,-60 c 0.709,-85.25224 0.04,-171.06017 -0.312,-256.6875 18.998,1.04088 37.885,4.06655 56.312,9.25 45.699,12.51585 85.715,44.07411 106.625,86.8125 20.838,-14.22923 67.377,-49.375 88.844,-64.3125 -30.128,-54.6566 -90.155,-87.11634 -151.031,-93.46875 -34.114,-5.1776 -67.693,-2.08052 -100.907,4.5 -0.06,-42.14336 0.04,-84.22071 0.531,-126.09375 93.313,0 186.627,0 279.94,0 l 100,-70 c -233.365,0 -466.731,0 -700.096,0 z"/>
</svg>
