<?xml version="1.0" encoding="UTF-8"?>
<svg xmlns:svg="http://www.w3.org/2000/svg" xmlns="http://www.w3.org/2000/svg" viewBox="0 0 1000 1000">
  <path transform="translate(-21000,947.6378)" style="fill:#000000;fill-opacity:1;stroke:none" d="m 21785.376,-893.41907 c -59.292,0.0355 -110.598,34.82898 -159.219,64.84375 -26.155,14.57074 -51.098,33.3856 -64.438,61 -16.324,26.48188 -17.213,58.17499 -16.906,88.28125 l 80.281,-40.875 c 10.483,-4.10062 19.503,-8.94548 14.906,-22.0625 -2.147,-30.56583 9.355,-60.58651 29.032,-83.65625 24.118,-6.63222 49.345,-8.26439 72.968,1.25 40.379,15.13431 66.307,59.39704 61.094,101.90625 -2.869,20.8955 -14.07,37.93809 -28.781,51.9375 -31.538,13.8913 -62.467,29.12596 -92.25,46.53125 -36.974,22.72549 -79.015,44.118 -99.687,84.34375 -11.892,25.4941 -3.491,54.50142 11.374,76.78125 26.1,37.49997 73.489,62.68119 119.688,55.5 44.176,-10.3387 83.488,-35.33073 120.781,-60.40625 37.347,-21.95718 62.441,-59.02994 78.563,-98.40625 l -95.719,43.75 c -8.411,19.62702 -19.622,38.23732 -33.656,54.28125 -29.068,2.48553 -58.935,-9.23941 -80.813,-28.59375 -21.279,-18.2554 -38.742,-48.81937 -27.718,-77.125 6.197,-14.00519 15.677,-25.54565 26.812,-35.53125 2.098,-0.8687 4.082,-1.67519 5.656,-2.21875 55.532,-24.03715 109.354,-53.68581 156.532,-91.75 29.119,-25.14144 41.504,-67.29319 29.593,-104.03125 -12.01,-47.08499 -56.251,-84.64785 -105.281,-85.71875 -0.945,-0.0171 -1.871,-0.0317 -2.812,-0.0313 z"/>
</svg>
