<?xml version="1.0" encoding="UTF-8"?>
<svg xmlns:svg="http://www.w3.org/2000/svg" xmlns="http://www.w3.org/2000/svg" viewBox="0 0 1000 1000">
  <path transform="translate(-20000,-52.3622)" style="fill:#000000;fill-opacity:1;stroke:none" d="m 20099.906,262.36218 -99.906,70 280,0 0,71.1875 c -5.368,2.91443 -10.722,5.87045 -16.031,8.875 -110.552,65.43639 -219.519,154.39125 -172.719,285.46875 45.387,95.64512 172.538,136.69588 260.688,114.46875 72.365,-22.79742 138.719,-62.71969 197.124,-110.78125 43.918,-39.83679 87.23,-84.24697 107.813,-141.09375 l -103.594,47.8125 c -28.281,50.5 -63.281,85.5 -108.156,129.625 -64.541,14.35672 -138.101,-7.19431 -186.687,-34.90625 -54.097,-31.51781 -75.293,-101.31945 -61.907,-160.25 13.366,-47.24679 47.457,-83.10448 86.313,-111.75 30.49,-14.93611 61,-29.87634 91.498,-44.81255 l 0.406,-53.84375 325.252,5e-5 100,-70 -700.096,-5e-5 z"/>
</svg>
