<?xml version="1.0" encoding="UTF-8"?>
<svg xmlns:svg="http://www.w3.org/2000/svg" xmlns="http://www.w3.org/2000/svg" viewBox="0 0 1000 1000">
  <path transform="translate(0,-52.3622)" style="fill:#000000;fill-opacity:1;stroke:none" d="m 99.90625,262.36218 -99.90625,70 390.375,0 c 6.60446,70.26614 -3.70191,125.7522 -75.4375,185 -29.53559,10.16896 -73.70352,-12.2139 -98,-36.625 L 120,542.33093 c 39.20136,31.25074 79.48159,69.19703 110.03125,100.81255 52.24825,46.56643 96.66661,100.86434 149.78125,146.4375 24.52493,18.19902 50.64021,33.97799 81.03125,39.03125 2.95986,0.0203 6.44769,0.0388 9.90625,0.0625 l 93.71875,-69.78125 c -2.81299,1.99042 -4.01287,2.45402 -9.09375,2.3125 -30.16829,-0.24143 -56.87694,-15.64523 -82.4375,-30.3125 -57.26349,-40.33759 -105.04607,-92.32521 -154.71875,-141.34375 -4.60768,-5.15694 -2.00974,-7.8067 -5.34375,-11.53125 104.64971,-38.3003 192.41863,-118.21287 197.84375,-245.65625 L 600,332.36218 700,262.36223 c -224.99998,-3.7e-4 -375.09386,5.5e-4 -600.09375,-5e-5 z"/>
</svg>
