<?xml version="1.0" encoding="UTF-8"?>
<svg xmlns:svg="http://www.w3.org/2000/svg" xmlns="http://www.w3.org/2000/svg" viewBox="0 0 1000 1000">
  <path transform="translate(-8000,-52.3622)" style="fill:#000000;fill-opacity:1;stroke:none" d="m 8550.3435,62.362183 c -9.8986,-0.028 -20.0272,1.33775 -29.3438,2.28125 -59.5753,9.1532 -112.1585,44.990297 -152.3437,88.687497 -7.5723,8.66187 -14.4203,16.64489 -20.8437,24.28125 -0.013,-4.31425 -0.02,-8.62324 -0.031,-12.9375 -0.076,-13.16021 -0.043,-26.37471 -1.0937,-39.5 -1.6829,-12.39235 -4.8961,-24.22364 -13.5938,-33.687497 -10.4262,-10.083162 -22.0387,-17.265205 -36.9375,-18.1875 -17.6537,-1.171478 -34.861,0.658683 -51.6563,6.5625 -49.6038,18.265431 -94.9298,49.140597 -137.2187,80.874997 -14.5435,12.90969 -28.0109,27.01002 -38.75,43.3125 -10.2552,15.10922 -19.992,30.5615 -28.5313,46.71875 -7.0824,13.01065 -14.5321,25.79686 -21.9374,38.625 -4.0852,7.53213 -7.6145,15.93904 -13.0626,22.5 l 98.4688,-42.4375 c 2.7069,-8.19364 7.1574,-15.86517 11.4062,-23.375 7.6354,-12.57088 14.5086,-25.58305 21.4688,-38.53125 8.5023,-15.8249 18.3886,-30.81381 28.6562,-45.53125 6.2659,-8.80769 13.3946,-16.9112 21.125,-24.40625 7.9685,-1.58296 16.0839,-2.40144 24.3126,-2.46875 12.6273,-0.14038 23.0769,3.92482 32.4374,12.125 7.2115,7.45895 8.936,17.20377 9.7188,27.15625 0.6777,12.78341 0.7518,25.57785 0.9375,38.375 0.2443,16.33472 0.3535,32.66379 0.4375,49 0.1517,7.89763 0.2049,31.32871 0,40.5625 l 115,-35 c 30.3441,-52.6007 47.4694,-94.1062 95.9062,-145 48.8401,19.7866 63.3655,78.3548 67.5,140 l -18.4065,0 c -33.3032,23.3319 -66.6032,46.6674 -99.9062,70 l 119.8437,0 c -0.034,164.3605 0.063,333.3701 0.063,500 l 100,-60 c 1.2157,-146.2771 -1.6498,-294.2359 0.063,-440 l 40.0313,0 100,-70 -139.1563,0 c 0,-17.6569 -0.3373,-35.31875 -1.4687,-52.96875 -2.7312,-46.545 -9.2392,-98.3315 -44.3126,-132.562497 -10.3273,-11.4359 -24.3151,-14.42745 -38.7822,-14.46875 z M 8236.031,101.39343 c -0.084,0.0505 -0.069,0.0689 -0.2187,0.15625 -5.0651,2.9512 -9.9373,5.77637 -14.5938,8.46875 2.3207,-1.48638 4.6371,-2.90472 6.5625,-4.03125 1.9754,-1.15578 6.9824,-3.92945 8.25,-4.59375 z"/>
</svg>
