<?xml version="1.0" encoding="UTF-8"?>
<svg xmlns:svg="http://www.w3.org/2000/svg" xmlns="http://www.w3.org/2000/svg" viewBox="0 0 1000 1000">
  <path transform="translate(-8000,947.6378)" style="fill:#000000;fill-opacity:1;stroke:none" d="m 8311.0938,-937.20031 c -3.0843,0.017 -6.1872,0.28665 -9.2813,0.84375 -101.8074,18.71859 -197.0429,129.87284 -301.8125,218.71874 l 30,20 c 60.0675,-57.8125 170.005,-159.99995 205.0938,-176.59375 26.0279,-1.1468 51.6754,24.84215 55.0312,47.90625 l 0,130 100,0 0,-93.71875 c 43.7801,-39.6263 85.6772,-75.0644 104.9688,-84.1875 26.0279,-1.1468 51.6754,24.84215 55.0312,47.90625 l 0,88.6875 -20.0625,0 c -33.3029,23.3319 -66.6033,46.6674 -99.9063,70 l 119.8438,0 c -0.03,164.3605 0.063,333.3701 0.063,500 l 100,-60 c 1.2161,-146.2771 -1.6479,-294.2359 0.063,-440 l 40.0312,0 100,-70 -140.0312,0 0,-65.09375 c -0.12,-64.9062 -3.8234,-133.22294 -79.0312,-134.46874 -3.0843,0.017 -6.1872,0.28685 -9.2813,0.84375 -58.5914,10.77269 -115.0065,52.18119 -172.3135,102.31249 -2.5453,-53.8469 -15.3049,-102.11094 -78.4062,-103.15624 z"/>
</svg>
