<?xml version="1.0" encoding="UTF-8"?>
<svg xmlns:svg="http://www.w3.org/2000/svg" xmlns="http://www.w3.org/2000/svg" viewBox="0 0 1000 1000">
  <path transform="translate(-15000,-52.3622)" style="fill:#000000;fill-opacity:1;stroke:none" d="m 15099.906,262.36218 -99.906,70 243.281,0 c -50.083,29.01783 -99.035,71.97049 -124.844,115.1875 31.896,-14.43038 63.793,-28.8509 95.688,-43.28125 36.019,-58.48946 102.044,-75.23362 162.25,-69.375 45.558,5.92823 96.137,36.96323 95.875,88.09375 -27.375,79.375 -87.375,119.375 -183.719,165.28125 l 20.281,14.21875 c 35.81,-13.14062 65.088,-23.08325 91.094,-30.125 55.5,39.26759 97.661,124.00592 58.312,183.1875 -92.565,40.0399 -237.3,-2.01242 -253.687,-113.25 -28.208,15.02656 -56.417,30.06719 -84.625,45.09375 -0.09,78.85425 62.265,133.61018 145.844,147.03125 133.73,21.4742 352.59,-84.20017 289.125,-245.5 -10.056,-32.14083 -31.372,-60.85465 -59.375,-79 54.5,-37.5625 93.032,-116.42853 58.156,-177.5625 l 46.25,0 100,-70 z"/>
</svg>
