<?xml version="1.0" encoding="UTF-8"?>
<svg xmlns:svg="http://www.w3.org/2000/svg" xmlns="http://www.w3.org/2000/svg" viewBox="0 0 1000 1000">
  <path transform="translate(-15000,947.6378)" style="fill:#000000;fill-opacity:1;stroke:none" d="m 15099.906,-737.63782 -99.906,70 249.156,0 c -6.493,3.78231 -12.907,7.63556 -19.218,11.5625 -43.87,24.48071 -80.325,60.25954 -105.626,103.625 31.897,-14.43038 63.793,-28.8509 95.688,-43.28125 13.702,-16.74936 26.609,-35.21288 41.969,-51.09375 38.67,-13.99453 79.158,-22.77696 120.281,-18.28125 45.558,5.92823 96.137,36.96323 95.875,88.09375 -27.375,79.375 -87.375,119.375 -183.719,165.28125 l 20.282,14.21875 c 36.093,-15.125 66.093,-30.125 91.093,-30.125 51.007,23.81778 74.649,91.97732 74.157,136.5 -0.632,18.77417 -7.655,34.5888 -15.844,46.6875 -13.357,6.82294 -33.336,16.79832 -115.375,17.15625 -69.373,-4.89711 -130.12,-60.99685 -138.313,-130.40625 -28.208,15.02656 -56.417,30.06719 -84.625,45.09375 -0.09,78.85425 62.906,130.09294 145.844,147.03125 92.838,3.18363 183.867,-33.81884 257.563,-88.71875 52.414,-32.91124 53.045,-105.13074 31.562,-156.78125 -10.056,-32.14083 -31.372,-60.85465 -59.375,-79 45.135,-31.62998 77.168,-86.6667 69.469,-142.8125 -1.317,-12.83716 -5.321,-24.42963 -11.313,-34.75 l 46.25,0 100,-70 z m 34,220.59375 -93.906,59.40625 c 24.454,19.10121 54.443,44.08992 73,62.71875 l 92.812,-57.0625 c -21.031,-20.66902 -47.033,-44.26025 -71.906,-65.0625 z"/>
</svg>
