<?xml version="1.0" encoding="UTF-8"?>
<svg xmlns:svg="http://www.w3.org/2000/svg" xmlns="http://www.w3.org/2000/svg" viewBox="0 0 1000 1000">
  <path transform="translate(-15000,947.6378)" style="fill:#000000;fill-opacity:1;stroke:none" d="m 15099.906,-737.63782 -99.906,70 243.281,0 c -50.083,29.0178 -99.035,71.9705 -124.843,115.1875 31.896,-14.4304 63.792,-28.85085 95.687,-43.28125 36.019,-58.4894 102.044,-75.2336 162.25,-69.375 45.558,5.9283 96.137,36.96325 95.875,88.09375 -27.375,79.375 -87.375,119.37505 -183.719,165.28125 l 20.281,14.21875 c 35.81,-13.1406 65.088,-23.0833 91.094,-30.125 55.5,39.2676 97.662,124.00592 58.313,183.1875 -92.565,40.0399 -237.301,-2.01242 -253.688,-113.25 -28.208,15.02656 -56.417,30.06719 -84.625,45.09375 -0.09,78.85425 62.265,133.61018 145.844,147.03125 133.73,21.4742 352.59,-84.20019 289.125,-245.5 -10.056,-32.1408 -31.372,-60.8547 -59.375,-79 54.5,-37.5625 93.032,-116.4285 58.156,-177.5625 l 46.25,0 100,-70 -600,0 z m 34,220.59375 -93.906,59.40625 c 24.454,19.10121 54.443,44.08992 73,62.71875 l 92.812,-57.0625 c -21.031,-20.66902 -47.033,-44.26025 -71.906,-65.0625 z"/>
</svg>
