<?xml version="1.0" encoding="UTF-8"?>
<svg xmlns:svg="http://www.w3.org/2000/svg" xmlns="http://www.w3.org/2000/svg" viewBox="0 0 1000 1000">
  <path transform="translate(-4000,947.6378)" style="fill:#000000;fill-opacity:1;stroke:none" d="m 4311.0937,-937.20032 c -3.0842,0.0166 -6.1872,0.28684 -9.2813,0.84375 -101.8074,18.71875 -197.0428,129.87282 -301.8124,218.71875 l 30,20 c 60.0675,-57.8125 170.0049,-160 205.0937,-176.59375 26.0279,-1.14683 51.6755,24.84221 55.0313,47.90625 l 0,88.6875 -20.0626,0 c -33.3029,23.3319 -66.6032,46.6674 -99.9062,70 l 119.8438,0 c -0.03,164.3605 0.062,333.3701 0.062,500 l 100,-60 c 1.2161,-146.2771 -1.6469,-294.2359 0.063,-440 l 40.0312,0 100,-70 -140.0312,0 0,-65.09375 c -0.12,-64.90625 -3.8235,-133.22292 -79.0313,-134.46875 z"/>
</svg>
