<?xml version="1.0" encoding="UTF-8"?>
<svg xmlns:svg="http://www.w3.org/2000/svg" xmlns="http://www.w3.org/2000/svg" viewBox="0 0 1000 1000">
  <path transform="translate(-2000,-52.3622)" style="fill:#000000;fill-opacity:1;stroke:none" d="m 2336.2812,62.362189 c -9.8986,-0.02829 -20.0273,1.337686 -29.3438,2.28125 -59.5753,9.153197 -112.1585,44.990281 -152.3437,88.687491 -49.9428,57.12866 -70.9908,87.58029 -114.6875,149.03125 l 115,-35 c 30.3441,-52.60072 47.4693,-94.1062 95.9062,-145 48.84,19.7866 63.3654,78.35484 67.5,140 l -18.4062,0 c -33.3032,23.33192 -66.6031,46.66744 -99.9062,70 l 119.8437,0 c -0.034,164.36051 0.063,333.37013 0.063,500 l 100,-60 c 1.2157,-146.27706 -1.6493,-294.23587 0.063,-440 l 40.0303,0 100,-70 -139.1553,0 c 0,-17.65683 -0.3372,-35.31875 -1.4687,-52.96875 -2.7311,-46.54505 -9.2392,-98.33158 -44.3126,-132.562491 -10.3263,-11.435974 -24.3151,-14.427404 -38.7822,-14.46875 z"/>
</svg>
