<?xml version="1.0" encoding="UTF-8"?>
<svg xmlns:svg="http://www.w3.org/2000/svg" xmlns="http://www.w3.org/2000/svg" viewBox="0 0 1000 1000">
  <path transform="translate(-17000,947.6378)" style="fill:#000000;fill-opacity:1;stroke:none" d="m 17099.906,-737.63782 -99.906,70 469.094,0 -3.126,200.4375 c -88.75,6.63833 -171.286,2.67993 -248.656,-8.34375 -31.851,23.29816 -63.751,46.69629 -97.406,67.40625 -0.456,84.28996 56.875,193.72471 131.375,214.71875 52.206,15.60907 108.388,4.45474 157.656,-16 48.104,-24.97457 100.259,-45.4902 139.907,-83.65625 22.478,-20.64024 29.207,-40.37688 29.624,-69.5625 l 0,-305 41.532,0 95,-70 z m 100,110 -93.906,59.40625 c 24.454,19.10121 54.443,44.08992 73,62.71875 l 92.812,-57.0625 c -21.032,-20.66902 -47.033,-44.26025 -71.906,-65.0625 z m 265.719,182.90625 -2.063,132.0625 c -0.853,20.57813 -4.39,31.91234 -12.656,44.25 -41.724,10.36305 -86.503,11.03937 -125.219,-8.875 -41.466,-25.88391 -65.106,-71.31144 -82.812,-115.40625 53.751,2.12314 107.544,2.77877 160.843,-5.4375 z"/>
</svg>
