<?xml version="1.0" encoding="UTF-8"?>
<svg xmlns:svg="http://www.w3.org/2000/svg" xmlns="http://www.w3.org/2000/svg" viewBox="0 0 1000 1000">
  <path transform="translate(-9000,-52.3622)" style="fill:#000000;fill-opacity:1;stroke:none" d="m 9099.2187,262.36218 -99.9062,70 120.6875,0 0.9687,185.125 c -1.2314,31.69475 0.1644,66.15884 21.4376,91.78125 20.6555,26.3619 57.5144,29.29303 87.8124,21.53125 52.6177,-19.44664 96.7873,-45.40692 139.0938,-71 l 0,272.5625 100,-60 0,-75 c 100,15 212.4532,-65.94528 214.75,-141.75 -3.289,-39.35048 -15.6725,-80.89107 -44.5,-109.1875 -53.8526,-44.45613 -122.3111,-1.43692 -170.25,25.28125 l 0,-139.34375 250.6875,0 100,-70 z m 127.3126,70 142.7812,0 0,200.96875 c -28.5221,18.7925 -55.1136,33.30699 -87.8125,32.28125 -32.773,1.15124 -53.0553,-31.49502 -55.2813,-60.875 z m 286.875,163.75 c 38.2183,8.76411 54.7351,49.85353 62.7812,84.34375 4.5346,18.48552 4.6487,39.74701 -1.3125,58.40625 -20.5625,48.5 -60.5625,58.5 -105.5625,53.5 l 0,-191.59375 c 15.5822,-4.61915 29.4077,-6.30094 44.0938,-4.65625 z"/>
</svg>
