<?xml version="1.0" encoding="UTF-8"?>
<svg xmlns:svg="http://www.w3.org/2000/svg" xmlns="http://www.w3.org/2000/svg" viewBox="0 0 1000 1000">
  <path transform="translate(-21000,-52.3622)" style="fill:#000000;fill-opacity:1;stroke:none" d="m 21260.438,56.393433 c -5.171,-0.07409 -10.383,0.244945 -15.594,0.96875 -51.198,21.830015 -75.079,28.774768 -103,56.937497 -15.351,14.85166 -21.769,36.1612 -21.938,57.09375 l 0,90.96875 -20,0 c -33.302,23.33192 -66.603,46.66744 -99.906,70 l 119.844,0 c -0.03,164.36051 0.06,333.37013 0.06,500 l 100,-60 c 1.217,-146.27706 -1.644,-294.23587 0.06,-440 l 40.036,0 100,-70 -140.099,0 0,-36.53125 c 0.578,-32.45893 -2.1,-65.03848 0,-97.4375 4.453,1.6953 7.521,3.61258 11.688,5.6875 41.348,22.04806 79.247,49.90718 117.344,77.03125 l 91.187,-57.8125 c -33.209,-24.17273 -66.686,-48.06098 -101.687,-69.593747 -23.039,-15.505824 -50.075,-26.912391 -78,-27.3125 z"/>
</svg>
