<?xml version="1.0" encoding="UTF-8"?>
<svg xmlns:svg="http://www.w3.org/2000/svg" xmlns="http://www.w3.org/2000/svg" viewBox="0 0 1000 1000">
  <path transform="translate(-6000,-52.3622)" style="fill:#000000;fill-opacity:1;stroke:none" d="m 6435.8663,1012.7932 c -38.9146,23.5841 -82.71,49.7612 -130.1737,40.8711 -43.1772,-6.9309 -70.2963,-50.1102 -73.4634,-91.23896 -8.829,-25.76667 26.5145,-26.68046 41.595,-38.80235 20.7381,-10.5946 41.4762,-21.1892 62.2143,-31.78381 -1.8133,35.87051 13.22,78.39794 50.2446,90.523 35.6503,11.18069 49.7936,1.42817 103.7169,-21.65468 l 96.2831,-38.34532 c -60,40 -80,50 -150.4168,90.43102 z m 108.7988,-235.44729 c -21.424,14.81202 -30.5852,41.87611 -34.2889,66.5882 -2.7358,20.76594 6.1391,42.34045 24.2566,53.45275 29.5392,21.88815 70.3672,-5.02468 81.5498,-12.12717 l 6.3161,15.60723 c -45.3078,26.24353 -87.4373,62.00162 -139.9883,72.40809 -31.4292,4.55403 -61.597,-17.41742 -72.9867,-45.83631 -11.0358,-34.47438 0.2891,-72.72038 20.3722,-101.56562 29.7215,-38.55667 76.869,-59.06605 122.9527,-70.40412 z"/>
</svg>
