<?xml version="1.0" encoding="UTF-8"?>
<svg xmlns:svg="http://www.w3.org/2000/svg" xmlns="http://www.w3.org/2000/svg" viewBox="0 0 1000 1000">
  <path transform="translate(-6000,-52.3622)" style="fill:#000000;fill-opacity:1;stroke:none" d="m 6552.8438,755.95593 c -46.0838,11.33807 -93.2161,31.84958 -122.9376,70.40625 -20.083,28.84524 -31.4107,67.08812 -20.375,101.5625 8.9141,22.24179 29.3229,40.56311 52.8438,45.28125 -32.647,14.09195 -47.4572,18.63727 -76.0938,9.65625 -37.0245,-12.12506 -52.0632,-54.66074 -50.25,-90.53125 l -62.2187,31.78125 c -15.0805,12.12189 -50.4227,13.04583 -41.5937,38.8125 3.167,41.12872 30.2915,84.31912 73.4687,91.25002 47.4637,8.8901 91.2729,-17.2909 130.1875,-40.875 53.7214,-30.84508 78.131,-44.02625 113.3125,-66.28127 24.952,-14.29361 48.6684,-31.38172 73.3125,-45.65625 l -6.3125,-15.59375 c -11.1826,7.10249 -52.0233,34.01315 -81.5625,12.125 -18.1175,-11.1123 -26.9858,-32.70281 -24.25,-53.46875 3.7037,-24.71209 12.8573,-51.78173 34.2812,-66.59375 l 8.1876,-21.875 z"/>
</svg>
