<?xml version="1.0" encoding="UTF-8"?>
<svg xmlns:svg="http://www.w3.org/2000/svg" xmlns="http://www.w3.org/2000/svg" viewBox="0 0 1000 1000">
  <path transform="translate(-19000,947.6378)" style="fill:#000000;fill-opacity:1;stroke:none" d="m 19099.906,-737.63782 -99.906,70 120,0 0,250 c 63.464,-30.03828 110.294,-63.16172 170,-100 33.65,-20.17104 66.589,-44.88394 97.594,-68.78125 21.197,-4.37686 43.624,-2.55834 61.406,9.875 29.851,26.93259 31.099,70.44012 31,108.90625 l -2.188,298.59375 102.188,-58.59375 0,-220 c 0.996,-60.05328 0,-120 -20.125,-165.34375 -12.998,-26.14591 -41.188,-40.34131 -69.594,-40.25 -37.382,-1.33928 -70.043,22.48061 -97.781,36.9375 -52.5,38.65625 -127.5,88.65625 -172.188,119.375 l 1.75,-170.71875 397.938,0 100,-70 z m 124.563,386.5 -93.907,59.40625 c 24.454,19.10121 54.443,44.08992 73,62.71875 l 92.813,-57.0625 c -21.032,-20.66902 -47.033,-44.26025 -71.906,-65.0625 z"/>
</svg>
