<?xml version="1.0" encoding="UTF-8"?>
<svg xmlns:svg="http://www.w3.org/2000/svg" xmlns="http://www.w3.org/2000/svg" viewBox="0 0 1000 1000">
  <path transform="translate(-16000,-52.3622)" style="fill:#000000;fill-opacity:1;stroke:none" d="m 16099.906,262.36218 -99.906,70 166.531,0 c 0.674,84.43077 1.106,168.84843 0.844,253.28125 -13.22,8.61553 -25.73,18.31148 -37.375,28.84375 -14.829,13.54513 -6.624,35.93682 4.656,49 11.571,14.02135 30.402,30.71227 49.532,20.4375 26.62,-15.67033 47.71,-39.14377 74.124,-55.28125 2.014,-6.60912 7.076,-14.52655 8.188,-21.28125 79.567,-1.55117 173.89,-0.12816 253.47,-0.34375 0.02,75.16868 0.03,150.49835 0.03,225.34375 l 100,-60 c 1.216,-146.27706 -1.645,-294.23587 0.06,-440 21.147,0 18.793,0 39.94,0 l 100,-70 c -235.453,0 -457.997,0 -660.097,0 z m 166.594,70 c 83.313,0 170.126,0 253.439,0 -0.01,69.26518 0.02,139.60954 0.03,210 l -253.47,0 0,-210 z"/>
</svg>
