<?xml version="1.0" encoding="UTF-8"?>
<svg xmlns:svg="http://www.w3.org/2000/svg" xmlns="http://www.w3.org/2000/svg" viewBox="0 0 1000 1000">
  <path transform="translate(-16000,-52.3622)" style="fill:#000000;fill-opacity:1;stroke:none" d="m 16099.906,262.36218 -99.906,70 120,0 c 0.674,84.43077 1.106,125.56718 0.844,210 -13.22,8.61553 -25.73,18.31148 -37.375,28.84375 -14.829,13.54513 -6.624,28.09307 4.656,41.15625 11.571,14.02135 28.179,26.70013 45.344,40 40,30 75.123,34.02872 86.5,-45 79.567,-1.55117 160.421,-0.12816 240.001,-0.34375 0.02,75.16868 0.03,150.49835 0.03,225.34375 l 100,-60 c 1.216,-146.27706 -1.645,-294.23587 0.06,-440 21.147,0 18.793,0 39.94,0 l 100,-70 c -226.663,0 -400.062,0 -600.094,0 z m 120.063,70 c 83.313,0 156.657,0 239.97,0 -0.01,69.26518 0.02,139.60954 0.03,210 l -240.001,0 0,-210 z"/>
</svg>
