<?xml version="1.0" encoding="UTF-8"?>
<svg xmlns:svg="http://www.w3.org/2000/svg" xmlns="http://www.w3.org/2000/svg" viewBox="0 0 1000 1000">
  <path transform="translate(-9000,-52.3622)" style="fill:#000000;fill-opacity:1;stroke:none" d="m 9263.4941,927.95081 c -1.8064,-42.00358 24.4672,-80.49021 60.4757,-100.31185 49.763,-32.18835 102.0695,-66.33628 161.888,-74.85901 38.0968,-5.47855 82.5593,18.19517 85.815,59.58223 5.5298,42.79171 -20.2853,81.39856 -51.6728,107.74818 -107.82,72.03001 -197.82,122.03004 -320.9822,189.22514 31.0733,-24.3684 61.1912,-50.2006 92.8604,-73.6561 70.3018,-33.539 140.7674,-73.87784 169.0777,-130.18299 13.1433,-27.92464 8.1512,-70.75155 -26.3833,-79.59841 -22.3926,-3.75759 -37.3926,-3.75759 -49.2913,-1.07088 -9.9903,13.96688 -15.8517,30.34992 -14.3951,48.40459 -35.7973,18.2397 -71.5947,36.4794 -107.3921,54.7191 z"/>
</svg>
