<?xml version="1.0" encoding="UTF-8"?>
<svg xmlns:svg="http://www.w3.org/2000/svg" xmlns="http://www.w3.org/2000/svg" viewBox="0 0 1000 1000">
  <path transform="translate(-1000,-52.3622)" style="fill:#000000;fill-opacity:1;stroke:none" d="m 1584.5313,757.23718 c -19.1324,-0.0782 -38.2883,4.46051 -55.25,13.71875 -47.6488,22.95231 -100.2985,45.83134 -129.2813,92.625 -15.4167,22.73633 -14.798,52.13861 -5.6874,77.15625 9.244,24.17898 27.7789,46.20934 51,58.40625 -14.1522,11.89057 -26.5897,25.59707 -35.8126,41.87497 -18.6621,30.1051 -10.8187,71.258 15.0626,94.625 29.6658,32.2182 76.7774,42.5989 118.6562,33.4376 48.795,-10.8113 92.6766,-36.7698 133.875,-64.2188 30.2625,-18.3421 55.2646,-44.7331 71.3125,-76.3438 -32.1266,14.2897 -64.2484,28.5853 -96.375,42.875 -7.0348,12.5829 -15.6351,24.1926 -25.5313,34.5938 -26.5105,6.5308 -54.4624,6.5517 -80.0937,-3.4062 -27.6455,-12.6667 -55.9333,-38.5464 -52.6563,-71.7188 1.6667,-12.2052 6.3045,-23.3121 12.875,-33.31252 10.2193,-0.96893 20.519,-1.57374 30.6876,-2.8125 25.624,-18.61697 51.2196,-37.22678 76.8437,-55.84375 -17.4375,3.46875 -37.4376,8.46875 -71.3437,5.65625 -36.7416,-11.37938 -64.1897,-50.54235 -60.3438,-89.25 2.231,-13.27398 8.0156,-25.50981 15.9688,-36.3125 24.9427,-2.0651 50.2071,6.38728 70.9062,20.4375 22.2132,14.78802 45.5744,35.99341 47.6875,64.25 l 95.5313,-48.65625 c -7.4222,-35.49234 -35.5968,-62.76108 -66.25,-79.875 -18.444,-11.79851 -40.0979,-17.81763 -61.7813,-17.90625 z"/>
</svg>
