<?xml version="1.0" encoding="UTF-8"?>
<svg xmlns:svg="http://www.w3.org/2000/svg" xmlns="http://www.w3.org/2000/svg" viewBox="0 0 1000 1000">
  <path transform="translate(-13000,-52.3622)" style="fill:#000000;fill-opacity:1;stroke:none" d="m 13099.906,262.36218 -99.906,70 284.594,0 c 0.427,23.61117 0,60.80694 -0.188,89.0625 -31.415,16.6012 -61.366,35.96174 -89.218,57.96875 -43.074,37.08881 -73.436,91.30873 -75.188,149.0625 -1.803,59.4395 36.909,112.23455 84.344,143.90625 46.807,27.879 99.819,48.70367 154.781,50.65625 54.774,4.62094 101.992,-27.80913 145.688,-56.15625 24.834,-12.54836 44.213,-33.3755 58.219,-57.1875 32.004,-59.30586 48.336,-132.60514 24.5,-197.6875 -20.54,-52.45603 -72.404,-83.45906 -121.657,-105.09375 l -86.093,57.40625 c 30.484,12.53178 60.205,28.42937 84.718,50.71875 38.719,32.68656 47.335,87.409 40.25,135.15625 -6.028,39.09975 -19.23,80.07707 -44.094,111.5 -21.636,2.5065 -43.961,0.76836 -65.093,-3.71875 -59.859,-14.55688 -122.769,-40.0864 -158.407,-93.15625 -32.118,-41.92126 -30.567,-101.40811 -7.562,-147.09375 17.471,-33.60236 34.18,-52.99082 60.562,-73.28125 30.821,-15.60424 63.638,-31.49675 94.188,-47.0625 0.205,-20.95607 -0.188,-42.90921 -0.406,-65 l 256.062,0 100,-70 z"/>
</svg>
