<?xml version="1.0" encoding="UTF-8"?>
<svg xmlns:svg="http://www.w3.org/2000/svg" xmlns="http://www.w3.org/2000/svg" viewBox="0 0 1000 1000">
  <path transform="translate(-13000,947.6378)" style="fill:#000000;fill-opacity:1;stroke:none" d="m 13099.906,-737.63782 -99.906,70 340.188,0 c 0.426,23.61117 0,60.80694 -0.188,89.0625 -31.415,16.6012 -61.367,35.96174 -89.219,57.96875 -43.074,37.08881 -73.435,91.30873 -75.187,149.0625 -1.803,59.4395 36.909,112.23455 84.344,143.90625 46.807,27.879 99.819,48.70367 154.781,50.65625 54.774,4.62094 101.991,-27.80913 145.687,-56.15625 24.834,-12.54836 44.213,-33.3755 58.219,-57.1875 32.004,-59.30586 48.336,-132.60514 24.5,-197.6875 -20.54,-52.45603 -72.403,-83.45906 -121.656,-105.09375 l -86.094,57.40625 c 30.484,12.53178 60.206,28.42937 84.719,50.71875 38.719,32.68656 47.335,87.409 40.25,135.15625 -6.028,39.09975 -19.23,80.07707 -44.094,111.5 -21.636,2.5065 -43.962,0.76836 -65.094,-3.71875 -59.859,-14.55688 -122.768,-40.0864 -158.406,-93.15625 -32.118,-41.92126 -30.567,-101.40811 -7.562,-147.09375 17.47,-33.60236 34.18,-52.99082 60.562,-73.28125 30.821,-15.60424 63.638,-31.49675 94.188,-47.0625 0.204,-20.95607 -0.189,-42.90921 -0.407,-65 l 256.063,0 100,-70 z m 34,110 -93.906,59.40625 c 24.454,19.10121 54.443,44.08992 73,62.71875 l 92.812,-57.0625 c -21.031,-20.66902 -47.033,-44.26025 -71.906,-65.0625 z"/>
</svg>
