<?xml version="1.0" encoding="UTF-8"?>
<svg xmlns:svg="http://www.w3.org/2000/svg" xmlns="http://www.w3.org/2000/svg" viewBox="0 0 1000 1000">
  <path transform="translate(-10000,-52.3622)" style="fill:#000000;fill-opacity:1;stroke:none" d="m 10099.906,262.36218 -99.906,70 c 136.646,0 273.292,0 409.938,0 0,40.74483 0,82.32209 0,123.53125 -23.655,-14.05153 -50.032,-23.67279 -77,-27.9375 -2.791,-0.13267 -5.54,-0.18022 -8.282,-0.125 -55.74,1.12286 -101.967,39.88218 -148.344,66.84375 -43.414,19.33539 -58.898,71.64027 -49.812,115.375 15.246,58.35165 77.803,92.99103 135.625,92.59375 51.8,2.64503 101.61,-10.88843 147.844,-32.6875 0.01,54.20173 0.03,108.46484 0.03,162.40625 l 100,-60 c 1.216,-146.27706 -1.646,-294.23587 0.06,-440 56.615,0 -16.674,0 39.941,0 l 100,-70 c -225,0 -325.097,0 -550.097,0 z m 237.344,264.96875 c 38.193,24.14813 56.386,64.85818 70.219,106.15625 -82.411,24.92876 -146.315,-6.91142 -174.781,-50.25 -15.792,-26.49263 -15.193,-63.35094 0.437,-90.5 35.614,-2.8692 78.564,17.68561 104.125,34.59375 z"/>
</svg>
