<?xml version="1.0" encoding="UTF-8"?>
<svg xmlns:svg="http://www.w3.org/2000/svg" xmlns="http://www.w3.org/2000/svg" viewBox="0 0 1000 1000">
  <path transform="translate(-10000,947.6378)" style="fill:#000000;fill-opacity:1;stroke:none" d="m 10099.906,-737.63782 -99.906,70 c 184.542,0 295.397,0 479.939,0 l 0,123.53125 c -23.655,-14.05153 -50.032,-23.67279 -77,-27.9375 -2.791,-0.13267 -5.539,-0.18022 -8.281,-0.125 -55.74,1.12286 -101.967,39.88218 -148.344,66.84375 -43.414,19.33539 -58.898,71.64027 -49.812,115.375 15.245,58.35165 77.802,92.99103 135.624,92.59375 51.8,2.64503 101.61,-10.88843 147.844,-32.6875 0.01,54.20173 0.03,108.46484 0.03,162.40625 l 100,-60 c 1.216,-146.27706 -1.644,-294.23587 0.06,-440 56.615,0 -20.361,0 36.254,0 l 100,-70 c -272.895,0 -343.513,0 -616.408,0 z m 34,130.59375 -93.906,59.40625 c 24.454,19.10121 54.443,44.08992 73,62.71875 l 92.812,-57.0625 c -21.031,-20.66902 -47.033,-44.26025 -71.906,-65.0625 z m 273.346,134.375 c 38.192,24.14813 56.385,64.85818 70.218,106.15625 -82.411,24.92876 -146.315,-6.91142 -174.781,-50.25 -15.792,-26.49263 -15.192,-63.35094 0.437,-90.5 35.771,-2.1305 78.076,17.36206 104.126,34.59375 z"/>
</svg>
