<?xml version="1.0" encoding="UTF-8"?>
<svg xmlns:svg="http://www.w3.org/2000/svg" xmlns="http://www.w3.org/2000/svg" viewBox="0 0 1000 1000">
  <path transform="translate(-9000,947.6378)" style="fill:#000000;fill-opacity:1;stroke:none" d="m 9099.9062,-737.63782 -99.9062,70 499.9377,0 0,123.53125 c -23.655,-14.05153 -50.032,-23.67279 -77,-27.9375 -2.791,-0.13267 -5.5393,-0.18022 -8.2813,-0.125 -55.7399,1.12286 -101.9667,39.88218 -148.3437,66.84375 -43.414,19.33539 -58.8985,71.64027 -49.8125,115.375 15.246,58.35165 77.803,92.99103 135.625,92.59375 51.8,2.64503 101.6098,-10.88843 147.8438,-32.6875 0.01,54.20173 0.031,108.46484 0.031,162.40625 l 100,-60 c 1.216,-146.27706 -1.6435,-294.23587 0.063,-440 l 39.9372,0 100,-70 -640.0937,0 z m 229.969,230.09375 c 34.1573,-0.044 73.4116,19.02362 97.375,34.875 38.193,24.14813 56.3858,64.85818 70.2188,106.15625 -82.4111,24.92876 -146.3153,-6.91142 -174.7813,-50.25 -15.792,-26.49263 -15.1925,-63.35094 0.4375,-90.5 2.2259,-0.17932 4.4728,-0.27832 6.75,-0.28125 z m -195.969,140.5 -93.9062,59.40625 c 24.454,19.10121 54.443,44.08992 73,62.71875 l 92.8125,-57.0625 c -21.032,-20.66902 -47.0332,-44.26025 -71.9063,-65.0625 z"/>
</svg>
