<?xml version="1.0" encoding="UTF-8"?>
<svg xmlns:svg="http://www.w3.org/2000/svg" xmlns="http://www.w3.org/2000/svg" viewBox="0 0 1000 1000">
  <path transform="translate(-19000,-52.3622)" style="fill:#000000;fill-opacity:1;stroke:none" d="m 19564.312,57.112183 c -1.019,0.03374 -3.856,1.087958 -9.375,3.625 -46.881,20.459606 -98.805,14.539541 -148.469,19 -42.223,-0.09102 -82.601,14.029887 -119.75,33.187497 -45.383,24.82524 -92.103,51.07493 -126.718,90.3125 -26.879,34.03829 -50.333,77.10117 -44.406,121.78125 36.993,-19.77916 69.317,-32.87709 106.312,-52.65625 4.623,-44.40613 24.397,-81.22564 50.656,-111.8125 8.496,-1.62421 17.096,-2.727 25.719,-3.34375 55.599,-5.91251 113.762,1.2688 166.5,-21.09375 27.831,-21.74313 55.669,-43.475621 83.5,-65.218747 5.835,-4.884334 19.089,-13.882466 16.031,-13.78125 z"/>
</svg>
