<?xml version="1.0" encoding="UTF-8"?>
<svg xmlns:svg="http://www.w3.org/2000/svg" xmlns="http://www.w3.org/2000/svg" viewBox="0 0 1000 1000">
  <path transform="translate(-11000,-52.3622)" style="fill:#000000;fill-opacity:1;stroke:none" d="m 11099.906,262.36218 -99.906,70 479.906,0 0,43.84375 c -29.364,-18.08895 -67.167,-30.39794 -99.625,-12.21875 -50.82,20.80621 -109.657,48.97102 -127.656,105.25 -17.267,58.70954 45.877,113.72285 102.437,103.34375 44.803,-7.56812 83.131,-34.86927 122.25,-56.4375 5.689,13.05655 1.129,29.48611 2.594,43.9375 -0.824,53.25969 2.971,109.06359 -16.906,159.40625 -10.802,25.17847 -30.126,51.48854 -60.844,48 -97.198,-7.69114 -142.156,-85.125 -188.312,-149.25 -28.844,19.125 -65.796,43.2664 -84.594,56 36.096,64.83493 87,128.34823 159.094,153.78125 57.158,16.19 109.194,-19.93723 156.968,-45.90625 48.901,-31.08785 106.967,-61.70188 126.625,-120.34375 13.446,-38.69708 6.075,-80.20364 7.969,-120.3125 l 0,-209.09375 40.094,0 c 31.667,-23.33333 68.333,-46.66667 100,-70 z m 252.719,158.25 c 40.728,12.35859 77.304,37.79042 104.625,70.34375 -17.136,26.88794 -55.282,21.04982 -78.719,5.40625 -25.481,-15.57247 -38.762,-47.6257 -25.906,-75.75 z"/>
</svg>
