<?xml version="1.0" encoding="UTF-8"?>
<svg xmlns:svg="http://www.w3.org/2000/svg" xmlns="http://www.w3.org/2000/svg" viewBox="0 0 1000 1000">
  <path transform="translate(-5000,-52.3622)" style="fill:#000000;fill-opacity:1;stroke:none" d="m 5175.0312,53.643433 c -37.2701,14.378651 -74.5424,28.746349 -111.8124,43.125 -21.5683,35.176547 -37.694,85.057447 -33.2188,121.624997 9.4125,51.95156 66.9002,87.94711 110,98.03125 34.4688,-24.0625 54.4688,-34.0625 95,-49.0625 30.3441,-52.60072 47.4694,-94.10621 95.9062,-145 38.346,14.16044 56.966,57.25197 65.8438,106.53125 1.0738,11.14021 1.7845,22.30325 2.2812,33.46875 l -19.0312,0 c -33.3032,23.33192 -66.603,46.66744 -99.9062,70 l 119.9062,0 c -0.092,163.36667 0,333.41561 0,500 l 100,-60 c 1.2157,-146.27706 -1.6493,-294.23587 0.063,-440 l 39.937,0 100,-70 -139.062,0 c 0,-17.65683 -0.3372,-35.31875 -1.4687,-52.96875 -2.731,-46.54505 -9.2392,-98.33158 -44.3126,-132.562497 -10.3253,-11.435975 -24.3141,-14.427403 -38.7812,-14.46875 -9.8986,-0.02829 -20.0273,1.337686 -29.3438,2.28125 -59.5754,9.1532 -112.1585,44.990287 -152.3437,88.687497 -24.4379,27.95411 -41.9538,49.53205 -58.5937,71.46875 -9.985,-6.96668 -19.2131,-15.04266 -27.5,-23.84375 -26.0049,-33.68341 -11.546,-76.31781 -0.1563,-109.999997 5.945,-13.90686 12.0678,-30.403171 26.5937,-37.3125 z"/>
</svg>
