<?xml version="1.0" encoding="UTF-8"?>
<svg xmlns:svg="http://www.w3.org/2000/svg" xmlns="http://www.w3.org/2000/svg" viewBox="0 0 1000 1000">
  <path transform="translate(-17000,-52.3622)" style="fill:#000000;fill-opacity:1;stroke:none" d="m 17099.906,262.36218 -99.906,70 469.187,0 -3.125,200.4375 c -88.75,6.63833 -171.286,2.67993 -248.656,-8.34375 -31.851,23.29816 -63.751,46.69629 -97.406,67.40625 -0.456,84.28996 56.874,193.72471 131.374,214.71875 52.206,15.60907 108.389,4.45474 157.657,-16 48.104,-24.97457 100.259,-45.4902 139.906,-83.65625 22.479,-20.64024 29.208,-40.37688 29.625,-69.5625 l 0,-305 41.438,0 100,-70 z m 365.812,292.90625 -2.062,132.0625 c -0.853,20.57813 -4.39,31.91234 -12.656,44.25 -41.724,10.36305 -86.503,11.03937 -125.219,-8.875 -41.466,-25.88391 -65.107,-71.31144 -82.813,-115.40625 53.751,2.12314 107.545,2.77877 160.844,-5.4375 z"/>
</svg>
