<?xml version="1.0" encoding="UTF-8"?>
<svg xmlns:svg="http://www.w3.org/2000/svg" xmlns="http://www.w3.org/2000/svg" viewBox="0 0 1000 1000">
  <path transform="translate(-9000,-52.3622)" style="fill:#000000;fill-opacity:1;stroke:none" d="m 9099.2187,262.36218 -99.9062,70 120.6875,0 0.9687,185.125 c -1.2314,31.69475 0.1644,66.15884 21.4376,91.78125 20.6555,26.3619 57.5144,29.29303 87.8124,21.53125 44.8792,-13.74137 84.5571,-40.02109 125.1876,-62.875 4.7949,-2.66828 9.403,-5.39838 13.9062,-8.125 l 0,272.5625 100,-60 0,-75 c 100,15 212.4532,-65.94528 214.75,-141.75 -3.289,-39.35048 -15.6725,-80.89107 -44.5,-109.1875 -18.1464,-18.87075 -45.4526,-23.84976 -70.4375,-19.21875 -41.9363,14.77091 -71.54,28.6338 -99.8125,44.5 l 0,-139.34375 250.6875,0 100,-70 z m 127.3126,70 142.7812,0 0,200.96875 c -11.6837,7.22561 -24.3088,14.9089 -38.2812,23.1875 -15.7794,6.05291 -32.2466,9.8024 -49.5313,9.09375 -32.773,1.15124 -53.0553,-31.49502 -55.2813,-60.875 z m 273.6562,163.0625 c 4.2853,-0.0596 8.6906,0.16992 13.2188,0.6875 38.2183,8.76411 54.7351,49.85353 62.7812,84.34375 4.5346,18.48552 4.6487,39.74701 -1.3125,58.40625 -20.5625,48.5 -60.5625,58.5 -105.5625,53.5 l 0,-191.59375 c 9.85,-3.25074 20.0003,-5.19256 30.875,-5.34375 z"/>
</svg>
