<?xml version="1.0" encoding="UTF-8"?>
<svg xmlns:svg="http://www.w3.org/2000/svg" xmlns="http://www.w3.org/2000/svg" viewBox="0 0 1000 1000">
  <path transform="translate(-7000,947.6378)" style="fill:#000000;fill-opacity:1;stroke:none" d="m 7099.9062,-737.63782 -99.9062,70 482.0312,0 0.1563,53.96875 c -22.8789,5.73272 -45.5444,12.57622 -68.5625,17.71875 -31.9904,6.67277 -62.3873,18.84978 -91.6562,33.1875 -41.8838,20.93397 -83.9613,46.9611 -110.0938,86.90625 -19.0429,28.15281 -25.7181,66.49169 -10.7188,97.84375 31.8451,-17.90684 63.6872,-35.81145 95.5313,-53.71875 54.8112,-25.86871 115.2593,-38.16413 175.3437,-44.71875 45.5515,-2.94876 98.4178,8.01984 126.2188,47.5625 20.3568,23.7966 11.9743,57.6512 0.7188,83.5 -12.7674,29.48453 -34.1234,53.01518 -58.9688,72.53125 -51.6604,23.1862 -111.5179,16.40179 -163,-3.59375 l -96.2188,64.59375 c 48.668,19.99816 104.2039,29.79537 155.6876,15.03125 45.2106,-16.02958 87.1153,-40.23268 128.4687,-64.3125 49.333,-30.73902 104.5082,-60.55445 131.1563,-115.03125 17.5793,-32.71594 28.9307,-77.20747 5.0937,-109.8125 -26.6172,-42.89303 -79.4518,-58.53389 -127.25,-60.1875 -59.1421,4.11966 -118.6168,14.56974 -173.9375,36.5 -38.9765,18.35297 -64.3281,31.78057 -101.3438,53.25 -0.8423,-9.09094 0.1181,-18.42784 1.875,-27.3125 3.8897,-13.95972 10.4203,-27.18453 18.9688,-39 37.2684,-19.88923 105.6582,-31.50672 162.875,-34.90625 l 99.5938,-50 0,-60 178.0312,0 100,-70 z m 34,347.96875 -93.9062,59.40625 c 24.454,19.10121 54.443,44.08992 73,62.71875 l 92.8125,-57.0625 c -21.032,-20.66902 -47.0333,-44.26025 -71.9063,-65.0625 z"/>
</svg>
