<?xml version="1.0" encoding="UTF-8"?>
<svg xmlns:svg="http://www.w3.org/2000/svg" xmlns="http://www.w3.org/2000/svg" viewBox="0 0 1000 1000">
  <path transform="translate(-22000,-52.3622)" style="fill:#000000;fill-opacity:1;stroke:none" d="m 22149.062,609.45593 c -31.552,16.73958 -63.104,33.47917 -94.656,50.21875 4.607,38.77591 4.143,77.9465 5.292,116.93262 0.543,7.82017 -0.57,18.31044 0.909,24.47552 31.006,-15.87563 62.012,-31.75126 93.018,-47.62689 -1.67,-47.27248 -1.139,-94.64262 -4.332,-141.84529 l -0.231,-2.15471 z m 180,0.96875 c -31.552,16.73958 -63.104,33.47917 -94.656,50.21875 4.607,38.77591 4.143,77.9465 5.292,116.93262 0.543,7.82017 -0.57,18.31044 0.909,24.47552 31.006,-15.87563 62.012,-31.75126 93.018,-47.62689 -1.67,-47.27248 -1.139,-94.64262 -4.332,-141.84529 l -0.231,-2.15471 z"/>
</svg>
