<?xml version="1.0" encoding="UTF-8"?>
<svg xmlns:svg="http://www.w3.org/2000/svg" xmlns="http://www.w3.org/2000/svg" viewBox="0 0 1000 1000">
  <path transform="translate(-6000,947.6378)" style="fill:#000000;fill-opacity:1;stroke:none" d="m 6099.9062,-737.63782 -99.9062,70 540,0 0,116.8125 -122.9062,0.75 c -67.5183,0.41201 -144.1456,32.43548 -195.4376,95.125 -89.9813,84.97736 -80.7037,202.48583 18.3438,290.6875 l 95.4062,-60.40625 c -97.131,-59.10513 -111.378,-154.23521 -23.7812,-255.75 16.7858,-4.20604 34.0597,-6.49703 51.3125,-7.21875 l 177.0625,0 0,320 100,-60 0,-440 46.0938,0 100,-70 z m 34,110 -93.9062,59.40625 c 24.4539,19.10121 54.443,44.08992 73,62.71875 l 92.8124,-57.0625 c -21.032,-20.66902 -47.0332,-44.26025 -71.9062,-65.0625 z"/>
</svg>
