<?xml version="1.0" encoding="UTF-8"?>
<svg xmlns:svg="http://www.w3.org/2000/svg" xmlns="http://www.w3.org/2000/svg" viewBox="0 0 1000 1000">
  <path transform="translate(-1000,-52.3622)" style="fill:#000000;fill-opacity:1;stroke:none" d="m 1099.9062,262.36218 -99.9062,70 120,0 c 1.7581,67.38735 -1.8213,147.94032 0,215.3125 1.6355,47.42627 29.7819,94.84526 72.8125,116.5 58.9552,27.71055 175.8241,-20.10155 270,-83.4375 l 0,251.625 100,-60 0,-440 37.1875,0 100,-70 z m 127.0938,70 235.8125,0 0,228.28125 c -61.7771,40.27688 -122.2631,67.94537 -175.5938,36.625 -38.3768,-18.9225 -60.0579,-62.03313 -60.5937,-103.8125 -0.3687,-53.6847 -0.2325,-107.40218 0.375,-161.09375 z"/>
</svg>
