<?xml version="1.0" encoding="UTF-8"?>
<svg xmlns:svg="http://www.w3.org/2000/svg" xmlns="http://www.w3.org/2000/svg" viewBox="0 0 1000 1000">
  <path transform="translate(-1000,947.6378)" style="fill:#000000;fill-opacity:1;stroke:none" d="m 1099.9062,-737.63782 -99.9062,70 157.1873,0 c 1.7582,67.38735 0.085,147.94032 1.9063,215.3125 1.6358,47.42627 27.8757,94.84526 70.9064,116.5 58.9552,27.71055 175.8241,-20.10155 270,-83.4375 l 0,251.625 100,-60 0,-440 46.1874,0 100,-70 z m 164.2811,70 235.8126,0 0,228.28125 c -61.7772,40.27688 -122.2632,67.94537 -175.5938,36.625 -38.3769,-18.9225 -60.0579,-62.03313 -60.5938,-103.8125 -0.3686,-53.6847 -0.2325,-107.40218 0.375,-161.09375 z m -130.2811,320 -93.9062,59.40625 c 24.4539,19.10121 54.443,44.08992 73,62.71875 l 92.8125,-57.0625 c -21.0318,-20.66902 -47.0333,-44.26025 -71.9063,-65.0625 z"/>
</svg>
