<?xml version="1.0" encoding="UTF-8"?>
<svg xmlns:svg="http://www.w3.org/2000/svg" xmlns="http://www.w3.org/2000/svg" viewBox="0 0 1000 1000">
  <path transform="translate(-3000,-52.3622)" style="fill:#000000;fill-opacity:1;stroke:none" d="m 3525.5938,747.39348 c -28.0618,10.20024 -54.8038,24.0386 -80.9688,38.40625 -45.1756,26.31012 -90.5087,58.58073 -114.875,106.28125 -15.4888,26.60572 -16.7776,62.45817 0.125,88.6875 36.7431,51.12982 98.9401,71.98782 153.0312,47.65622 55.1481,-24.0608 111.0691,-53.13585 149.5938,-100.71872 L 3530,971.04973 c -74.7616,16.79848 -120.9579,-59.71951 -104.3438,-104.8438 7.7096,-20.04475 19.7004,-38.13157 34.3438,-53.84375 19.8061,-0.57058 38.1884,14.10931 44.4062,29.65625 35.5938,-29.65625 63.842,-51.05068 95.5938,-69.65625 -9,-34.9687 -49.3438,-31.1562 -74.4062,-24.9687 z"/>
</svg>
